/* XPM */
static char *result[] = {
/* columns rows colors chars-per-pixel */
"64 64 116 2 ",
"   c #39334E",
".  c #3B3650",
"X  c #3E3851",
"o  c #413751",
"O  c #4B3753",
"+  c #443952",
"@  c #4B3952",
"#  c #543A52",
"$  c #593B51",
"%  c #7B3D4F",
"&  c #683757",
"*  c #673658",
"=  c #693658",
"-  c #753A55",
";  c #7F3957",
":  c #7C3759",
">  c #534555",
",  c #5C4355",
"<  c #574957",
"1  c #5A4C57",
"2  c #5C4A59",
"3  c #624556",
"4  c #634857",
"5  c #654A58",
"6  c #684F5B",
"7  c #67525D",
"8  c #69535D",
"9  c #685760",
"0  c #6B5A62",
"q  c #6C6167",
"w  c #6C626A",
"e  c #6C6670",
"r  c #833957",
"t  c #8C3E52",
"y  c #903F51",
"u  c #9D3C56",
"i  c #98395A",
"p  c #A33C57",
"a  c #A93F53",
"s  c #94414F",
"d  c #864952",
"f  c #924551",
"g  c #934852",
"h  c #9B4B51",
"j  c #8D585B",
"k  c #AF444E",
"l  c #B0444E",
"z  c #AB4151",
"x  c #B74D51",
"c  c #B94D51",
"v  c #A25555",
"b  c #A65D5B",
"n  c #B25657",
"m  c #BF5554",
"M  c #A7605C",
"N  c #A9635E",
"B  c #995F60",
"V  c #9F726A",
"C  c #AE6660",
"Z  c #B76561",
"A  c #B86662",
"S  c #B66A64",
"D  c #B96D66",
"F  c #A1736A",
"G  c #BB7368",
"H  c #BE7F6F",
"J  c #C25955",
"K  c #C5635B",
"L  c #C9655B",
"P  c #CC6C5F",
"I  c #E0695F",
"U  c #CE6E60",
"Y  c #CE7262",
"T  c #D17564",
"R  c #E47D6C",
"E  c #C08070",
"W  c #C48E77",
"Q  c #C58F78",
"!  c #C69078",
"~  c #E5816D",
"^  c #E58670",
"/  c #E88670",
"(  c #E68C74",
")  c #EB8C74",
"_  c #E79076",
"`  c #E99177",
"'  c #EC9378",
"]  c #EA997A",
"[  c #EEA17F",
"{  c #CA9E81",
"}  c #CCA686",
"|  c #CDAB8B",
" . c #CCAE91",
".. c #CEB797",
"X. c #CEBB9B",
"o. c #EEA380",
"O. c #F1A480",
"+. c #F1AD85",
"@. c #F4B48A",
"#. c #F8B78B",
"$. c #F5B88D",
"%. c #F9B98D",
"&. c #FBC594",
"*. c #FBCA97",
"=. c #FDCC98",
"-. c #FFD39E",
";. c #CFC2A5",
":. c #CEC2AB",
">. c #CFC7B1",
",. c #CFC8B1",
"<. c #FFD5A2",
"1. c #FFD8A7",
"2. c #FFE1AC",
"3. c #FFE7B2",
"4. c #FFEAB9",
"5. c #FFF1C5",
/* pixels */
"1 > X .             .           . . o X . . . .   .     .                             . X X X .   . .                     + > 1 ",
"> < 7 8 0 q q w e w w w w w q 8 9 2 O + , 5 6 9 9 0 w 0 w w w e w w w w 0 0 0 0 9 9 5 < + O 4 6 9 0 w 0 q w w e w q q q 8 6 1 > ",
"X 5 V W !  ...;.,.,.;.X.X.X.| ! Q F 2 $ B Y H Q { | X.;.X.;.,.:.;.X.;.X.| } } { W T G B < 2 V Q { | X.;.;.;.>.>.;.X.| ! ! V 1 + ",
". 8 ! #.*.-.2.4.5.5.4.3.3.3.-.=.#.Q 9 5 D ) o.$.&.<.1.3.3.4.5.5.4.3.3.1.-.=.=.&.#.O.) D 3 9 Q #.&.<.1.3.2.4.5.5.4.2.-.*.#.! 7 . ",
"  0 } &.=.=.-.-.1.1.-.-.-.-.=.=.*.{ 9 3 D ' @.&.=.=.<.<.<.<.1.1.<.-.-.-.-.*.=.*.&.#.' D 4 8 } &.=.=.-.<.<.<.1.1.-.-.=.=.*.! q X ",
"  0 } =.=.*.*.*.*.*.*.*.=.*.=.=.=.} 0 3 S ' %.=.=.=.*.*.*.&.*.*.*.*.*.*.*.*.*.=.=.$.' D 3 0 } =.=.=.&.*.*.*.*.*.*.*.=.=.=.} 0   ",
"  0 } =.=.*.*.*.*.*.*.*.*.&.=.=.=.} 0 3 S ' $.=.*.*.*.*.*.*.*.*.*.*.*.*.*.*.*.*.=.%.` S 3 0 } -.=.*.*.=.*.*.&.*.*.*.=.=.=.} 0 . ",
"  0 } -.=.*.*.*.*.*.*.*.*.=.=.=.=.} 9 3 S ` @.&.*.*.*.*.*.*.*.*.*.*.*.*.*.*.*.*.&.@.) S 4 9 } =.=.=.*.*.*.*.*.*.*.*.=.=.=.} 0   ",
". 0 } =.*.*.*.*.*.*.*.*.*.*.*.-.=.} 0 3 D / o.@.&.*.*.*.*.*.*.*.*.*.*.*.*.*.*.&.$.o.( S 3 9 } =.=.*.*.*.=.*.*.*.*.*.*.=.=.| q   ",
"  0 { &.=.*.*.*.*.*.*.*.*.*.*.*.*.{ 9 4 D / ` o.$.&.*.*.=.=.=.*.*.*.*.*.*.*.&.$.o._ ^ D 4 9 { &.*.=.*.*.*.*.*.*.*.*.*.*.*.! 8   ",
"  8 Q $.&.*.*.*.*.*.*.*.*.*.*.*.$.Q 7 3 D ^ ^ _ o.@.&.*.=.=.=.=.*.*.*.-.*.&.@.o.` ^ ~ D 2 7 Q #.&.*.*.*.*.*.*.*.*.*.*.&.#.W 8 X ",
". 6 E O.$.&.*.*.*.*.*.*.*.*.&.$.o.H 5 4 D R R ^ _ o.@.$.$.$.$.$.$.$.$.$.$.@.o.( ^ R R D 4 5 H O.$.&.*.=.*.=.*.*.*.*.*.$.[ H 6 X ",
". 5 G ` O.@.&.*.=.=.=.=.*.&.@.[ ` D 5 4 D R R ^ ^ ( _ _ ` ` ` ` _ _ ` ` _ _ ( ^ R ~ R D 3 5 D ' o.@.&.=.*.*.*.-.*.&.$.[ ' G 5 X ",
". 3 D / ' [ @.$.$.$.$.$.$.@.[ ` ^ D 4 3 Z R R R R R R R R R R R ~ ~ R R R ~ ~ R ~ R R Z 4 4 D / _ o.@.$.$.$.$.$.$.@.[ ' / S 4   ",
"  5 D ~ / ( ` ` ` ` ' ' _ ( ( ^ ^ D 5 $ n I R R ^ ~ ^ R ~ R R R ~ ~ ~ ~ ~ ~ ~ ~ ^ R I n $ 4 D ~ ( _ ( _ ` ` ' ' ` ` / / / S 4 X ",
"X 3 Z R ~ / T R R ~ T R ~ ~ ~ ~ R A 4 # g n Z D D G D S D D D D D D D D D D D G D A n f $ 4 Z R R T ~ ~ R R ~ ~ T ~ R R R A 3 . ",
"X & n I R ~ ~ ~ R R ^ R R R ^ R I n 3 + $ 3 3 5 5 5 5 5 5 5 5 5 5 5 5 5 5 5 3 3 6 4 & # + 3 n I R R / R R R R ^ R R ^ R I n & . ",
". $ s n Z S D S D D D D D D D A n f $ . . . X   . . .     . . . . . . . . X o .   . . . X $ g n Z D D D D D D D D D D Z n f # . ",
"X X # , 3 4 4 4 3 4 4 4 2 4 4 5 & $ @ X X . X   . . .   . X . . . . . . . . . . . . . X X + $ 3 3 5 5 5 4 4 4 3 2 4 4 3 3 $ + X ",
"X > > 4 4 4 4 4 4 4 4 4 4 4 $ # + X X X X + @ # # # $ $ # # # O o o O # # # $ $ # # # O + X . + $ $ 3 4 4 3 4 4 4 3 4 , , < + X ",
". 2 B D S S S D D D D D D Z n f # . X X X O = : r t y y t r : & # O = : r t y y t r : & O . . # f n Z D D D D D S S S S N j > X ",
". 5 G _ ' ' ' ) ( / R ~ R R I n 3 . X X X # : i a a k k a p i : # O : i a a l l a u i : # . . & n I R ^ R R / ( ' ' ' _ ~ S 4 . ",
". 5 T +.@.%.%.@.O.` / R R R R Z 5 . . X X # r p a l l l k a p r # # r p a l l l l a p r # . . 5 A R R R R / ` o.@.#.%.@.[ H 7   ",
". 9 Q #.&.=.=.&.@.o._ ^ ^ R ^ D 5 . X X X # - t y s s y y y t % O O - t y s s y y f t - # . . 5 D ^ R R / _ o.$.&.=.=.&.$.W 8   ",
"  0 { &.*.=.=.*.&.@.o._ ^ ^ ^ D 3 X X o X + # # $ $ $ # # # # @ o o @ # $ # $ $ # $ # # + X . 3 D ^ R ^ _ o.$.&.*.=.=.*.&.! 0 X ",
"  9 } =.=.*.*.*.*.&.+.] ^ R R D 3 o X X X X X o O O # $ , , , , 2 * , $ $ # @ O o . o X X X . 5 D R ^ ( ] +.&.*.*.*.=.=.-.} 0   ",
". 0 } =.=.*.*.*.*.%.+.] ^ R R D 5 . X X X X X O * : t s h v N N C M v h s y : & O . X X X X . 5 D R T ( ] +.&.*.=.*.*.=.=.} 0   ",
"  0  .1.-.*.*.*.=.&.@.o.( R ~ D 5 . X X X X X # : u k x m L Y T Y Y L J x a u r # X X X X X . 5 Y R ~ ( ] @.&.*.*.*.*.=.1.| q   ",
"  w :.5.<.&.*.*.=.*.&.+._ ~ ^ D 5 . X X X X X # y k k x K P Y T Y Y P K x k k t # X X X o . . 5 D R R _ @.&.*.*.*.*.&.1.4.:.e   ",
"  e ,.5.1.*.*.*.*.*.*.$._ R ^ D 3 . X X X X X # y a k x K Y Y T Y Y Y K x k k t # X X o X X . 5 D ^ R _ $.=.*.*.*.*.*.1.5.,.e   ",
"  w :.4.<.*.&.*.*.=.=.$._ ~ ~ D 3 X o o o X X # ; u k x m K Y Y T Y L J x a u ; # . X X o X . 5 D R R _ $.*.*.*.*.*.*.<.4.;.w   ",
"  0 ..2.-.*.*.*.*.=.=.$._ ~ ~ S 3 o X X X X . O * : t s h v M N N M v h s y - * O X X X X X X 5 D ^ R _ $.*.*.*.*.*.*.-.2...q   ",
"  0 | -.-.*.*.*.*.*.*.$.` ~ ~ D 5   X X X X   o + @ # $ $ , , , 4 3 , $ # # @ @ + . . X X X . 5 D R R ` $.*.=.*.*.*.*.*.<.| 9   ",
"  0 | <.=.*.*.*.*.*.*.$.` R ~ D 5 . X + @ # $ $ $ $ $ $ $ , $ # X + $ , $ $ $ $ $ $ # O + . . 5 D R R ` $.*.*.*.*.=.*.*.<.| 0   ",
"  w X.1.<.&.*.*.*.=.*.$._ R ~ D 5 .   @ & r t y s s s s h h s % @ $ d h s s y s s t ; * O . . 5 D R R ` $.*.*.*.*.*.*.<.1.X.w   ",
"  w ..2.<.*.*.*.*.*.&.@._ ~ ~ D 5     # ; u k l l l l x J J m g $ , v J x l l l k z u ; # . . 5 D ^ R _ @.&.*.*.*.*.*.1.2.X.w   ",
"  0 | <.=.*.*.*.=.&.@.o.^ ^ ~ D 5   . $ y a l l l l l x L U P b , , M L c l l l l k z t $ .   5 D ~ ~ ( o.@.&.*.*.*.*.-.<.| 0   ",
"  9 } -.=.*.*.=.*.&.+.] ^ R ~ D 5 X . $ y a k l l l l x L U P b , , M L c l l l l l k f $ . X 3 D ~ ~ ^ ] +.$.*.*.*.*.*.=.} 0   ",
"  q } *.=.*.*.=.=.$.+.] ^ R ~ D 5 . . # r u z l l k l x J J J g , , v J x k l l l z u ; #     6 Y R R ^ ] +.&.*.*.*.*.*.=.} 0   ",
"  0 ! *.=.*.=.*.&.$.o._ ^ R ^ D 5 . . O * % d s s s s s h h s % @ $ d h s s s s s t ; & @ . X 5 D ^ R ^ _ o.$.&.*.*.=.*.&.} 0   ",
". 7 ! %.&.=.=.&.$.[ ` ^ ~ ~ R Y 5 . . + @ # # $ $ $ $ $ $ $ $ # o + $ , $ $ # $ $ $ # @ +   X 4 D ~ ~ ~ ~ ` o.@.&.*.=.&.#.! 8   ",
"  7 E [ #.%.#.@.[ ' ~ ~ ~ ~ R D 3 . X X X X X + O # # $ $ $ # & $ $ $ $ # # # @ o   X X + X . 3 Z R R R ~ ^ ' O.@.$.%.@.[ H 6 . ",
". 6 G ) ' ' ' ' ( ~ ~ ~ ~ T I n & . . X X X . @ = r y y s s s s s s s s s s r & O X X X X     3 n I R ~ ~ ~ / / ` ` ` ( ^ S 4   ",
". , B D D D S S S D D D D Z n g $ . X X X X X O = r y s s s s s s s s s s s r & @ X X X X + X $ f n S D D D S S D D D D N j > . ",
"X @ , 4 3 3 3 3 4 4 4 4 4 3 3 $ + . X X + X X + O # $ $ $ # $ $ $ $ , $ $ $ $ @ o o + X X X   + # , 4 4 4 2 4 4 4 3 3 3 2 > + + ",
"X + $ $ 3 3 4 4 4 4 4 4 4 3 3 3 3 $ @ X . X X X   X . . X . X .     X X     X X X     X X @ $ 3 4 4 4 4 4 4 4 4 4 4 4 3 3 # @   ",
". $ f n A D D D S D D D S D S A n g ,   . X . . X . . X   X X X o o         X     X   X . $ g n A D S D S D D D S D S Z n f $ . ",
". 4 n I R ~ ~ ~ ~ ~ ~ ~ ~ ~ R R I n & + # 3 3 5 5 3 5 5 5 3 5 5 3 3 5 5 5 5 5 5 5 5 3 $ + 3 n I R ~ ~ R ~ ~ ~ ~ ~ ~ ~ R I n 3 . ",
". 3 A R T ^ R R R R R ^ R R R R R Z 3 # f n Z S D D D D D D D D D D D D D D D D D Z n f # 3 Z R R ~ R R ~ R R ~ R ~ R R T A 5 . ",
". 4 D ~ ^ ( ` ` _ ` _ _ _ _ ( / ^ D 5 & n I R ~ ~ ~ ~ / R ^ ~ ~ ~ ~ ~ ~ ~ ~ ~ ^ ~ R I n & 5 D ^ / ^ ` ` _ _ _ _ _ _ ( ^ / G 5 . ",
"X 4 D / _ o.@.$.$.$.$.$.$.@.o._ / D 4 4 Z R ~ ~ ~ ~ R R T ^ ~ ~ R R R R R ~ T ^ ~ R R Z , 4 D ^ _ o.@.$.$.$.$.$.$.@.o._ / D 3 . ",
"  4 D ' o.@.&.=.=.=.=.=.=.&.$.o.( G 4 4 S ~ ~ ~ ~ ^ ` ` ] _ _ _ ` ` ` ` ` ` ( ^ ~ ~ ~ D 4 4 G ` o.@.&.*.=.=.=.=.=.&.@.o.` D 5 . ",
". 6 T +.$.&.*.=.=.*.*.*.=.*.&.$.O.H 6 , D ~ ~ ^ ` [ @.$.$.$.$.$.$.$.$.$.$.@.[ _ ~ ~ ~ D 4 4 H o.$.&.*.*.*.*.=.=.*.*.&.$.O.T 7 . ",
"  8 W #.&.*.*.*.*.*.*.*.*.*.*.&.#.Q 7 4 D ~ ^ ( [ $.*.*.*.*.*.=.=.=.=.=.=.&.@.o.` ^ ~ D 4 6 Q #.&.*.*.*.*.*.*.*.*.*.*.&.#.Q 9   ",
"  0 { *.*.=.*.*.*.*.*.*.*.*.*.&.&.{ 9 3 D ^ ` o.$.&.*.*.=.*.*.*.*.*.*.*.=.*.&.@.o.' ^ D 4 9 { *.=.*.*.*.*.*.*.=.*.*.*.=.&.{ 9   ",
"  0 } =.*.=.*.*.*.*.*.*.*.=.=.=.=.} 0 3 D ( o.#.&.*.*.*.*.*.*.*.*.*.*.*.*.*.*.&.$.[ ^ D 4 0 } =.=.*.*.*.*.*.*.*.*.*.=.=.=.| 0   ",
"X 8 } =.*.*.*.*.*.*.*.*.*.*.*.*.=.} 0 3 S ( @.&.*.*.*.*.*.*.*.*.*.*.*.*.*.*.*.*.&.#._ S 4 9 } =.=.*.*.*.*.*.*.*.*.*.*.=.=.} 0 . ",
"  q } =.=.*.*.*.*.*.*.*.&.*.*.=.-.} 0 4 D ' %.=.*.*.*.*.*.*.*.*.*.*.*.*.*.*.*.*.=.%.' S 3 0 } =.=.*.*.*.*.*.*.*.*.*.&.=.=.} 0 . ",
"  8 | -.=.*.*.*.*.*.*.&.*.*.*.=.=.} 9 3 S ' %.=.=.*.*.*.*.*.*.*.*.*.*.*.*.*.*.*.=.$.` S 3 0 } =.=.*.*.*.*.&.*.*.*.*.*.=.=.} 0 . ",
". 0 ! *.=.=.-.<.1.1.1.1.<.<.=.=.&.{ 9 3 D ) @.&.=.=.<.-.=.=.-.<.1.1.1.-.-.<.=.=.&.#.` D 3 9 { *.=.=.-.-.<.<.1.1.1.-.=.*.*.{ 9 . ",
". 7 W #.*.-.2.4.5.5.4.3.3.1.<.*.#.! 8 4 D ( O.@.&.-.2.2.-.-.2.4.5.5.4.3.3.2.<.&.#.[ ) D 3 7 ! %.&.-.1.3.3.4.5.5.4.2.-.*.#.Q 9   ",
"+ 7 F ! { | ..;.>.>.;.X.;...} { Q V 2 , B Y E W { | X.X.| | ..;.,.,.;.X.X.X.| { W E Y B , 2 F ! } | ..;.X.;.>.,.;.X.| { ! F 5 + ",
"> 1 6 7 0 0 w w w e w w w w q 0 8 2 @ + < 5 7 8 0 0 q q 0 0 w w w e w w w w 0 0 8 7 6 , + @ 1 8 0 0 q w w w e w w q 0 0 7 7 < > ",
"1 > X                           . . X X X . .                                     .   . X X X                             + > 2 "
};
