/* XPM */
static char *_bc403df1b4f4daef13706f8c2bd118aY213zuS8l4gR3mif[] = {
/* columns rows colors chars-per-pixel */
"60 60 226 2 ",
"   c None",
".  c #342E49",
"X  c #3A2F49",
"o  c #3C344D",
"O  c #35324D",
"+  c #3B3650",
"@  c #3E3A53",
"#  c #383954",
"$  c #2D2C4E",
"%  c #41344E",
"&  c #49364D",
"*  c #5A384E",
"=  c #413751",
"-  c #443C54",
";  c #493C53",
":  c #483854",
">  c #563852",
",  c #683B4B",
"<  c #75374C",
"1  c #683654",
"2  c #7A3853",
"3  c #602F4F",
"4  c #3B445A",
"5  c #3D485C",
"6  c #344B64",
"7  c #2F566E",
"8  c #355D6E",
"9  c #335169",
"0  c #2E5C73",
"q  c #29687D",
"w  c #326977",
"e  c #326977",
"r  c #3A7D7E",
"t  c #36727A",
"y  c #4A4156",
"u  c #45425A",
"i  c #4A455C",
"p  c #4D495E",
"a  c #464057",
"s  c #534B5D",
"d  c #554557",
"f  c #664A55",
"g  c #68545A",
"h  c #714F57",
"j  c #4C4C63",
"k  c #444761",
"l  c #544C61",
"z  c #594F61",
"x  c #4D526A",
"c  c #4D5067",
"v  c #51536A",
"b  c #59576B",
"n  c #4E5C74",
"m  c #545C73",
"M  c #675964",
"N  c #55647B",
"B  c #5B667B",
"V  c #756566",
"C  c #676679",
"Z  c #746970",
"A  c #75615E",
"S  c #853D4C",
"D  c #8A3E49",
"F  c #873954",
"G  c #973856",
"H  c #963E4A",
"J  c #BA3B55",
"K  c #A73A55",
"L  c #C83B55",
"P  c #9C434C",
"I  c #964148",
"U  c #875756",
"Y  c #8E484F",
"T  c #A5464C",
"R  c #B8484A",
"E  c #A65D59",
"W  c #A45754",
"Q  c #AE5851",
"!  c #89675C",
"~  c #9C6456",
"^  c #BA785D",
"/  c #AC6855",
"(  c #866B6F",
")  c #8A6C64",
"_  c #8B7162",
"`  c #8A796B",
"'  c #906F6B",
"]  c #AE756B",
"[  c #805B60",
"{  c #CA474B",
"}  c #DC4A49",
"|  c #D7454C",
" . c #DE514D",
".. c #D7564C",
"X. c #D54051",
"o. c #CB5450",
"O. c #E14B49",
"+. c #E2544E",
"@. c #E6584F",
"#. c #E35C52",
"$. c #E35750",
"%. c #C9685C",
"&. c #D5745A",
"*. c #E56355",
"=. c #EB6D5A",
"-. c #E56859",
";. c #ED735D",
":. c #F1765E",
">. c #F2795B",
",. c #F06748",
"<. c #D77667",
"1. c #E87964",
"2. c #F07760",
"3. c #F17961",
"4. c #958478",
"5. c #B48F71",
"6. c #F28859",
"7. c #F6935F",
"8. c #C4966D",
"9. c #C68575",
"0. c #C49C70",
"q. c #D68F6C",
"w. c #EC856C",
"e. c #F38569",
"r. c #F3916F",
"t. c #D1AA78",
"y. c #F7A76B",
"u. c #E2B479",
"i. c #E4B478",
"p. c #F9BA77",
"a. c #E5A770",
"s. c #DC865D",
"d. c #F6C27D",
"f. c #FCC57D",
"g. c #FEC97F",
"h. c #297987",
"j. c #347E82",
"k. c #5D768C",
"l. c #596980",
"z. c #616E83",
"x. c #667184",
"c. c #697181",
"v. c #6C7B8C",
"b. c #687689",
"n. c #727D8C",
"m. c #797989",
"M. c #8A7D82",
"N. c #2B838C",
"B. c #27848E",
"V. c #298B92",
"C. c #278A93",
"Z. c #2D9D9A",
"A. c #2A9396",
"S. c #339E97",
"D. c #36A69A",
"F. c #6A8397",
"G. c #748494",
"H. c #72879A",
"J. c #788A99",
"K. c #77818F",
"L. c #778FA1",
"P. c #7A93A4",
"I. c #7E98A9",
"U. c #878796",
"Y. c #858994",
"T. c #A69983",
"R. c #A89894",
"E. c #B28F87",
"W. c #B5A39C",
"Q. c #B0A484",
"!. c #839DAC",
"~. c #8798A4",
"^. c #9799A5",
"/. c #84A0AF",
"(. c #89A2AF",
"). c #8AA5B2",
"_. c #8CA9B5",
"`. c #87A4B2",
"'. c #92ACB7",
"]. c #96B4BD",
"[. c #9AB4BC",
"{. c #9BB8BF",
"}. c #98A4AE",
"|. c #A2A3AE",
" X c #A7AAB4",
".X c #AFB2B4",
"XX c #C79889",
"oX c #EE9E87",
"OX c #DEA28D",
"+X c #C6B58B",
"@X c #C8A496",
"#X c #D2A997",
"$X c #D5A796",
"%X c #D3B78E",
"&X c #EDB095",
"*X c #C2AEA3",
"=X c #C7B2A7",
"-X c #D4BBAB",
";X c #E4BBA5",
":X c #DAC591",
">X c #FCC980",
",X c #E7D298",
"<X c #F5D290",
"1X c #FEE49C",
"2X c #ECC3AC",
"3X c #EBC9B1",
"4X c #E9CDB7",
"5X c #EBD1BB",
"6X c #F1D3BB",
"7X c #FFEDA4",
"8X c #FFF3AA",
"9X c #9FBBC1",
"0X c #9AB7C0",
"qX c #A4BCC3",
"wX c #BBBEC4",
"eX c #ACC3CB",
"rX c #BAC3C9",
"tX c #B6CDD2",
"yX c #BFD5D8",
"uX c #C5C5CB",
"iX c #C9D7DA",
"pX c #CFD6DA",
"aX c #F4DBC2",
"sX c #DBE4E6",
"dX c #E2EAEB",
"fX c #E5F0F0",
/* pixels */
"                                                + # X X o O +       # + + O O O + + O +   4 O o +                       ",
"                                                * , f f g f f       f f g g M M M g M M   M M g g                       ",
"                                              ; I R / 8.8.8.~ y O d ~ s.5.0.t.:X+X0.t.4.c 4.+X0.` a                     ",
"                                              & P ,.6.y.p.y.%.y . y s.y.g.u.t.:X:Xu.8X+Xc 5.8X<X5.a                     ",
"                                              ; W 6.6.y.d.p.8.& . d 8.f.d.5.V V V ` :X+Xk 4.8X7X5.a                     ",
"                                              ; / 6.6.y.d.d.8.g y A t.g.i._ d o 4 g :X:XV Q.8X8XQ.y                     ",
"                                              ; / 6.6.y.d.g.a.^ ^ 5.d.d.d.s.U % , 5.d.,Xt.:X8X8XQ.i                     ",
"                                              ; ~ 6.6.a.d.f.y.7.a.d.d.d.d.y.s.g ~ 7.<X1Xg.1X8X7XQ.u                     ",
"                                              & T ,.6.y.f.d.p.7.y.g.g.g.g.f.a.8.a.p.1X1X>X1X7X1X5.a                     ",
"                                              ; I ..&.a.a.d.a.s.q.i.i.i.i.i.u.u.u.u.,X,Xu.<X,X:X4.a                     ",
"                                              % , D U ! A 4.! U ! ! _ _ ! _ ! _ ) _ ` ` _ ` ` ' g o                     ",
"                                              a y y & @ y y y & i p ; u p p p p a - s l p a ; l s j                     ",
"                                            c n N N 4 5 v N B B n.b.i j G.G.G.G.m u Y.^.n.v k U. X|.c.                  ",
"                                          o c k.F.C y j k.v.F.J.(.!.l B '.[.[.[.x.l .XpX[.C b wXdXpXm.X                 ",
"                                          @ u m N n 4 5 n N N N b.x.u j v.n.n.v.v u m.^.n.x j U.|.^.M +                 ",
"                                          o @ 4 a y a y a y y y y p - ; p d p p i ; p j j : : j d u - @                 ",
"                                          @ o % * 2 F D D S S S F [ ( ( ( ( ( ( ( ( ( ( M.[ F 2 , X o @                 ",
"                                          @ @ : F J { { { | { { ] <.@X$X#X#X$X$X#X#X#X#X$XXX<.o.H ; # @                 ",
"                                            # & G X.| O.} O.O.@.<.OX;X;X3X;X4X3X3X3X4X4X2X$XoX-.P & +                   ",
"                                              : H | O.} } }  .#.oX$XaXaXaX4X5X5X4X4X4X5X4X;XOX2.P ;                     ",
"                                              ; P } }  . .#.#.=.oX;XW.*XaX;X&X&X&X&X&X$XW.=X;X3.W -                     ",
"                                              & P } } ..#.=.;.>.&X-XC M.3X&X3.e.3.e.3.] M R.;Xr.E ;                     ",
"                                              ; P O.} ..=.;.>.3.oX$X[ ] &Xw.:.:.<.Q =.%.Y M.&Xr.E ;                     ",
"                                              ; P } } #.;.2.2.3.3.1.<.1.w.3.3.>.E f %.1.<.1.3.3.E ;                     ",
"                                              ; G | } #.3.3.3.3.:.:.2.3.e.>.3.e.] U &.3.3.>.:.3.E ;                     ",
"                                              : F L | #.3.3.3.3.3.;.2.e.r.e.>.r.w.q.1.3.3.3.3.3.E ;                     ",
"                                              : 2 K { #.=.=.=.3.3.3.3.e.e.e.e.r.r.r.3.3.3.3.3.>.E -                     ",
"                                              = : < { $.-.$.#.2.3.3.3.3.3.3.:.3.3.3.3.2.3.3.3.3.E ;                     ",
"                                            + + O > T o...O.$.2.;.=.3.3.2.2.3.2.3.3.3.3.2.3.3.3.E ;                     ",
"    o X o o o o o o o o o o o o           + + + # = * P } O.$.2.*.#.=.3.3.3.2.2.3.3.3.3.2.2.3.:.E ;                     ",
"  b C Z C C C C b m C C C b b c           M M M f d = 2 { { o.-.#. .=.3.:.3.3.3.2.2.3.2.3.3.:.:.E ; O                   ",
"# M.wXuXuXuXuXwX}.}.uXuXwX}.P.G.b o     z R.W.E.] ) ; 2 J F Y %.+.+.=.3.3.3.3.2.3.2.2.2.3.3.:.-.W - O o                 ",
"+ m.dXfXdXdXdXsXtXtXsXfXsXeX0XI.b +   . z *X6X;XOX] d 1 G > 1 ..+.+.=.3.;.;.;.3.3.3.2.;.=.;.=.*.T - l M                 ",
"+ m.tXtXeXeXeXeX0X0XeXeXeX0X_.L.v o   . z =XaX4X;XE.d & * : 1 o.O.+.=.;.-.#.#.;.3.3.=.*.#.*.*.+.P ; Y.R.s               ",
"o b.eX0X_._._._._._._._.]._.I.L.v o     z *XaX5X3XXXM > + # 1 { { { -.=.#. .O.=.;.=.*...{ ..#.O.H d W.=Xz .             ",
"+ U.pXqX_.].].).)._.).].].].I.H.v +     z *XaXaX3X#X] h @ # 1 J G Y o.$. .} O.+.#.#.+.R 2 T +.O.H d W.=Xl .             ",
"+ U.sXeX'.0X]._._._._.].]._.I.L.v X     v =XaX-X*XXXXX' > = * G 1 > R } | { { | | } | K > Y | { D d R.*Xl .             ",
"o m.tXqX).`.)._._._._.).`._.I.H.v o     z =X=X` Z ' 9.<.' d : 1 ; > K X.} H F J X.} X.G ; F J D * y R.@Xs       X .     ",
"o c.qX]./.P.!._._._._.I.I._.`.L.v +   O l W.R.u O d ] 9.] f @ = o > G J { , * G J { J F : 2 G > o - M.E.d O   j l z     ",
"o c.9X].)./.`._._._._.`.I._.I.H.v + @ @ ; Z M + . : f h h > o O O % 3 1 < & X 3 < < 1 3 = 3 3 & X : A M ; o i v.~.|.m.o ",
"@ c.9X]._._._._._._._._._._./.H.x o = + - - u u u i i i i p i i i j s j p l l d s s d i i i u u i u u 4 @ o i ~.yXsXY.o ",
"+ c.9X]._._._._._._._._._._./.H.v @ @ = @ x n n k.v.v.b.v.G.J.J.J.U.}.^.U.^. X X X}.~.J.J.G.v.v.v.v.l.x - o j ~.tXiXm.o ",
"o C 9X].)._._._._._._._._._./.H.v o @ o u l.k.k.H./.!.~.(.'.[.[.].{.pXiXqXuXdXsXdXpXwX[.].}.!.!.!.~.F.N - o i J.0X9Xx.@ ",
"@ b.9X]._._._._._._._._._._./.H.v % + o u x n n B c.c.z.c.n.n.v.n.K.^.U.K.~.^.^.^.^.K.n.n.b.x.x.x.x.N x @ + u k.`.'.C = ",
"@ C eX{._._._._._._._._._._./.H.v o - - @ @ - - a a @ a a - a - y ; u u - u u u u u u u - - - u - - - @ @ o 4 l.L.I.B @ ",
"o C 9X{._._._._._._._._._._./.H.v o +   - o   o o o o o o o o o o X X X o o X X X X X o o X o o o o +   +   u x N l.m o ",
"o F.9X]._._._._._._._._._._./.H.x o             @ @ # @ @ @ @ - @ @ - @ @ @ @ @ - @ @ @ @ @ @ @ + @           - a a     ",
"o C 9X]._.].'._._._._.].]._./.H.v o             = # 5 9 8 8 8 8 8 8 8 8 8 8 8 8 8 8 8 8 8 8 8 6 4 -             o o     ",
"o C 9X{._.9X{._._._._.0X0X'.I.L.x +             % 4 0 h.h.B.N.N.N.N.N.N.N.N.N.N.N.N.N.N.N.N.N.q 9 O                     ",
"4 b.9X]._.'._._._._.'.'.'._.`.H.x o             % 4 h.h.C.A.V.A.A.A.Z.S.Z.Z.Z.A.A.Z.Z.Z.A.V.B.N.7 4                     ",
"o C 9X{.`.I.I._._._._.I.I._.`.H.x o             % 4 h.B.C.C.C.C.B.V.S.D.D.D.S.V.Z.D.D.S.V.B.V.C.w @                     ",
"o C {.].I.P.I.`./.`./.I.P.I.I.F.c o             % 5 h.h.w w e e w t r j.N N.t t r j.N N.N.B.V.V.w @                     ",
"o B _.I.L.L.L.P.P.P.L.L.L.P.L.k.c o             o 4 q 0 4 4 4 5 4 4 5 5 5 5 5 5 4 5 u 9 h.h.C.C.e @                     ",
"4 b F.b.B b.b.B C k.l.x.x.l.l.N k               - # 6 6 % o o % % % % % @ o o o % % o # 9 q N.C.e 4                     ",
"  p p p p p k k i k i i i k i u                 + - 4 @                                 # 7 h.B.e @                     ",
"    O o o o o o o o o o o o o o                   @ %                                   + 6 0 h.e @                     ",
"                                                                                          @ 6 q 7 @                     ",
"                                                                                          % @ 7 6 @                     ",
"                                                                                          = @ @ 4                       ",
"                                                                                          @ @ = o                       "
};
