/* XPM */
static char *_4783b0a5a004af6b964a64b0f19dbdauRGWqKDKpQOyLCJy[] = {
/* columns rows colors chars-per-pixel */
"64 64 225 2 ",
"   c None",
".  c #362E4B",
"X  c #3C344D",
"o  c #37334E",
"O  c #353551",
"+  c #3D3750",
"@  c #3E3952",
"#  c #3B3F58",
"$  c #2C2D4E",
"%  c #42344E",
"&  c #47384E",
"*  c #593A4E",
"=  c #433C54",
"-  c #4B3C53",
";  c #483651",
":  c #5B3C51",
">  c #573651",
",  c #633B4E",
"<  c #6B3B4D",
"1  c #7F3C4B",
"2  c #673753",
"3  c #793755",
"4  c #39445C",
"5  c #354B63",
"6  c #365669",
"7  c #3C5D69",
"8  c #375467",
"9  c #2D5971",
"0  c #2C687B",
"q  c #4C4256",
"w  c #45425B",
"e  c #4B445B",
"r  c #4F495C",
"t  c #5A4353",
"y  c #5D4D5B",
"u  c #574958",
"i  c #5C535E",
"p  c #664A55",
"a  c #61545C",
"s  c #6E585A",
"d  c #715D5C",
"f  c #74555B",
"g  c #724650",
"h  c #4B4D64",
"j  c #454962",
"k  c #524E65",
"l  c #4D556C",
"z  c #4F5067",
"x  c #515167",
"c  c #53566C",
"v  c #59586D",
"b  c #555C72",
"n  c #5B5E72",
"m  c #4D5A72",
"M  c #655967",
"N  c #615F73",
"B  c #785C64",
"V  c #586479",
"C  c #786668",
"Z  c #656275",
"A  c #63697C",
"S  c #66687A",
"D  c #706874",
"F  c #823D4D",
"G  c #873854",
"H  c #953755",
"J  c #913E4F",
"K  c #B73B54",
"L  c #A73B52",
"P  c #C63B55",
"I  c #97424B",
"U  c #8F5554",
"Y  c #A6434A",
"T  c #B9464C",
"R  c #B95753",
"E  c #A75651",
"W  c #94645B",
"Q  c #BE655B",
"!  c #BD6057",
"~  c #AD6C59",
"^  c #84666B",
"/  c #977A66",
"(  c #87767C",
")  c #94706F",
"_  c #A77469",
"`  c #B9786E",
"'  c #C5464A",
"]  c #C74A4A",
"[  c #DC4B4A",
"{  c #D7464C",
"}  c #DD534E",
"|  c #CD514F",
" . c #E14B49",
".. c #E2554E",
"X. c #E35C52",
"o. c #E95E53",
"O. c #CB695D",
"+. c #D76C5C",
"@. c #CA7858",
"#. c #CF664E",
"$. c #E66456",
"%. c #EA6B5A",
"&. c #E76657",
"*. c #EE735E",
"=. c #E2705C",
"-. c #F0765E",
";. c #F67A58",
":. c #EF6949",
">. c #E97863",
",. c #F07760",
"<. c #F17961",
"1. c #DB7360",
"2. c #988874",
"3. c #B38767",
"4. c #A6837D",
"5. c #B29577",
"6. c #BBA37D",
"7. c #DC885E",
"8. c #EE8A5B",
"9. c #F48B5A",
"0. c #F4935F",
"q. c #C69E71",
"w. c #CC8E6E",
"e. c #E7856C",
"r. c #F48769",
"t. c #F79669",
"y. c #F3947C",
"u. c #EC9172",
"i. c #CAA374",
"p. c #D9AB75",
"a. c #F6A86D",
"s. c #E7B679",
"d. c #FAB675",
"f. c #F2AF71",
"g. c #FAC57E",
"h. c #F7C37E",
"j. c #2D7C86",
"k. c #277787",
"l. c #286E81",
"z. c #5C6D84",
"x. c #5B7389",
"c. c #6C7585",
"v. c #6A7889",
"b. c #777989",
"n. c #64768B",
"m. c #877D83",
"M. c #2A838D",
"N. c #26828E",
"B. c #39958D",
"V. c #288D93",
"C. c #278791",
"Z. c #2C9797",
"A. c #34898A",
"S. c #33A79C",
"D. c #6D8397",
"F. c #708498",
"G. c #73889B",
"H. c #758796",
"J. c #7D909D",
"K. c #7B93A5",
"L. c #7F99A9",
"P. c #7694A5",
"I. c #968788",
"U. c #898997",
"Y. c #8D8E9A",
"T. c #A9918C",
"R. c #B8A987",
"E. c #BBA197",
"W. c #8399A5",
"Q. c #839DAC",
"!. c #8597A3",
"~. c #9A9AA6",
"^. c #85A0AF",
"/. c #8DA2AD",
"(. c #93A3AD",
"). c #8AA6B3",
"_. c #8CA9B5",
"`. c #88A4B2",
"'. c #93ADB6",
"]. c #91ADB8",
"[. c #91A7B0",
"{. c #95B1BB",
"}. c #9AB4BC",
"|. c #9AB4BB",
" X c #AAB5BD",
".X c #AEB1BA",
"XX c #D19987",
"oX c #EE9B84",
"OX c #EF9F88",
"+X c #F09981",
"@X c #CBB689",
"#X c #CBA494",
"$X c #D1B292",
"%X c #E7B391",
"&X c #CBB4A7",
"*X c #D8B9A7",
"=X c #E9BCA6",
"-X c #FCCA82",
";X c #F9DA96",
":X c #EAD195",
">X c #FEE39C",
",X c #DBC5B3",
"<X c #EAC2AB",
"1X c #EACBB5",
"2X c #EBD2BB",
"3X c #F1CAB2",
"4X c #FDEBA4",
"5X c #FFF5AB",
"6X c #D7C391",
"7X c #9CBAC2",
"8X c #A5BCC2",
"9X c #BABCC3",
"0X c #A9C2C9",
"qX c #B7C6CC",
"wX c #BACDD3",
"eX c #BAD0D6",
"rX c #CAD6D9",
"tX c #CED6D9",
"yX c #EDD9C2",
"uX c #F3DBC3",
"iX c #D8DEE1",
"pX c #DDE5E7",
"aX c #CBE2E3",
"sX c #E5EBEB",
"dX c #F0F7F6",
/* pixels */
"                                                    + O o o o o o       O O o X o X o 4 . X 4     O + O                         ",
"                                                    * t t t i p u       t p y i a a a a a a i   i a i y                         ",
"                                                  , I E ~ 3.3.~ W t $ & U ~ 3.3.5.6.6.5.q.6.2.r 2.6.5.3.u                       ",
"                                                o < ] :.8.f.d.a.@.t o q ~ 0.s.h.p.:X:Xs.s.>XR.j 2.>X;X5.y O                     ",
"                                                o p #.;.9.a.g.d.3.t $ & 3.f.g.p.2.2.2.2.2.4X6.u T.5X5Xi.i O                     ",
"                                                o p @.9.9.a.h.g.q.a o q 3.h.g.q.p q q q C :XR.y 2.5X5X@Xi $                     ",
"                                                o p @.9.9.a.h.g.p.~ W 2.i.g.g.i.W & X t 2.:X6X2.@X5X5X6Xi O                     ",
"                                                o p @.9.9.f.h.h.f.7.7.p.h.h.g.f.7.U t W t.>X>X%X:X5X5X@Xi $                     ",
"                                                o < #.9.9.a.h.-Xf.0.a.g.g.g.g.g.a.3.W 7.d.>X>X-X>X5X>X@Xi .                     ",
"                                                o , ] :.9.a.h.-Xf.0.a.g.g.g.g.g.d.s.p.s.-X4X>X-X;X4X>X6.y .                     ",
"                                                4 * Y ] @.w.q.q.w.@.7.q.q.q.q.q.q.i.i.q.i.@X@Xi.p.6Xi.3.q .                     ",
"                                                X & , g p s d s s p s s d d d d d d d d d C d d d C d y X o                     ",
"                                                q w j w = = j # w w h h w 4 q h i h r w w i k x 4 w r v N v                     ",
"                                              w l V A m # j z.z.A A D.H.i q D.U.J.J.H.z r (.|.U.m e Y..X.XY.q                   ",
"                                              w m D.D.V = m x.D.D.D.L._.V h !.|.|.8X(.n N 9XrX|.A x .XsXpX~.e                   ",
"                                            4 4 h m V l # 5 m V V V D.A z w A D.D.A A h r U.Y.D.x e b.~.~.D w                   ",
"                                            = @ = = = ; ; = - - - - e w = = e e - h h - - h h - q - e r e = =                   ",
"                                            % @ + ; 2 3 G F 1 1 F G g f - ; B ^ ^ C ^ C ^ ^ y % t f 1 < % O @                   ",
"                                            @ @ @ > H K ' ' ' ' ' ' | ` p k m.%X#X#X#X#X#X#X( - ^ ` | Y > + @                   ",
"                                              @ O : K { [ [  . . .} >.XX) m.&X=X=X=X1X=X1X=X#X( ` w.+.T : O @                   ",
"                                                O , T [ [ [ [ [  .X.>.#X&X&X=X1XyXyX2X2XuX3X*X&X&XXX>.R > O                     ",
"                                                O < ' [ [ [ [ } ..$.+X=XyXyXyXyX=X=X=X=X=X=X2XuX1X=X>.R : O                     ",
"                                                O t T  .[ [ X.&.%.%.oX1XyXuXuX=X+X+X+X+X+Xy.%XuXyX=Xy.R u O                     ",
"                                                O , ' [ [ } &.*.,.>.oX=X1X3X3X%X>.%.=.+.%.-.+X=X1X=Xy.O.: O                     ",
"                                                O , ' [ [ +.%.<.<.>.u.oXoXOXOXy.>.Q f g E 1.r.OXOXoXr.Q t O                     ",
"                                                O , T [ [ $.-.-.<.<.<.<.<.<.<.<.<.E : + p O.<.<.<.<.<.Q t O                     ",
"                                                + : K { [ $.<.<.<.,.,.,.<.<.<.r.>.R F & t O.<.;.*.-.<.O.t O                     ",
"                                                + > L P [ &.-.,.,.<.,.,.<.<.r.t.,.$.' 3 p O.<.<.<.<.<.Q : O                     ",
"                                                + ; 3 L [ $.%.&.&.,.<.<.<.<.r.r.,.*.&.W W 1.-.<.<.,.<.O.: O                     ",
"                                                @ = ; G { X.$...X.*.<.<.<.<.<.<.,.r.r.u.e.e.<.,.<.<.<.Q t O                     ",
"                                                O O O 2 Y | X.[ ..*.<.<.,.<.<.,.<.r.r.t.r.r.,.<.,.,.<.O.t O                     ",
"    X X X X X X X X X X X X X X X             X + + + ; , Y [ [ ..*.<.<.,.,.<.>.<.<.r.r.<.;.,.,.,.,.<.Q t O                     ",
"    Z Z Z Z N v N Z S Z v c c c x h         v M M p p ; = H { P | =.*.%.,.,.,.,.-.<.,.,.<.-.<.<.-.,.-.Q * O                     ",
"X b..X9X9X9X.X/.(.9X9X.X(.!.!.J.D.b +     ; ( E.T.T.) f = G K G I +.&.X.%.,.<.<.<.-.,.,.<.<.<.-.<.<.-.R t O o                   ",
"X b.sXdXsXsXaX0XwXsXsXpXqX7X7X7XW.n %     = I.1X=X%XXX) - 3 H > , | X.} &.,.,.,.*.*.-.-.<.-.-.*.*.*.&.R : w i                   ",
"+ m.sXpXwXrXwX7X8XwXeXwX7X7X7X].W.b +     = m.yXyX=X%X) - > 2 ; , | [ [ &.<.%.&.X.*.<.-.*.=.&.$.&.&.X.T * Z I.D                 ",
"O m.iXrX]._.]._._.].'._._.]._.`.G.c +     = I.2XyX1X=Xm.u ; % + < ' { | $.=.&.X.} X.*.-.*.$.} { } +...L * ( ,X( +               ",
"+ c.wX8X_.{.{._._.).)._.{.7X_.L.G.c +     = I.yXuXuX=XXX^ : O O 2 K K I | $.X.[ [ } $.$.X.} R I T  . .T * I.,X( @               ",
"% z.8X7X].}.7X]._._._._.7X7X].L.G.c +     = m.yXuX1X=XXX` B = O 2 L G : I [ [ [ { { [ [ [ [ Y * I [  .L - I.,X( X               ",
"X c.wX0X_._.]._._._._._.].]._.^.G.c +     - I.1X&XT.m.` w._ f - > 3 2 - H { [ ' Y K { { [ { H ; F ' T 1 & ( *X( =               ",
"X b.iXeX_.W.L.`._._._.).L.L.).^.G.c +     = I.,XI.e r ^ w.` _ p @ > ; = G P P T < G K P P P H > G L 3 & ; ( #X^ X     = X =     ",
"% b.tXwX_.L.Q.`._._._.).L.L._.L.G.b +   O = ( T.M o o p _ _ ) t O O O % 3 H K 1 % * H L L H < & 2 G > O X B I.B +     N S D N   ",
"X c.8X8X_.^.^._.)._._._._.)._.^.G.b O + + @ k M w X X - : p u & X X O % ; > * * % ; * , , > ; % ; > & X + q i q + X n !.9X9Xb.X ",
"X S |.7X_._._._._._._._._._._.^.G.c % @ + + = w w r h z z h z c c c c v n N v v N N N M N v c v x x z x x h w 4 = X V '.aXiXb.X ",
"+ A |.7X_._._._._._._.)._._.).^.G.c @ + % + h z.z.x.D.H.H.D.H.!.!.!.!.W..X9X/.[..XrX9X9X9XQ.!.!.J.G.G.H.H.n.V j + X V _.eXqXc.X ",
"X A |.7X_._._._._._._._._._._.^.G.v + + @ = l x.x.n.P.W.W.L.Q.'.|.|.'.|.rXrX X0XtXiXiXiXtX8X{.{.`.W.W.W.^.G.x.l % X c L.7X{.V X ",
"+ S {.7X_.)._._._._._._._._._.^.G.c + + + @ 5 l l b V A A A A c.c.c.c.b.H.U.b.b.I.Y.Y.~.U.b.c.v.c.z.z.S A V l w + + z D._._.A X ",
"O S 7X7X_._._.).)._._._._._._.^.G.c + + ; + @ ; # = q = # = = = - = = w - - w = - - j - = = = = = = = = @ = = = + % h x.P.!.V X ",
"X S |.7X_._._._._.)._.)._._._.Q.G.c @ + @ % + + X X X X X X X X X . X . . . X . . . . . . X X X X X X X X X X X = X j m V z.c % ",
"+ S |.7X_._._._._._._._._._._.Q.G.c @               % = @ = % @ + + & 4 q + & 4 & @ & = % + + @ % @ @ % = X           = w q     ",
"X A }.7X_.].]._._._.).].].7X_.^.G.c +               + # 5 8 6 6 7 8 8 8 8 8 7 6 6 6 8 8 6 6 6 6 8 8 5 4 @ =           X X X     ",
"+ S |.7X].7X8X_._._._._.7X7X_.^.G.c +               @ 4 9 l.j.j.j.j.j.j.j.j.0 M.0 M.M.A.0 M.j.j.j.j.0 9 # %                     ",
"+ S }.7X].].7X_._._._._.].].].^.G.c +               X 5 l.N.V.V.V.V.V.V.Z.Z.Z.Z.Z.Z.Z.Z.Z.Z.Z.V.V.V.j.0 4 %                     ",
"X A |.7X_.^.Q.)._._._._.^.^.).^.G.c @               = 6 j.V.V.V.V.V.V.V.Z.S.S.S.S.Z.Z.Z.S.S.Z.Z.V.V.V.0 4 X                     ",
"X A {.7X^.K.P.^.).).^.^.P.K.^.Q.D.m +               + 6 M.V.V.C.M.j.j.j.B.B.B.B.B.A.0 B.B.B.A.j.j.j.N.0 4 %                     ",
"+ n [.].Q.P.K.W.Q.L.Q.Q.K.P.L.P.D.z +               % 6 M.V.V.k.0 8 8 8 7 7 7 7 7 6 6 7 7 7 7 8 8 6 0 0 # %                     ",
"% b !.K.F.F.F.F.v.G.F.F.F.F.F.n.x.h +               = 6 N.V.j.0 6 4 = @ @ @ @ = @ @ = @ @ = @ + % # 6 9 4 %                     ",
"  c V V b b b b b b b b b b b b l j                 X 6 C.N.k.9 4 o                             % O 4 5 #                       ",
"    = = = = = = w ; = = = = = = =                   + 6 N.k.0 4 @                               @ @ @ #                         ",
"      . X X X X O X O X X X O +                     + 8 l.0 5 #                                   = %                           ",
"                                                    % 5 0 5 #                                                                   ",
"                                                    @ 4 8 4 +                                                                   ",
"                                                    @ # 4 4                                                                     ",
"                                                    = % %                                                                       "
};
