/* XPM */
static char *_27eb16a715c4162abd948e1160017d9uBQhSqZN7kwOycyR[] = {
/* columns rows colors chars-per-pixel */
"64 64 177 2 ",
"   c None",
".  c #655363",
"X  c #6A5766",
"o  c #6D5967",
"O  c #655F6E",
"+  c #6D5C6B",
"@  c #715A67",
"#  c #735C69",
"$  c #7C5E6B",
"%  c #6F606E",
"&  c #72616E",
"*  c #7C626E",
"=  c #656675",
"-  c #6B6473",
";  c #676877",
":  c #686877",
">  c #646C7C",
",  c #6D6C7A",
"<  c #726471",
"1  c #7F6770",
"2  c #736A77",
"3  c #736B78",
"4  c #7A6A77",
"5  c #71717F",
"6  c #825E6D",
"7  c #885F6D",
"8  c #84616E",
"9  c #8B636F",
"0  c #836570",
"q  c #8D6471",
"w  c #866972",
"e  c #8D6B73",
"r  c #936672",
"t  c #996773",
"y  c #956B73",
"u  c #9A6A74",
"i  c #9E6A78",
"p  c #8F7077",
"a  c #907077",
"s  c #917278",
"d  c #9D737A",
"f  c #94787A",
"g  c #9B7A7D",
"h  c #A16C77",
"j  c #A66D79",
"k  c #AA6E7A",
"l  c #B46C77",
"z  c #A4737A",
"x  c #AE717B",
"c  c #A37C7E",
"v  c #AA7C7E",
"b  c #B1727C",
"n  c #BD777D",
"m  c #B37D7F",
"M  c #BE797E",
"N  c #C9727D",
"B  c #C37B7F",
"V  c #5F7384",
"C  c #627484",
"Z  c #6F7280",
"A  c #6F7987",
"S  c #647B8B",
"D  c #6C7C8B",
"F  c #747581",
"G  c #797B86",
"H  c #707A89",
"J  c #777884",
"K  c #A67D81",
"L  c #AC7D82",
"P  c #B47D82",
"I  c #B97E82",
"U  c #CC7F82",
"Y  c #6D828F",
"T  c #71818F",
"R  c #6D8795",
"E  c #728391",
"W  c #7C8C96",
"Q  c #728C99",
"!  c #7A8793",
"~  c #77939F",
"^  c #7A929E",
"/  c #7B96A1",
"(  c #7D98A3",
")  c #7794A0",
"_  c #82959E",
"`  c #A68684",
"'  c #A98284",
"]  c #AB8A86",
"[  c #B28485",
"{  c #BA8285",
"}  c #B58986",
"|  c #B98A86",
" . c #B78788",
".. c #BA8688",
"X. c #B38988",
"o. c #BC8E8B",
"O. c #BC938D",
"+. c #BE998F",
"@. c #B79A94",
"#. c #BE9C92",
"$. c #BEA096",
"%. c #BEA59B",
"&. c #849AA3",
"*. c #BDACA3",
"=. c #CD8183",
"-. c #C28D8B",
";. c #D68586",
":. c #DD8486",
">. c #DD8788",
",. c #C2928F",
"<. c #CD968E",
"1. c #D3938D",
"2. c #D9938D",
"3. c #C49590",
"4. c #C89893",
"5. c #D49990",
"6. c #E48C8B",
"7. c #EA8F8D",
"8. c #E4918D",
"9. c #EA9690",
"0. c #E19C92",
"q. c #E99D94",
"w. c #CCA094",
"e. c #D7A195",
"r. c #DBA195",
"t. c #DCAB9B",
"y. c #DFB39F",
"u. c #EDA599",
"i. c #EBAB9C",
"p. c #E1AD9C",
"a. c #F1A297",
"s. c #F1A79A",
"d. c #F3AC9D",
"f. c #E1B09E",
"g. c #F1B09E",
"h. c #CEB8AA",
"j. c #DFB5A1",
"k. c #E0B5A1",
"l. c #E9B3A0",
"z. c #E4B9A4",
"x. c #EDBEA7",
"c. c #ECBEAC",
"v. c #F5B5A3",
"b. c #F6BBA5",
"n. c #FBBDA6",
"m. c #F8BFA8",
"M. c #DFC1AD",
"N. c #DFC5B1",
"B. c #DFCAB6",
"V. c #DFCFBB",
"C. c #DFD0BC",
"Z. c #EEC1A8",
"A. c #E0C3AF",
"S. c #F7C1A8",
"D. c #FBC3AA",
"F. c #FDCAAF",
"G. c #FCCCAF",
"H. c #FDCCAF",
"J. c #FECCAF",
"K. c #FBCAAE",
"L. c #F7C6B1",
"P. c #FFCEB1",
"I. c #FECDB1",
"U. c #FDCDB0",
"Y. c #FBD0B3",
"T. c #FED2B6",
"R. c #FFD2B5",
"E. c #F7D0B9",
"W. c #FED6B9",
"Q. c #FDD5B8",
"!. c #FFDABD",
"~. c #FFDBC0",
"^. c #FBDFC2",
"/. c #FFDFC1",
"(. c #FEE2C5",
"). c #FEE5C8",
"_. c #FEE8CA",
/* pixels */
"                          # # X X # # # # # # # & & # # & @ o @ @ # & & @ & & @ # # # + # # # o + # #                           ",
"                    X X ] f.5.y e 5.y.k.y.j.N.N.j.B.C.B.y.r.c * -.t.f.y.f.M.B.f.N.V.C.C.N.y.5.e e 5.f.] X X                     ",
"              . . q -.w.z.H.S.g g S.F.U.H.U.Q.R.U.T.!.T.H.F.O.0 f.P.P.K.P.R.Q.P.R.!.W.W.R.F.b.g g D.H.z.4.-.e . X               ",
"            * L @.h.E.Y.U.G.G.g g K.U.L.K.K.K.K.G.K.K.K.G.H.+.w g.R.G.G.K.K.K.H.K.D.F.F.K.K.G.g g G.H.H.U.E.h.@.L *             ",
"          e ] c.!.(.^.Y.G.H.b.f K c.D.U.I.L.E.m.G.G.F.H.F.D.o.0 p.F.U.U.K.R.P.P.U.F.U.U.U.K.b.g f b.F.H.Y.!.(.!.c.' e           ",
"        e O.S.(.T.K.K.S.b.g.q.s y q.v.v.v.v.v.d.b.v.v.b.v.s.m * 2.g.b.g.g.g.S.g.v.n.v.v.b.v.q.y y u.g.b.S.G.K.T.^.K.o.e         ",
"      # <.U.(.U.K.K.S.s.9.7.6.q q U U U U U U U U U U U =.;.i * B U U U U =.U U U U U U U U U q q :.6.8.i.S.K.K.U.(.U.<.*       ",
"      0 t.H.L.K.K.b.u.6.6.N N 9 o # # $ $ $ $ @ # # $ # # @ X # # # @ @ $ @ @ * # # $ # # # # o 9 N ;.:.8.u.b.K.K.U.Y.t.*       ",
"  . e r.S.K.K.K.v.u.6.6.x # $ @ $ q K i l i i j j j j h q $ o + > ; o o 8 i j k k k j j k h r $ o $ $ x 6.6.q.v.K.K.U.m.5.s .   ",
"  . f b.K.K.K.K.u.6.>.u # X X 8 r L l L L l l P l L l L j $ X + V ; o # t x x k x k x b x x k r 8 o X & t ;.6.u.K.K.K.K.S.s .   ",
"o c e.K.G.K.D.v.9.B y # o X X # $ $ $ * 6 6 6 6 $ 6 $ 6 6 # o + > ; o o $ * 8 8 $ 8 6 8 6 $ 8 $ @ o o X # r =.q.l.D.K.K.K.r.c @ ",
"o O.D.K.K.G.m.q.6.M X X $ 8 9 r r q r r 7 7 7 r q 7 r q $ # @ O V ; o o X X X X X X X . X X X X X X X o X o M 7.q.m.U.K.D.D.O.X ",
"o 3.U.G.F.U.b.8.U y @ $ q h x b P I I I I I I I I I I L i $ o + S , o @ 8 9 q s s s s s s f s s a r 9 8 # @ u B 8.S.H.G.G.U.3.o ",
"o O.F.H.F.F.b.8.r X @ r j x b { ,.3.4.3.4.4.4.3.4.4.-.I k 6 X & T , X # h m o.<.4.4.4.4.4.3.4.3.,.| n j r @ X t 8.b.K.U.H.F.+.o ",
"@ v r.f.j.t.1.=.r X # y h h h L  .X.X.X.X.X.X.X.X.X. .P i $ X % Y , o # r v } } X.X.X.' X.X.X.] } [ z h t # o q =.1.t.f.y.r.c X ",
"o & * 1 1 1 * $ @ o @ X @ @ @ * & $ & * & < & $ & $ $ & $ # @ + C ; @ # $ & * # * # * * * # * * * # @ o o o @ # $ * * 1 1 * $ @ ",
"o m i.Z.Z.f.0.;.r X o o X $ h [ O.o.O.O.o.O.o.o.o.o.o.O.o.L 7 % H , $ j  .o.O.o.O.O.O.O.O.O.O.O.[ i $ X o o o y ;.0.f.Z.Z.i.m o ",
"o O.K.G.G.K.b.7.t % V Y S > * ' 4.,.,.4.,.3.3.3.3.3.O.3.3.,.K % S : 0 o.3.3.3.3.,.,.,.3.,.,.,.4.' * > S Y > = t 9.g.K.G.K.K.O.o ",
"o %.(.G.K.G.D.8.y - R ( ~ D % c 4.3.,.,.,.3.,.3.3.3.3.3.,.3.K O D : w ,.3.3.3.,.3.3.,.,.,.,.,.3.' + D ^ ( R - t 8.S.K.G.H./.%.o ",
"o *._.H.K.G.D.8.t % , F 5 2 9 [ 3.,.3.3.3.3.+.3.3.3.3.3.3.3.K + D , w O.3.3.3.,.3.,.4.,.,.4.3.3.' q 2 5 5 , % u 8.D.P.K.H._.*.o ",
"o %.!.K.K.K.b.8.u # 9 y s g I -.3.3.4.3.3.3.3.3.3.3.3.3.3.-.i & W Z 0 { ,.3.4.3.3.3.4.3.3.3.4.3.-.{ g s y 0 @ t 8.b.G.K.H.!.%.o ",
"X $.R.K.K.K.S.8.t # i L ' [ ' ' ] ' ' ' ' ' ' ' ' L ' ' ' i 8 < &.J # t c ' ' ' ' ' ' ' ' ' ' ' ' ' ' ' L i $ t 8.S.G.G.G.R.$.o ",
"X w.(.K.K.G.S.8.u X o o o o o o o o X @ o X o X o o X o X o o < _ J o $ * * * * * * * * * * * 1 * * * * * $ X t 8.S.G.G.H.(.%.o ",
"+ $.H.K.K.K.D.8.u o @ # # # # # # # # # # # # # # # # # # # o < _ F 6 x o.3.,.,.,.,.,.,.,.,.,.,.,.,.3.3.o.x * t 8.S.G.G.G.U.#.o ",
"o +.U.G.G.G.S.8.y @ q h k k j k j k k j k k j k k k k k k t $ & E , 0 o.3.3.3.3.,.3.3.3.3.,.3.,.3.3.3.,.,.O.w r 8.S.H.G.G.U.+.o ",
"o +.H.G.G.H.S.8.t * j b x x k x k x x k x x k x k k k x x k q < _ F 0 3.3.3.3.3.3.,.,.3.3.3.3.,.,.,.3.,.,.,.w t 8.S.U.H.K.K.3.o ",
"X | D.F.U.D.d.7.t $ u k x x x k b b x x b k x x x b b b k j 0 # ! 5 8 P 3.3.3.3.,.4.3.3.3.,.4.3.4.3.3.4.,.m 8 y 6.g.D.U.P.S.| o ",
"X e c ` ` c z d $ @ $ 7 7 0 7 0 7 8 7 7 7 7 0 8 7 8 8 8 7 6 # - T , @ 8 e s s e a a s a s s a a s p s p y 9 @ 8 u z c ` ` c e o ",
"@ e c ` ` c d u 8 @ 8 y s s s s s s s s s s s a s s s s s q $ + D : # 0 e a a a s s p s s s p s p s s s a 9 # * u d c ` ` c e @ ",
"X | n.G.Y.D.d.8.u 8 P ,.4.3.3.3.3.3.3.3.3.3.3.3.3.3.3.3.3...i O V = 7 P 3.4.3.3.4.3.,.4.,.3.3.3.3.3.3.3.,.m 8 y 8.g.D.U.K.n.| @ ",
"@ +.Y.K.K.G.S.8.r w ,.3.3.3.3.3.3.3.3.3.3.3.3.3.3.3.3.,.-. .f + V O 0 X.o.-.3.3.3.,.3.3.3.,.3.3.,.3.,.3.,.,.e r 8.D.G.G.H.R.+.o ",
"X h.).G.K.G.n.8.t w O.3.3.O.3.3.3.3.3.O.3.3.3.O.3.3.3...z 0 & # + o # < i P 3.3.3.3.,.,.3.3.,.3.3.3.3.,.,.O.w t 8.S.G.G.H.(.*.o ",
"X *.).K.K.K.m.8.t 6 L o.3.,.,.,.,.,.O.,.,.,.,.,.3.O.o.x $ _ &._ < G &.&.2 r { -.3.O.3.o.3.,.,.,.o.,.,.o.o.b $ t 8.m.G.K.U.).*.X ",
"o #.R.K.K.U.m.8.i o $ $ 1 6 * * * * 1 * 1 * 1 $ * 8 $ # o H ( _ < F ) &.2 @ * * * * * 1 $ 1 1 1 1 1 $ 1 * # @ u 8.m.K.K.K.Y.#.o ",
"o %.^.K.K.K.m.8.r X o X X X o X o X X X X X o X X X o o o F / _ < Z ) &.2 $ i c ' ' ' ' K ' ' ' ' ' L ' K t # u 8.m.G.K.K.(.%.o ",
"o %.!.K.K.G.m.8.t X + $ q q r q r r r r r r r q r r 0 $ + A / _ < Z ^ &.2 y -.,.3.3.3.3.3.3.3.3.3.4.3.3.3...0 t 8.m.G.K.K.^.w.o ",
"o +.H.F.K.K.m.8.t X @ t L k l l L L l L P k l l x x k r # A / ^ < Z ~ &.2 f 3.,.3.3.3.3.3.3.3.3.3.3.3.3.3.3.w u 8.b.G.K.K.H.+.X ",
"@ #.U.K.K.F.m.8.t X # t k k L k L l j l x k L k x x k r # A / &.< 3 ~ &.2 q -.3.3.3.3.3.3.3.3.3.3.3.3.3.3. .0 r 8.S.G.K.K.G.#.o ",
"X +.F.F.U.F.b.8.t X o 6 t j h h i i i i h h h h h h t 8 + H / _ < Z ~ &.3 7 z [ X.X.X.X.X.X.X.X.X.X.X.X.[ h $ t 8.b.K.G.F.F.+.o ",
"X m i.x.c.l.0.>.r # # & # # 1 # $ $ $ @ # 1 # $ # $ # # o A / _ < Z ~ &.3 X o @ # @ @ + o o # @ + # o o # + X y ;.0.g.x.x.i.[ X ",
"# * * 1 1 1 * * @ 6 z ..o.o.O.o.I o.o.o.o.o.o.o. .o.P i + A / _ < Z ^ &.3 o o o @ @ @ @ @ @ @ o @ @ @ @ o o o # * * * 1 1 * * X ",
"X c r.f.f.t.1.=.q w o.3.3.3.3.3.3.4.3.,.3.3.3.3.3.3.3.L & A / _ < F ^ &.3 # r h h h h h h j h h h h h r 8 o X r =.1.t.f.y.r.v X ",
"X O.F.H.K.K.b.6.t w 3.3.3.3.3.3.3.3.,.3.3.3.3.3.3.3.4.X.# A ( _ < Z ^ &.3 7 j x b k x k k x k b x x x k u # X u 8.v.F.H.H.F.O.o ",
"@ %.!.F.K.G.D.8.r 0 P 3.4.3.3.3.3.4.3.4.3.3.4.3.3.3.-.z # H / &.< Z Q &.3 6 h x b x b b x b b k b x x k y # X u 8.D.H.K.H.!.%.o ",
"X *._.G.K.G.b.8.u # r d s K K K s K K K K K f K g g y 0 + H / &.< Z ^ &.2 o 8 q r q q r q q q r q r q 0 $ X X u 8.S.K.K.H._.*.+ ",
"# %.^.G.K.F.D.8.t o $ w w 0 1 w 1 1 1 0 4 0 0 1 0 w w $ + Z ~ &.< , ^ &.2 # 8 w w w w w w w w w w w w e e w & t 8.b.G.K.G.!.w.X ",
"X w.Y.G.K.G.b.8.u $ j L X.X.o.3.3.3.3.3.3.3.3.3.3.3.-.x $ > D W : ; S W 4 y ..<.3.3.3.,.3.3.,.3.3.-.X.X.X.X.0 t 8.S.G.K.G.Y.$.+ ",
"X *.(.K.K.G.D.8.t + + < + 1 j X.3.3.3.3.3.3.o.3.3.3.3...L 8 o - C ; @ * h { ,.,.3.3.3.3.3.3.3.3...h 1 & & % o t 8.S.G.K.G.(.*.+ ",
"X #.Y.H.K.K.D.8.t % Y ^ ^ Y * c 4.3.3.3.3.3.3.3.3.O.3.3.,.I y + V = 6 P -.,.3.,.3.,.,.3.3.3.,.3.K & H ^ ^ E - t 6.n.F.K.K.U.#.X ",
"o +.H.G.K.K.D.8.t = Y Q R > % c 3.3.3.3.3.O.3.3.3.3.,.3.3.4.K + D , 0 o.3.,.3.,.3.3.3.,.,.,.3.4.K + C R Q S - t 8.D.F.K.K.H.#.@ ",
"o 3.U.H.K.U.S.8.t o = % - < y } 3.3.4.3.3.3.3.3.3.3.3.3.,.I i % E , w ,.3.3.4.4.3.3.3.4.4.3.3.4...t < - - - + t 8.D.F.F.F.H.+.X ",
"o o.D.H.U.D.g.8.u X @ X o # 8 e s s s s a s s s s s s a p q $ % E , $ p s s p p a s a a a s p s e 8 @ X X X X u 8.g.F.U.H.D.O.@ ",
"o s | O.O.} m v 8 @ 6 0 8 0 9 7 7 0 7 7 7 7 6 6 0 7 7 6 $ o X % D : # 7 e s s p a a a a s s p s a s s s a 9 # 8 v L X.+.O.} y X ",
"o 8 s f f f q e $ $ u k b b b x x x x x x x x P P x P k t $ X + S ; 6 P ,.3.3.3.3.4.4.3.3.3.3.3.3.3.3.3.,.P 0 $ q y s f f s 8 # ",
"o | b.K.H.S.s.6.t $ k k x k k x k x x k x x k x k l k k j 6 X % H : 0 3.3.3.3.,.,.3.,.3.3.,.O.3.3.3.3.3.3.,.w r 6.s.b.H.F.n.} o ",
"o +.U.K.G.G.S.8.t # r h k j k k j k k j k k k j j j k h r # o + S ; 0 o.,.3.3.3.3.3.,.3.3.,.3.3.3.3.3.3.3.o.w t 8.S.F.K.F.Y.#.o ",
"X *.(.U.D.U.m.8.t o o @ # # # # # # # # # # # # # # # # @ @ o & D , 7 x o.3.,.,.o.3.3.O.3.,.o.3.3.-.,.,.O.x * t 8.S.G.K.K.(.%.o ",
"o *.).U.U.U.m.8.u X o o o o o o o + o o o o o o o o o o o o o O S : @ # $ * * 1 1 1 1 $ $ 1 1 1 1 1 * * * $ X t 8.S.G.K.G.(.*.% ",
"o $.W.K.U.U.n.9.u $ u K ] ' L ' ' ' ' ' L ' ' ' ' ' ' ' L i 8 + V ; o o X X X X X X X X X X X X X X o o o o X u 8.S.K.G.H.R.$.o ",
"X o.b.U.U.S.d.7.r 0 ..3.3.3.3.3.3.3.4.3.3.3.3.3.3.3.3.4.3.o.d + V ; X o 0 r r r r e r r r r r r r q r r 0 @ X u 6.g.D.P.G.S.o.o ",
"o m a.g.d.u.9.U r 0 { 3.3.4.3.4.3.3.3.4.3.3.3.3.3.4.3.4.3.,.d + V ; o @ t k b b x b b x b x b x b x b k u # X t :.9.s.g.g.u.m o ",
"o i B B n U I l 6 $ i K ' ' ' ' ' L ' ' ' ' ' L ' ' ' ' ' h 8 + > - o # 6 r i t i u u i u i u i t i i r $ # X 8 l n M M M B u @ ",
"# o X X o o o o @ o o o o o o o o o o o + o o o o o o o o o o o o o o o o o o o o o o o o o o o o o X o X @ X @ X @ o o o o o o ",
"X X # X o o o o o o o o o o o o o o o o @ + @ o o o + o o o o o o o o o o o o o o o o o o o o o o o o o # X # X @ X o # X o # X "
};
