/* XPM */
static char *_a56bcb4b7d0474599876c7373c9fa76HLVfuZ7tJZYBEB54[] = {
/* columns rows colors chars-per-pixel */
"64 64 175 2 ",
"   c None",
".  c #655363",
"X  c #6B5765",
"o  c #6E5967",
"O  c #6E5B6A",
"+  c #715967",
"@  c #735B69",
"#  c #7B5D6C",
"$  c #6D616F",
"%  c #72616E",
"&  c #7D636E",
"*  c #676676",
"=  c #6A6473",
"-  c #646C7C",
";  c #6D6D7C",
":  c #746371",
">  c #7F6670",
",  c #716A77",
"<  c #746D7A",
"1  c #73707C",
"2  c #815E6E",
"3  c #885F6D",
"4  c #85616E",
"5  c #8A636F",
"6  c #846370",
"7  c #8C6471",
"8  c #856A73",
"9  c #8C6B73",
"0  c #936573",
"q  c #996773",
"w  c #956B73",
"e  c #9A6A74",
"r  c #9E6B78",
"t  c #8F7077",
"y  c #907077",
"u  c #917378",
"i  c #9B757A",
"p  c #94787A",
"a  c #9B7A7C",
"s  c #A16C77",
"d  c #A56D79",
"f  c #AA6E7A",
"g  c #B46C77",
"h  c #A3747A",
"j  c #AE717B",
"k  c #A47C7E",
"l  c #AA7C7E",
"z  c #B1737D",
"x  c #BD777D",
"c  c #B57D7F",
"v  c #BE797E",
"b  c #C9727D",
"n  c #C37B7F",
"m  c #627181",
"M  c #6D7381",
"N  c #6B7887",
"B  c #677988",
"V  c #6C7B89",
"C  c #727683",
"Z  c #717C89",
"A  c #767A86",
"S  c #A67D81",
"D  c #A97F82",
"F  c #B47D82",
"G  c #B87F82",
"H  c #CC7F82",
"J  c #76828F",
"K  c #7C848E",
"L  c #6B8392",
"P  c #6E8997",
"I  c #748592",
"U  c #768996",
"Y  c #7E8A94",
"T  c #7A8B96",
"R  c #77909D",
"E  c #78919D",
"W  c #7C97A2",
"Q  c #7E9AA4",
"!  c #808E97",
"~  c #808F99",
"^  c #82949D",
"/  c #A68684",
"(  c #AA8284",
")  c #AB8A86",
"_  c #B38485",
"`  c #B98286",
"'  c #B58986",
"]  c #B98A86",
"[  c #BB8688",
"{  c #B48A88",
"}  c #BC8D8B",
"|  c #BC938C",
" . c #BE998F",
".. c #B79A94",
"X. c #BE9C92",
"o. c #BEA096",
"O. c #BEA59B",
"+. c #849CA4",
"@. c #859FA8",
"#. c #BDACA3",
"$. c #CD8183",
"%. c #C28E8B",
"&. c #D68586",
"*. c #DD8486",
"=. c #DD8788",
"-. c #C1928F",
";. c #CD968E",
":. c #D3938D",
">. c #D9938D",
",. c #C49591",
"<. c #C89893",
"1. c #D49990",
"2. c #E48C8B",
"3. c #EA8F8D",
"4. c #E4918D",
"5. c #EA9690",
"6. c #E19C92",
"7. c #E99D94",
"8. c #CCA094",
"9. c #D7A195",
"0. c #DBA195",
"q. c #DCAB9B",
"w. c #DFB39F",
"e. c #EDA599",
"r. c #EBAB9C",
"t. c #E1AD9C",
"y. c #F1A297",
"u. c #F1A79A",
"i. c #F3AC9D",
"p. c #E1B09E",
"a. c #F1B09E",
"s. c #CEB8AA",
"d. c #DFB5A1",
"f. c #E0B5A1",
"g. c #E9B3A0",
"h. c #E4B9A4",
"j. c #EDBEA7",
"k. c #ECBEAC",
"l. c #F5B5A3",
"z. c #F6BBA5",
"x. c #FBBDA6",
"c. c #F8BFA8",
"v. c #DFC1AD",
"b. c #DFC5B1",
"n. c #DFCAB6",
"m. c #DFCFBB",
"M. c #DFD0BC",
"N. c #EEC1A8",
"B. c #E0C3AF",
"V. c #F7C1A8",
"C. c #FBC3AA",
"Z. c #FCCBAF",
"A. c #FECAAF",
"S. c #FCCCAF",
"D. c #FDCCAF",
"F. c #FECCAF",
"G. c #FBCAAE",
"H. c #F7C6B1",
"J. c #FFCEB1",
"K. c #FECDB1",
"L. c #FDCDB0",
"P. c #FBD0B3",
"I. c #FED2B6",
"U. c #FFD2B5",
"Y. c #F7D0B9",
"T. c #FBD4B8",
"R. c #FED6B9",
"E. c #FFD6B8",
"W. c #FFDABD",
"Q. c #FFDBC0",
"!. c #FBDFC2",
"~. c #FFDFC1",
"^. c #FEE2C5",
"/. c #FEE5C8",
"(. c #FEE8CA",
/* pixels */
"                          @ @ o O @ @ @ @ @ @ @ @ @ @ O + % + + + + % + % + % + @ @ @ @ @ O @ + O @ +                           ",
"                    X X ) p.1.9 9 ;.p.d.d.d.n.b.d.m.M.n.w.0.k & %.t.p.p.p.B.m.p.b.M.M.M.b.w.1.9 9 1.p.) X X                     ",
"              X . 7 %.8.h.D.V.a S z.c.Q.L.L.I.J.K.E.W.R.G.G.| > p.D.D.D.D.J.E.D.I.R.R.R.P.G.V.a p V.D.h.8.%.7 . X               ",
"            & D ..s.Y.P.D.D.G.a S H.Y.c.H.Z.Z.G.G.G.G.H.G.J. .8 h.J.D.G.G.G.G.D.G.G.G.G.G.D.G.a a D.D.D.P.Y.s...l &             ",
"          7 ) k.W.^.W.P.D.D.z.p S u.c.H.H.H.H.H.D.D.L.G.G.C.{ 8 t.G.D.G.D.D.D.G.K.K.D.K.K.H.z.i a c.G.G.K.!.^.W.N.) 7           ",
"        9 | V.^.T.G.G.C.c.a.e.w S H l.l.l.l.i.y.l.l.l.z.l.u.c 4 >.i.z.z.z.z.a.z.l.l.l.l.z.l.7.w w 7.a.z.V.G.G.P.!.H.| 7         ",
"      % ;.L.^.L.G.G.V.e.2.2.*.0 S F H H H H H H $.H H H H &.r & n H &.n H $.$.H H H H H H H H 7 w *.2.4.u.V.G.G.L.^.L.;.@       ",
"      6 q.J.H.G.G.c.e.4.*.&.b 5 X @ # X . S 2 + @ @ @ + @ @ o o + + + + + + + @ @ @ # @ # @ @ X 5 b H 2.4.e.c.G.G.H.K.q.8       ",
"  . t 0.V.G.G.G.l.7.2.2.f @ @ + # S 0 F q g q q 3 2 2 X . m M X + o o o o o @ 7 0 0 S d d s 0 # + @ # j 2.2.7.z.G.G.G.V.0.t .   ",
"  . u z.G.G.G.G.e.2.=.e % X + 4 3 F F q g F F F S S 2 X + m m X + o + o o o @ 7 0 r S g F f f q 4 X X % q *.2.e.G.G.G.G.V.p .   ",
"o k 9.G.G.G.C.l.7.H 0 + X X X + + 2 # @ X 3 2 3 . + + + + m m X o o o o o o o # # 2 2 2 # 2 2 # @ + + X + w n 7.l.C.S.G.C.0.k o ",
"o | C.G.G.G.V.7.2.v o X # 4 0 0 3 2 S S 3 3 3 3 2 2 # X X m m o o o o o o o o o . X . . X X X X X X X X X o n 3.7.V.L.H.G.C.| o ",
"o ,.J.G.G.D.V.4.H w + # 5 s j z F F G F F F F q 0 0 2 . o M M o + o o o o o + # 3 3 3 t u S u u y 9 5 4 @ + e n 4.C.D.D.G.D.,.O ",
"o | G.J.D.G.z.3.w X + 0 f j z ` -.<.<.<.H H F S 0 0 3 X @ Z N o o o o o o o @ w f F F %.,.} <.,.;.` z f w + X w 4.a.G.D.D.Z.| o ",
"X k 0.w.f.q.:.$.0 X + w s s s l F F F F F F S 0 0 3 2 . o N M @ o o o o o o # r r r s F { { { { ' _ h s q + X q $.:.q.w.p.0.l o ",
"+ & & & > & & # + o o + + + @ # # 2 M 2 M C # # # + # + @ m m X o o + o o + o @ # # # @ : # % # % # + + + o X + & & > > > & % o ",
"X c r.N.N.p.6.=.q X o O O & s _ } } | | } | | | G F S 3 X C M @ o + o o X # 0 d _ | } | | | } | _ s # o O O o q &.>.a.N.N.r.D + ",
"o  .D.G.G.G.z.4.e , ! I B - & ( <.-.,.,.-.-.,.,.G F S 3 @ m m o o o o o X 3 S d [ ,.,.,.-.-.-.<.D & - B J ^ , e 4.V.G.G.G.G. .X ",
"o O.~.D.G.D.V.4.e 1 @.E P V $ k <.,.,.,.,.,.,.,.%.F F q @ N M o o o X + X 7 f g [ ,.,.,.,.,.-.<.k $ V P E @.< q 4.V.D.G.G.^.8.O ",
"o #.(.D.G.D.V.4.q $ C ; * , 9 _ -.-.-.,.-.-.,.,.G F g q @ Z N o o o + + + 3 F f [ ,.-.,.,.-.-.<._ 7 , ; 1 1 $ q 4.V.D.G.S.(.#.O ",
"X O.W.G.G.D.c.4.q + 5 w i i ` %.<.,.,.,.,.,.,.<.%.F F 0 : Z Z O o o o o o 3 d F [ <.,.,.,.,.<.-.-.` a u w 7 + e 4.V.G.G.S.W.o.O ",
"o o.E.G.G.G.c.4.w # r ( ( ( ( ( ( ( ( ( ( ( ( ( D r 3 2 : ^ Z . o o o o o # 3 0 h ( ( ( ( / ( ( ( ( ( ( S r @ e 4.V.D.G.G.T.o.X ",
"o O.^.G.G.G.c.4.e X o o o o o o o X o o o o X o X O O X O ~ S * o o o o o + + # & & & & > & & & & & & & & # o q 4.V.G.G.G.^.O.O ",
"O  .D.G.G.G.c.4.q o + + @ @ @ + @ @ @ @ + @ @ @ @ @ O O @ ~ Z O o o o o O # q f _ ,.,.| -.-.-.-.| -.-.-.} j & w 4.V.G.G.G.J. .O ",
"O  .J.G.G.S.V.4.w + 0 s f f d f f d d f f d f f s 0 7 3 X V V O o o o o o 7 S F [ ,.-.-.,.,.,.-.-.-.,.-.-.| 8 q 4.V.D.D.G.D.,.O ",
"o ,.J.G.S.D.V.4.e & d j j j f z j j j j j j f z f q 0 7 m S Z @ o o o o o 7 d g [ ,.,.,.,.-.-.-.,.<.-.-.,.| 8 q 4.V.D.D.G.D. .X ",
"X ] V.D.J.C.i.5.q # e f z f j j j j j j f z j z F q 0 7 @ Z C + o @ o o X 2 q F [ <.<.,.<.<.-.<.<.,.<.<.-.G 4 q 2.a.C.P.D.C.] o ",
"+ 9 k / / k h e & + # 3 5 4 4 4 4 5 4 4 4 5 4 6 2 # # @ @ C C + o o o o + + # 2 9 y t t t t y y y t y y 9 4 + 4 e h k / / k 9 o ",
"X 9 k / / k h e 2 + 5 w u u u u u y u u u y y 9 2 3 2 + X M M X @ X + X X @ 2 3 4 7 t t y t t t y y y t 9 5 @ & e i k / / k 9 X ",
"+ ] C.J.J.C.i.2.e 4 c -.<.,.,.,.<.,.,.,.,.,.<.[ F F S 0 @ m m + X + X + + 2 q F j F ,.<.,.,.<.,.<.,.,.<.-.c 4 w 5.a.C.J.D.x.] + ",
"X o.E.G.G.G.V.4.q 8 | -.,.,. .-.-.,.,.,.,.,.,.[ d g r 0 + m m X @ X X + X 2 r F j F -.-.-.,.,.,.,.-.-.,.-.| 8 w 4.V.S.G.S.J.,.o ",
"+ O./.G.G.D.V.4.q 8 | -.-.,.,.,.,.-.-.,.,.,.,.[ d 0 2 @ O O X + X O + + @ + @ 3 s c ,.,.,.,.,.-.,.,.,.-.;.} 8 e 2.V.S.G.D.(.#.o ",
"o #./.G.G.D.c.4.q # F [ | ,.-.-.F F F F G F G H S S Z @.Z S X X O + X O S @.W m q F H F H -.%.-.-.-.-.-.} F # 0 2.c.D.G.D./.#.o ",
"o X.P.G.G.G.c.4.q o @ & > 6 # 2 M S M S S O S 2 . X C W S M X X X + X @ B Q ~ : X 2 S . S M 2 M 2 # 2 M & # X q 2.c.D.D.G.P.<.o ",
"o O.^.G.G.G.c.4.r X o X X X . X X X . X . * . . . . V W Q B X # O O + @ Z W ~ M . 3 S S S D D D D D F D S q % q 4.c.J.H.G.^.O.O ",
"o O.W.G.G.G.V.4.q X O # 7 0 0 7 3 S 3 2 2 S 0 0 2 X V Z Q M X X + X X O V ^ ~ @ 2 S S H F H ..<.,.,.,.,.-.[ 3 q 4.c.H.K.G.W.o.O ",
"o  .D.G.G.G.V.4.e X + 0 f F g f F F g g g r F r 0 X M S @.M X X X O X O V +.~ : 3 F F H ,.,.,.-.,.,.,.,.,.,.8 q 4.c.D.G.G.D. .o ",
"o ,.J.G.G.L.V.4.e X + r j f f F F q q F F g g q 3 # B P Q M X # X O O O Z W ^ : 2 S F F ,.,.,.H ,.,.,.,.,.[ 6 0 4.c.D.G.G.G. .o ",
"o -.G.D.H.D.z.4.w X o 2 0 s s s q F q r S q S S 2 : B Z @.N X @ @ X O @ V W ^ : 2 S S F F ..H F [ { { { D S @ q 4.z.D.D.D.D. .o ",
"o D r.j.V.g.6.&.0 O @ # # % # : # + + 2 # X . # # O V W S M X X X O X @ V W ^ $ X X . O O $ + + O O o @ @ @ . q &.6.p.V.j.r.D o ",
"o % & > > > & & @ # S [ } } } } F H G ..-.G ..F q + M R @.M X @ + @ X o Z W ^ $ X X @ X . + + . + + + o o + X + # & & 8 & & % + ",
"+ l 0.p.p.q.:.H 7 6 [ -.,.,.,.,...H -.<.<.<.O.G S # 2 Z D M X X + X O @ Z W ^ $ 2 7 7 s q q F q s s s 0 4 + X w H :.q.p.w.0.l X ",
"X | G.D.D.D.a.5.0 2 -.-.,.,.,.,.<.O.-.-.<.<.<.G q # B W @.M X @ X X X o Z W ^ $ + S q S g F F q j j j j q @ . e 4.z.G.D.D.D.| + ",
"+ O.W.D.D.D.V.4.S 6 F [ <.,.,.,.<.H <.-.<.<.O.H F M B V @.M X X @ O O @ Z W ^ : 2 0 0 g F q F S z j j j w + X e 4.V.D.G.G.!.8.X ",
"O #.(.D.G.D.V.2.q @ 0 S S S S S S S S S S S S S 3 + M S S m X + X o o O Z W ^ $ + 2 # 3 3 0 2 S 7 0 7 5 # X X e 4.V.G.G.G./.#.O ",
"o O.~.G.G.G.V.4.q X 2 3 # # m S @ # m S M S @ . 2 . M Z W S X X o o o @ N W ^ : + 3 M S S 3 : S 8 8 8 8 9 8 % e 4.V.D.G.G.~.O.O ",
"o X.J.G.D.D.V.4.0 + S F D F H ,.G -.<.-.-.<.G G q 2 m N V B X X @ o + o m Z ~ : q F H -.F -.-.,.,.| } ' ' ' > q 4.V.D.G.G.U.X.O ",
"o #.(.G.C.D.V.4.S X @ @ @ M S G -.-.-.<.-.<.<.G S S 2 X m B m + X o o o X o # 0 S F H -.-.-.-.,.[ s > O $ % O q 4.V.D.G.G./.O.o ",
"o  .J.S.C.D.V.4.e , ^ T I J % k ,.-.,.,.,.-.,.[ S s q 3 X m m + o o o o X # 0 S f F -.,.,.,.,.<.S : Z I U ^ , e 2.V.D.G.G.J. .o ",
"O  .J.G.D.D.V.4.e < +.T L m $ k <.-.,.-.,.,.,.[ F S F q # M M + o o o o X 3 d g f F ,.,.,.-.,.,.S O m L E +.1 e 4.V.D.D.G.D. .o ",
"o  .J.G.D.D.V.4.e $ , , = % w [ } -.-.%.<.{ } F F F S 3 + C C X o o o o X 2 d S j F ,.,.,.,.,.<.[ e = = , , $ q 4.V.D.D.D.J. .O ",
"o } C.J.D.G.a.4.e X X X X + 4 t 2 S S 7 S S S : 3 3 2 # M Z C X o o + + X # # 3 3 7 t y y y y u 9 2 + o X X X r 3.a.C.J.D.C.} o ",
"+ y ] | | ' c j 4 o # 5 5 5 4 4 3 2 3 2 3 2 3 3 X 2 + X + M M X o o o o o @ # 3 9 u y y t y y y y u y u y 7 + 4 j D ] | | ' y + ",
"o 4 u p p p 9 9 # # r f z j z z s F F g F g F r q 3 3 X X M m # o o o o o 2 s f [ <.,.,.,.,.,.,.,.,.,.,.-.F 4 # 9 9 p p p y 4 + ",
"o ] a.D.S.V.r.2.w # d f j j j j F g F g d g F q 0 0 2 X X V M X o @ o o o 7 j f [ ,.,.,.-.,.,.,.,.,.,.,.,.,.8 0 2.u.V.D.G.x.' o ",
"o  .U.D.S.S.V.2.q @ 0 s f d f d r g q s S r s S 3 0 2 . X M m X o o o o o 7 f f [ ,.,.,.,.,.-.,.,.,.,.,.,.} 8 0 2.V.G.G.G.J. .o ",
"o #./.G.G.G.V.4.e o + @ @ @ @ @ O @ @ o @ @ @ @ # + + X + C C X o o @ o o 2 q S [ ,.-.-.-.-.| -.%.,.| ,.} j & w 4.V.G.G.G.(.O.O ",
"o #./.L.G.D.c.4.q X o o o X o o O O O X o o X O X X X X O m M X o o o o o @ + # # # > > # > > > > & > & & # o e 2.V.D.G.G./.#.o ",
"o o.R.G.G.G.V.4.q @ q l ( ( ( ( D D D D D D D D D r 3 2 O m m X o o o o X @ X X X X X X X X X O X X X X X o X e 4.V.D.D.G.E.o.O ",
"o ] V.G.L.C.a.2.e 8 [ -.<.,.<.-.<.<.<.<.<.,.<.<.%.F F 0 @ m m + o o o o O X + 2 2 3 0 7 0 0 0 7 0 7 0 w 5 + X q 4.a.C.D.D.V.] o ",
"o c y.a.i.u.5.*.0 4 [ ,.<.,.<.-.,.,.,.<.,.<.,.<.%.F r 0 @ m m X X X @ X X O # 0 0 r F F j z z j z z z f w + X q *.5.u.a.a.y.c X ",
"o r n v x n v g 4 # e k ( ( ( ( D F D D D D D F D S 3 2 X M = X @ @ X @ @ X + 2 7 7 0 q q w r r e e q 0 4 + X 3 g v n v v n e O ",
"o o o X o o o o o o o o o o o o X O X X O O X X + X + X X X X + X @ O X @ X X X o o o o o o o o o o o o o o o o X o X + X o + o ",
"o o o o o o o o o o o o o o o O X @ O O X O + X + X + + @ X @ X O X X @ X O X @ o o o o o o o o o o o o o + o o o o o O + o o o "
};
