/* XPM */
static char *result[] = {
/* columns rows colors chars-per-pixel */
"48 48 215 2 ",
"   c #3C2D4C",
".  c #362A46",
"X  c #3D344E",
"o  c #3F3750",
"O  c #3F3952",
"+  c #3B3F59",
"@  c #40354E",
"#  c #413C53",
"$  c #433F59",
"%  c #403750",
"&  c #3F4257",
"*  c #3C435A",
"=  c #3D4A5C",
"-  c #37425B",
";  c #3F555D",
":  c #344B64",
">  c #394C62",
",  c #354661",
"<  c #2F546D",
"1  c #3C5563",
"2  c #3C5E6A",
"3  c #385868",
"4  c #315F72",
"5  c #3B626C",
"6  c #3E6A6D",
"7  c #2E6F7E",
"8  c #2C6278",
"9  c #336575",
"0  c #3A6B73",
"q  c #366B77",
"w  c #2E717F",
"e  c #3C7275",
"r  c #3B7478",
"t  c #3B7B7A",
"y  c #3B7D79",
"u  c #414355",
"i  c #44425B",
"p  c #48455C",
"a  c #414B59",
"s  c #4A4F5A",
"d  c #41545C",
"f  c #4B525B",
"g  c #425B5E",
"h  c #464662",
"j  c #474864",
"k  c #4B4C64",
"l  c #4B4E6A",
"z  c #504D62",
"x  c #4E526B",
"c  c #495763",
"v  c #515166",
"b  c #53556A",
"n  c #5C5A6D",
"m  c #525D60",
"M  c #4D5472",
"N  c #515A74",
"B  c #525D7C",
"V  c #505773",
"C  c #615D70",
"Z  c #426563",
"A  c #436A65",
"S  c #426F69",
"D  c #4A6A67",
"F  c #566E68",
"G  c #42746A",
"H  c #43786B",
"J  c #52736A",
"K  c #5A766B",
"L  c #5F796C",
"P  c #56637B",
"I  c #59667B",
"U  c #5E6779",
"Y  c #467A73",
"T  c #626A7E",
"R  c #696678",
"E  c #3F8475",
"W  c #44816E",
"Q  c #438271",
"!  c #448C74",
"~  c #4D8972",
"^  c #459376",
"/  c #43997C",
"(  c #558871",
")  c #699779",
"_  c #719D7B",
"`  c #628471",
"'  c #46A57E",
"]  c #48A87F",
"[  c #71A37E",
"{  c #2D7382",
"}  c #2A7A87",
"|  c #296E81",
" . c #566482",
".. c #5B6B85",
"X. c #5B6E8B",
"o. c #5E728C",
"O. c #5F7490",
"+. c #64778B",
"@. c #647A8F",
"#. c #6D7C8C",
"$. c #687385",
"%. c #747B87",
"&. c #617692",
"*. c #637A93",
"=. c #657E98",
"-. c #626D80",
";. c #817F8E",
":. c #2B838C",
">. c #25808F",
",. c #3A8582",
"<. c #3A8B84",
"1. c #368A87",
"2. c #3B9185",
"3. c #3A958C",
"4. c #3C9C8D",
"5. c #36978A",
"6. c #2A8D92",
"7. c #268792",
"8. c #2D9291",
"9. c #2D9898",
"0. c #3EA48B",
"q. c #37AB8F",
"w. c #3AAC8F",
"e. c #37A18B",
"r. c #3FB08F",
"t. c #35A492",
"y. c #3BAB93",
"u. c #37A596",
"i. c #3DB195",
"p. c #3EBB98",
"a. c #409881",
"s. c #6A8395",
"d. c #6A859A",
"f. c #6D8B9E",
"g. c #678198",
"h. c #738696",
"j. c #7A8A95",
"k. c #748D9D",
"l. c #44AB84",
"z. c #41AB8A",
"x. c #47A883",
"c. c #57AE82",
"v. c #47B585",
"b. c #47BA87",
"n. c #42B48B",
"m. c #45BD8C",
"M. c #48B986",
"N. c #42BD93",
"B. c #45B890",
"V. c #5BB182",
"C. c #67B687",
"Z. c #77BA87",
"A. c #76AD82",
"S. c #718FA1",
"D. c #7592A3",
"F. c #7996A6",
"G. c #7D9BAA",
"H. c #7A98A7",
"J. c #6E8DA0",
"K. c #47C48C",
"L. c #48C38B",
"P. c #4CCC8D",
"I. c #52CC8D",
"U. c #55C08A",
"Y. c #5AD18F",
"T. c #43C292",
"R. c #45C897",
"E. c #5CD393",
"W. c #69D893",
"Q. c #63D792",
"!. c #79DB95",
"~. c #70C88D",
"^. c #7DE298",
"/. c #859098",
"(. c #829EAC",
"). c #869AA5",
"_. c #979BA4",
"`. c #83A1AE",
"'. c #8BA6AE",
"]. c #96A2AA",
"[. c #86A4B1",
"{. c #89A6B2",
"}. c #8CA9B5",
"|. c #8FAEB8",
" X c #91AEB8",
".X c #91AEB7",
"XX c #94B2BB",
"oX c #9AB9BF",
"OX c #9AB7BD",
"+X c #A8B7BA",
"@X c #B4B8BF",
"#X c #A2ABB1",
"$X c #82C78D",
"%X c #8BDC96",
"&X c #88D694",
"*X c #86E79A",
"=X c #9DBBC0",
"-X c #A0BEC2",
";X c #AABFC6",
":X c #A9C6C6",
">X c #ADCAC9",
",X c #A7C3C6",
"<X c #B3C8C9",
"1X c #B6D2CE",
"2X c #B9D5D1",
"3X c #BDD9D3",
"4X c #BFCED2",
"5X c #C7D7D7",
"6X c #D8DDDE",
"7X c #D9E5E4",
"8X c #EBF3F1",
"9X c #E6F7F1",
"0X c #F5FDFA",
"qX c #EBF0EF",
"wX c None",
/* pixels */
"wXwXwXwXwXwXwXwXwXwXwXwXwXwXwXwXwXwXwXwXwXwXwXwXwXwXwXwXwXwXwXwXwXwXwXO o O o wXwXwXwXwXwXwXwXwX",
"wXwXwXwXwXwXwXwXwXwXwXwXwXwXwXwXwXwXwXwXwXwXwXwXwXwXwXwXwXwXwXwXwXwXwXO X # O wXwXwXwXwXwXwXwXwX",
"wXwXwXwXwXwXwXwXwXwXwXwXwXwXwXwXwXwXwXwXwXwXwXwXwXwXwXwXwXwXwXwXwXwXO wXwXwXwX% O wXwXwXwXwXwXwX",
"wXwXwXwXwXwXwXwXwXwXwXwXwXwXwXwXwXwXwXwXwXwXwXwXwXwXwXwXwXwXwXwXwXO o wXwXwXwXO o wXwXwXwXwXwXwX",
"wXwXwXwXwXwXwXwXwXwXwXwXwXwXwXwXwXwXwXwXwXwXwXwXwXwXwXwXwXwXwXwX. O X X wXwXwXwX# wXwXwXwXwXwXwX",
"wXwXwXwXwXwXwXwXwXwXwXwXwXwXwXwXwXwXwXwXwXwXwXwXwXwXwXwXwXwXwXX O O O X o wXwXwXwXwXwXwXwXwXwXwX",
"wXwXwXwXwXwXwXwXwXwXwXwXwXwXwXwXwXwXwXwXwXwXwXwXwXwXwXwXwXwXb n n b v k p wXwXwXwXwXwXwXwXwXwXwX",
"wXwXwXwXwXwXwXwXwXwXwXwXwXwXwXwXwXwXwXwXwXwXwXwXwXwXwXwXwXu %._.].).j.+.I k O wXwXwXwXwXwXwXwXwX",
"wXwXwXwXwXwXwXwXwXwXwXwXwXwXwXwXwXwXwXwXwXwXwXwXwXwXwXwX  p h.+X<X+X'.k.T k o wXwXwXwXwXwXwXwXwX",
"wXwXwXwXwXwXwXwXwXwXwXwXwXwXwXwXwXwXwXwXwXwXwXwXwXwXwXX . # C /./.j.s.T N a X X wXwXwXwXwXwXwXwX",
"wXwXwXwXwXwXwXwXwXwXwXwXwXwXwXwXwXwXwXwXwXwXwXwXwXwX# O # # u z z k k p i + % o O wXwXwXwXwXwXwX",
"wXwXwXwXwXwXwXwXwXwXwXwXwXwXwXwXwXwXwXwXwXwXwXwXwXwXv x b b b v b b v b v k k k h i wXwXwXwXwXwX",
"wXwXwXwXwXwXwXX X X o   o wXwXwXwXwXwXwXwXwXwXwXX p U s.h.h.h.h.h.h.h.s.#.+... .M j O wXwXwXwXwX",
"wXwXwXwXwXwXs f f s f a a wXwXwXwXwXwXwXwXwXwXwXu b h.`..XXX.X}.}.|.}.[.(.F.d.&...M $ + wXwXwXwX",
"wXwXwXwXwXu L ) _ _ ) ! H d X   @ @ X @ o X X a V -.).OX:X>X,X XXX=X=X|.{.G.D.f.&. .M j # wXwXwX",
"wXwXwXwX  u ` $X%X&X~.U./ 5 # % % + # O o o % k o.D. X,X2X2X,X XXX=X=X|.{.[.(.D.d.&. .l $ X wXwX",
"wXwXwXwXX u F [ A.A.C.B.l.E A Z Z A 2 = + $ k I s.`.-X1X3X2X,X|. X=XOX X}.{.`.F.f.g.O.N u X wXwX",
"wXwXwXwX@ # u m m m Y 0.i.l.' ' ' 4.2.0 & k I s.F.}.:X3X2X>X=X}.}. X X}.}.}.[.F.f.d.=.P p X X # ",
"wXwXwXwXwX% @ o $ a 0 5.p.K.P.L.L.p.i.t = v @.D.G. X:X1X>X,XOX}.}.}.}.}.}.}.{.F.f.f.d.I p X o o ",
"wXwXwXwXwXwXX @ > q 2.i.T.K.L.P.L.R.N.E = x *.F.`.}.OX+XoXXX|.}.{.}.{.}.}.}.{.F.f.J.f.I u o o O ",
"wXwXwXwXwXwXwX+ Z 3.B.n.b.m.L.L.L.L.v.H = v @.D.[.}.}.}.}.}.}.}.}.}.}.}.}.}.[.F.f.S.d.I i X o O ",
"wXwXwXwXwXwXwX# S u.z.! ^ z.N.T.L.] W Z & v @.F.[.}.}.{.}.}.}.}.}.}.}.}.}.}.{.F.f.f.f.I p X o o ",
"wXwX# # wXwXwXO S l.a.A 2 <.i.T.v.W ; O O x @.D.[.}.}.}.}.}.}.}.}.}.}.}.}.}.[.F.f.f.d.I i X o O ",
"wXwXR R C wX. O G v.2.j * 0 <.a.^ Z o   o x @.F.`.{.}.}.}.}.}.}.}.}.}.}.}.}.`.F.f.S.d.I i X o o ",
"X n _.@X;.% . # 0 0.<.> o * 1 1 c u X X o b *.D.G.{.}.}.}.}.}.}.}.}.}.}.}.{.(.F.f.f.d.I i X X # ",
"X C @X6X_.C # # 2 2.<.D s s f a = a * + O x &.S.H.`.[.}.}.}.}.}.}.}.}.}.[.`.G.D.f.f.g.P i X % o ",
"  R @XqX5X_.R $ - 5 Y ) _ _ ) ` W E t 2 & l ..=.D.H.`.{.}.}.}.}.}.}.}.[.`.G.D.S.f.g.&.B i X o O ",
". n +XqX0X6X_.z X + K A.%X%X!.U.v.w.4.0 & h B O.g.S.H.`.{.{.{.}.{.}.{.[.G.D.f.f.f.*...x i X o o ",
"X n ].9X0XqX@X$.k # f ) Z.!.^.E.K.0.E 5 & $ l  .&.g.D.H.G.G.G.`.G.(.G.H.F.S.f.d.*...M j # o o # ",
"X b ].5XqXqX4X_.T p # f J c.I.P.b.! 1 + O % $ l  .&.d.D.D.D.D.D.S.D.D.D.J.f.d.*.X.M h + o # O o ",
"X v j.-X3X6X<X).T p + = 6 ' K.P.m.Q 1 & # o O $ M  .&.g.f.f.f.f.f.f.f.f.f.d.=.X.B j O o O o O o ",
"wXwXn %.}.;X_.-.k + = r E r.K.P.m.z.,.2 + o o O * x  .&.g.f.J.f.f.J.f.J.f.=.X.N h $ O X o O wXwX",
"wXwXO k #.).$.p X @ 1 1.u.n.b.b.v.w.4.e * X O # X i M ..*.s.d.s.d.s.s.d.*.X.B j # o % o O o wXwX",
"wXwX. # b T b # X @ = 0 Y Y W W W y r 2 # @ @ X X # h M N P I I P P I P P V l i o o O o O wXwXwX",
"wXwX% # u p u # X X + & = = = a = = = * O o O O O O # $ i p i p p p u p i i # # O O o O wXwXwXwX",
"wXwXo O = g a O + * = > = > : = = : = = > 1 : > > , O o X X X X X X X X O X O X O o O wXwXwXwXwX",
"wXwX@ u G ^ S u + < 8 7 w w w 7 7 7 7 7 w w w w { 9 > o X X X X X X X X X O X # o # wXwXwXwXwXwX",
"wXwX  a Q ' H & , 8 } 7.6.6.6.8.8.8.8.8.8.8.8.8.8.:.5 = O # # a a = a O % O O # o wXwXwXwXwXwXwX",
"wXwXwXa A G g # : | } 7.9.9.t.u.w.w.q.w.q.q.q.q.w.e.<.0 > # g Q ! ! A a o o wXwXwXwXwXwXwXwXwXwX",
"wXwXwXwX& u # + < } 6.6.8.9.i.i.m.m.L.m.L.m.L.L.L.m.i.3.5 a G ' b.v.! d o wXwXwXwXwXwXwXwXwXwXwX",
"wXwXwXwX@ @ * 2 y 5.t.t.t.i.p.K.P.Y.Q.Y.P.I.E.W.W.Q.R.i.E 6 e ^ ^ ^ Q d wXwXwXwXwXwXwXwXwXwXwXwX",
"wXwXwXwX  + 5 <.w.r.m.m.r.K.K.K.P.W.^.W.I.Y.^.*X*X!.E.m.y.2.r c d d d wXwXwXwXwXwXwXwXwXwXwXwXwX",
"wXwXwXwX@ # e y.p.p.b.l.' ' ' ' ] C.~.C.] V.Z.$X$X~.V.l.q.u.{ c & * + wXwXwXwXwXwXwXwXwXwXwXwXwX",
"wXwXwXwX  & Y n.R.p.0.H A A Z 6 D F L J D D K L L K D 6 1.9.:.{ 8 < : * wXwXwXwXwXwXwXwXwXwXwXwX",
"wXwXwXwX@ # G x.B.u.,.1 O % & & # u # # # # u # # # # * 9 } :.} { 8 < * % wXwXwXwXwXwXwXwXwXwXwX",
"wXwXwXwX@ + g H Y r 0 =                 X             O 3 9 q 9 8 < , + o wXwXwXwXwXwXwXwXwXwXwX",
"wXwXwXwXo O u u = = a wXwXwXwXwXwXwXwXwXwXwXwXwXwXwXwXwX+ & = & * & O O o wXwXwXwXwXwXwXwXwXwXwX",
"wXwXwXwXO o o @ X X @ wXwXwXwXwXwXwXwXwXwXwXwXwXwXwXwXwX@ @ X @ o X o O O wXwXwXwXwXwXwXwXwXwXwX"
};
