/* XPM */
static char *result[] = {
/* columns rows colors chars-per-pixel */
"48 48 223 2 ",
"   c #3B2E4C",
".  c #382A47",
"X  c #3D344E",
"o  c #3F3750",
"O  c #3F3952",
"+  c #383D57",
"@  c #40344E",
"#  c #413B54",
"$  c #433E58",
"%  c #403750",
"&  c #3E4156",
"*  c #3C445A",
"=  c #3D4A5D",
"-  c #37455E",
";  c #3F535E",
":  c #334E66",
">  c #3C4C60",
",  c #334863",
"<  c #3D5363",
"1  c #3E5A64",
"2  c #35566A",
"3  c #335B6E",
"4  c #3A5B6A",
"5  c #355267",
"6  c #2C5D75",
"7  c #335D70",
"8  c #3B636D",
"9  c #3E6B6E",
"0  c #3F6567",
"q  c #316476",
"w  c #3A6671",
"e  c #3B6D74",
"r  c #316978",
"t  c #316778",
"y  c #3C7276",
"u  c #3A7C7C",
"i  c #38777A",
"p  c #296279",
"a  c #414456",
"s  c #404857",
"d  c #45425B",
"f  c #49465D",
"g  c #414A59",
"h  c #4A4C5B",
"j  c #4A4B57",
"k  c #42545C",
"l  c #415B5F",
"z  c #4F5B5F",
"x  c #464662",
"c  c #4A4C64",
"v  c #4A4D6B",
"b  c #474864",
"n  c #415D61",
"m  c #4E516A",
"M  c #4C5067",
"N  c #54556B",
"B  c #565868",
"V  c #4E5572",
"C  c #525B75",
"Z  c #515B7A",
"A  c #595E72",
"S  c #504E66",
"D  c #615D70",
"F  c #436563",
"G  c #426C66",
"H  c #456B69",
"J  c #516B66",
"K  c #43766B",
"L  c #437D6D",
"P  c #497C6C",
"I  c #5C7369",
"U  c #567068",
"Y  c #5C6275",
"T  c #55627C",
"R  c #5A677C",
"E  c #5A677C",
"W  c #487C74",
"Q  c #547B71",
"!  c #666878",
"~  c #716D7F",
"^  c #6C707F",
"/  c #3C867D",
"(  c #44836F",
")  c #448270",
"_  c #448B74",
"`  c #4D8972",
"'  c #449277",
"]  c #42937C",
"[  c #459B7B",
"{  c #599276",
"}  c #699477",
"|  c #628672",
" . c #46A57D",
".. c #4CA37E",
"X. c #4EA87F",
"o. c #6BA07C",
"O. c #2D7C86",
"+. c #2A7886",
"@. c #2A6E80",
"#. c #566382",
"$. c #5B6B83",
"%. c #5C6D8B",
"&. c #5E728E",
"*. c #636E81",
"=. c #657284",
"-. c #617489",
";. c #647A8F",
":. c #6C7B8B",
">. c #767685",
",. c #607691",
"<. c #667E95",
"1. c #667E96",
"2. c #2B828B",
"3. c #2C8B8E",
"4. c #25808D",
"5. c #398482",
"6. c #3A8C85",
"7. c #328886",
"8. c #3E9485",
"9. c #3A958C",
"0. c #3B9B89",
"q. c #298B92",
"w. c #268792",
"e. c #2C9394",
"r. c #2E9A96",
"t. c #329D93",
"y. c #3EA58D",
"u. c #39A98F",
"i. c #35A691",
"p. c #3CAD94",
"a. c #38A793",
"s. c #3DB193",
"d. c #3EBA95",
"f. c #3AB598",
"g. c #2EA198",
"h. c #429684",
"j. c #408681",
"k. c #6C8396",
"l. c #6A859A",
"z. c #6E8B9E",
"x. c #678198",
"c. c #718C9D",
"v. c #798796",
"b. c #7A919E",
"n. c #44AB84",
"m. c #41AA8A",
"M. c #47B384",
"N. c #47B986",
"B. c #41B48D",
"V. c #45BD8C",
"C. c #48BF8A",
"Z. c #55BD89",
"A. c #41BC92",
"S. c #48BB9B",
"D. c #58AE82",
"F. c #67B686",
"G. c #78B586",
"H. c #6EA680",
"J. c #718EA1",
"K. c #7593A4",
"L. c #7996A6",
"P. c #7C9AA9",
"I. c #7D99A7",
"U. c #46C28C",
"Y. c #49C48A",
"T. c #4BCA8C",
"R. c #47C88F",
"E. c #51CC8D",
"W. c #59D08F",
"Q. c #44C392",
"!. c #48C896",
"~. c #56CD95",
"^. c #5BD391",
"/. c #78C18B",
"(. c #61D08F",
"). c #63D691",
"_. c #69D893",
"`. c #7ADF97",
"'. c #73D393",
"]. c #68C690",
"[. c #7DE298",
"{. c #71DDA0",
"}. c #78EAA0",
"|. c #868592",
" X c #819EAC",
".X c #879BA3",
"XX c #84A1AE",
"oX c #89A2AF",
"OX c #9DA4AD",
"+X c #86A4B0",
"@X c #89A6B3",
"#X c #8CA9B5",
"$X c #94ADB4",
"%X c #91AFB9",
"&X c #94B3BB",
"*X c #9BB9BF",
"=X c #9FB0B1",
"-X c #ACADB5",
";X c #A5B6B9",
":X c #B7B8BF",
">X c #A3A4AD",
",X c #83C48C",
"<X c #89DB96",
"1X c #82CD90",
"2X c #89E59A",
"3X c #9DBBC0",
"4X c #A1BEC2",
"5X c #BABDC2",
"6X c #A4C2C4",
"7X c #ACC4C6",
"8X c #AFCDCB",
"9X c #B4C8CA",
"0X c #B3D1CD",
"qX c #B9D4D0",
"wX c #BDD9D3",
"eX c #BECFD4",
"rX c #CDD8DB",
"tX c #D8EBE7",
"yX c #E1E9E8",
"uX c #EDF4F2",
"iX c #F5FFFB",
"pX c #E8F2EF",
"aX c None",
/* pixels */
"aXaXaXaXaXaXaXaXaXaXaXaXaXaXaXaXaXaXaXaXaXaXaXaXaXaXaXaXaXaXaXaXaXaXaXO o O % aXaXaXaXaXaXaXaXaX",
"aXaXaXaXaXaXaXaXaXaXaXaXaXaXaXaXaXaXaXaXaXaXaXaXaXaXaXaXaXaXaXaXaXaXaXO O % O aXaXaXaXaXaXaXaXaX",
"aXaXaXaXaXaXaXaXaXaXaXaXaXaXaXaXaXaXaXaXaXaXaXaXaXaXaXaXaXaXaXaXaXaXO aXaXaXaXo O aXaXaXaXaXaXaX",
"aXaXaXaXaXaXaXaXaXaXaXaXaXaXaXaXaXaXaXaXaXaXaXaXaXaXaXaXaXaXaXaXaXo O aXaXaXaXO o aXaXaXaXaXaXaX",
"aXaXaXaXaXaXaXaXaXaXaXaXaXaXaXaXaXaXaXaXaXaXaXaXaXaXaXaXaXaXaXaXX X X X aXaXaXaXO aXaXaXaXaXaXaX",
"aXaXaXaXaXaXaXaXaXaXaXaXaXaXaXaXaXaXaXaXaXaXaXaXaXaXaXaXaXaXaX# # # O O % aXaXaXaXaXaXaXaXaXaXaX",
"aXaXaXaXaXaXaXaXaXaXaXaXaXaXaXaXaXaXaXaXaXaXaXaXaXaXaXaXaXaX! ^ ^ ^ Y C m h aXaXaXaXaXaXaXaXaXaX",
"aXaXaXaXaXaXaXaXaXaXaXaXaXaXaXaXaXaXaXaXaXaXaXaXaXaXaXaXaXf >.=X;X$X.Xk.$.c o aXaXaXaXaXaXaXaXaX",
"aXaXaXaXaXaXaXaXaXaXaXaXaXaXaXaXaXaXaXaXaXaXaXaXaXaXaXaXX a >.=X;X$X.Xk.E c o X aXaXaXaXaXaXaXaX",
"aXaXaXaXaXaXaX    X   X X aXaXaXaXaXaXaXaXaXaXaXaXaXaXX   o S ! ^ ! Y m c a X X X aXaXaXaXaXaXaX",
"aXaXaXaXaXaXa j h h h g g aXaXaXaXaXaXaXaXaXaXaXaXaXf f d f f h c f f f f f a $ $ $ aXaXaXaXaXaX",
"aXaXaXaXaXa I } } } } ` K n aXaXaXaXaXaXaXaXaXaXaXf A E =.=.=.*.*.*.*.*.E R C C v f O aXaXaXaXaX",
"aXaXaXaX  a | 1X2X<X'.E.' l % aXaXaXaXaXaXaXaXaX% c ;..XXXoXXXoXXXXXXXP.L.z.x.,.#.v $ o aXaXaXaX",
"aXaXaXaX  a { '.}.{.].h.K h @   aXaXaXaXaXaXaXd M E b.&X6X6X*X%X&X3X&X%X+XP.K.l.&.Z v d aXaXaXaX",
"aXaXaXaX@ O P Z.~.S.h.H s o o o o % O o O X o b E c.#X6X0XqX6X%X&X3X3X%X+XXXP.K.x.&.#.v $ X aXaX",
"aXaXaXaX@ # F ] 8.6.u 3 n n n n n 1 < = O $ h A k. X*X0XwXwX6X%X%X3X*X%X#X@XP.L.l.1.&.V d X aXaX",
"aXaXaXaXo O s n < 1 F O.6.[  .[ [ 8.6.w & c R ;.K.@X7XwXqX8X3X%X#X%X&X#X#X@XXXP.z.l.x.T a X o O ",
"aXaXaXaXaXo o O O d e 0.f.V.Y.Y.U.A.p.i g S ;.K.P.#X7XqX8X6X&X#X#X#X#X#X#X#XXXP.z.z.l.R f X X O ",
"aXaXaXaXaXaX% o > y 6.s.!.R.T.Y.R.!.A.) g M x.K.XX#X*X6X3X&X%X#X@X#X@X#X#X#X@XK.z.J.l.R a X o o ",
"aXaXaXaXaXaXaXO 8 9.f.N.N.V.U.U.U.U.M.L s M ;.K.XX#X%X#X%X#X#X#X#X#X#X#X#X#X@XP.z.J.l.R f X o O ",
"aXaXaXaXaXaXaXO 9 y.m.] _ m.A.!.C. .( l & m ;.K.XX#X#X@X#X@X#X#X#X#X#X#X#X#X#XK.z.z.l.R g X o o ",
"aXaX# # aXaXaXO H n.[ F 1 6.f.A.M.( g o O B ;.K.XX#X#X#X#X#X#X#X#X#X#X#X#X#X+XI.z.z.l.R s X o o ",
"aXaX>.>.! aX. O 9 m.[ = + w / ] _ n o X o m x.K.XX#X#X#X#X#X#X#X#X#X#X#X#X#X+XK.z.z.z.R d X o O ",
"X A >X:X|.a . O 9 0.8.< o * = k g a o X O m ;.K.P.+X@X#X#X#X#X#X#X#X#X#X#X+XP.K.z.z.l.R d X o O ",
"  D :XyX-X! f # 2 5._ H B B J l k k < * # v -.z.I.P.@X#X#X#X#X#X#X#X#X#X+XXXL.K.z.z.1.T d o o o ",
"X D :XpXrX-X>.f + 1 W H.G.G.o.{ ' 6.5.8 * b %.1.J.I.P.XX@X#X#X#X#X#X#X+XXXL.K.z.l.x.&.C $ o o o ",
". A -XpXiXyX>XB o # J G.<X2X2X(.C.s.9.y * d Z %.x.z.K.XXXX+X#X@X@X@XXXXXI.K.z.z.l.,.#.v $ X o # ",
"X B OXtXiXpXrX>.B # j I } ]._.W.V.[ e < # $ b V %.x.z.L.P.P.P.P.P.P.P.L.K.c.l.x.,.T v x O o O o ",
"  B .XeXtXyXeX X=.f o a F ..T.T.N.) = O O X $ x Z %.x.l.z.J.z.J.z.z.z.z.z.z.l.,.#.v $ O o o O o ",
"  M >..X5XeX;Xv.Y d & 5 i n.T.T.V.] 9 < $ X X $ b Z &.<.l.z.z.z.z.z.z.z.z.l.,.#.V d o o # o o O ",
"aXaXb A |.%Xv.N $ % < 5.y.N.Y.Y.Y.s.9.e * @ o O O b Z &.x.c.z.z.z.z.z.z.x.,.#.v $ O o O o O aXaX",
"aXaX  $ $.:.A $ X % < u 0./ [ [ [ h.6.w a X X O O O c T R &.&.&.-.-.&.-.%.#.V x O o O o O aXaXaX",
"aXaXX O h S f % X % O < 1 n l l ; 1 1 = o X o X X O d f c c M M c c c M c b d # O o o % aXaXaXaX",
"aXaXO O & ; & O O & * * * * * * * * * * * = - = * & O O @ O O X O % % % O % O O O o O aXaXaXaXaX",
"aXaXX a F ( F & + : 6 q q q q q q q q q q q q r q 3 - X @ X X X   X X X X X O @ % o aXaXaXaXaXaX",
"aXaXX g (  .L & , 6 @.4.3.w.3.3.3.3.3.3.3.3.3.3.3.O.4 & O O O a a & a O O o O O O aXaXaXaXaXaXaX",
"aXaXaXg K L F & : @.+.w.q.r.r.g.u.u.i.i.i.u.i.u.u.i.5.8 = O k K ( L F a O X O O aXaXaXaXaXaXaXaX",
"aXaXaXaX* a # O 2 O.w.3.e.t.p.A.V.C.V.V.V.V.V.U.N.d.p.9.8 * G n.N.M._ k % aXaXaXaXaXaXaXaXaXaXaX",
"aXaXaXaXaX@ @ O 2 2.e.t.i.p.S.A.T.W.).W.T.T.W.).).W.!.s./ 8 K ' [ [ ( k @ aXaXaXaXaXaXaXaXaXaXaX",
"aXaXaXaXaXaX@ O 2 O.r.u.V.A.U.U.T._.[._.E.W.`.2X2X`.^.V.y.9.y n k k k aXaXaXaXaXaXaXaXaXaXaXaXaX",
"aXaXaXaXaXaXaXO 4 7.u.A.N.n.n. .X.F./.F.X.D./.,X,XG.Z.V.f.g.i - O o o aXaXaXaXaXaXaXaXaXaXaXaXaX",
"aXaXaXaXaXaXaX$ 0 0.d.d.y.L F n F J U J F H U I I Q h.t.r.e.+.6 , O @ aXaXaXaXaXaXaXaXaXaXaXaXaX",
"aXaXaXaXaXaXaX& G  .U.a.6.4 O X # # # % # # # # # = r 2.3.O.+.p : + % aXaXaXaXaXaXaXaXaXaXaXaXaX",
"aXaXaXaXaXaXaXO 9 y.u./ 8 > aXaXaXaXaXaXaXaXaXaXaX+ 5 3 7 7 2 5 , O % aXaXaXaXaXaXaXaXaXaXaXaXaX",
"aXaXaXaXaXaXaX% w 9.6.1 $ aXaXaXaXaXaXaXaXaXaXaXaXaX+ $ O & + O o o o aXaXaXaXaXaXaXaXaXaXaXaXaX",
"aXaXaXaXaXaXaXO < y e = aXaXaXaXaXaXaXaXaXaXaXaXaXaXaX@ @ @ @ @ o o aXaXaXaXaXaXaXaXaXaXaXaXaXaX",
"aXaXaXaXaXaXaXO $ * = aXaXaXaXaXaXaXaXaXaXaXaXaXaXaXaXaXaXaXaXaXaXaXaXaXaXaXaXaXaXaXaXaXaXaXaXaX",
"aXaXaXaXaXaXaXO o @ X aXaXaXaXaXaXaXaXaXaXaXaXaXaXaXaXaXaXaXaXaXaXaXaXaXaXaXaXaXaXaXaXaXaXaXaXaX"
};
