/* XPM */
static char *result[] = {
/* columns rows colors chars-per-pixel */
"48 48 218 2 ",
"   c #3B2E4C",
".  c #3D334E",
"X  c #3F3750",
"o  c #3F3952",
"O  c #393F59",
"+  c #40344E",
"@  c #413B54",
"#  c #433E58",
"$  c #403450",
"%  c #3E4156",
"&  c #3C445A",
"*  c #3E4B5D",
"=  c #36445E",
"-  c #3F585E",
";  c #3D4E61",
":  c #334B65",
">  c #3C5463",
",  c #3E5964",
"<  c #325169",
"1  c #345A6E",
"2  c #3B5B69",
"3  c #355366",
"4  c #325D70",
"5  c #3B636D",
"6  c #3E696D",
"7  c #366B6D",
"8  c #2A6279",
"9  c #316476",
"0  c #3A6671",
"q  c #3A6C74",
"w  c #306B79",
"e  c #316878",
"r  c #3C7275",
"t  c #3E7D74",
"y  c #3A787B",
"u  c #3C746C",
"i  c #414355",
"p  c #45425B",
"a  c #49465D",
"s  c #424B59",
"d  c #494C5A",
"f  c #4A4B57",
"g  c #41535C",
"h  c #425B5F",
"j  c #4E575E",
"k  c #464662",
"l  c #4A4C64",
"z  c #4B4E6A",
"x  c #474863",
"c  c #415D61",
"v  c #4D526B",
"b  c #4C5067",
"n  c #53546A",
"m  c #565868",
"M  c #4E5572",
"N  c #525B75",
"B  c #515B7A",
"V  c #595E72",
"C  c #574D65",
"Z  c #615D70",
"A  c #446564",
"S  c #426F67",
"D  c #4A6968",
"F  c #556665",
"G  c #556B66",
"H  c #43756A",
"J  c #447C6D",
"K  c #5B7369",
"L  c #5F7A6D",
"P  c #5C6275",
"I  c #55627C",
"U  c #5A677C",
"Y  c #5A677C",
"T  c #487674",
"R  c #607F6E",
"E  c #696C7B",
"W  c #636878",
"Q  c #6C707F",
"!  c #716D7F",
"~  c #3B877F",
"^  c #43826F",
"/  c #448C74",
"(  c #478672",
")  c #459276",
"_  c #42937B",
"`  c #459B7A",
"'  c #4B997A",
"]  c #5A9577",
"[  c #518075",
"{  c #6A9678",
"}  c #4AA47D",
"|  c #6BA07C",
" . c #2A7986",
".. c #307A82",
"X. c #566382",
"o. c #5B6B83",
"O. c #5C6D8B",
"+. c #5E728E",
"@. c #636E81",
"#. c #657284",
"$. c #617489",
"%. c #647A8F",
"&. c #6C7A89",
"*. c #777886",
"=. c #607691",
"-. c #667E95",
";. c #687F95",
":. c #726F80",
">. c #2B848C",
",. c #2C8B8E",
"<. c #25828F",
"1. c #398382",
"2. c #3A8A85",
"3. c #3B8C89",
"4. c #3D9485",
"5. c #39948C",
"6. c #39998A",
"7. c #288A92",
"8. c #2C9394",
"9. c #2C9898",
"0. c #329D92",
"q. c #3A9E91",
"w. c #34A68F",
"e. c #3EA58C",
"r. c #3FAC8F",
"t. c #35A591",
"y. c #3BA391",
"u. c #3BAD94",
"i. c #35A693",
"p. c #3DB294",
"a. c #3BB79A",
"s. c #3EB18D",
"d. c #428982",
"f. c #409A80",
"g. c #6C8396",
"h. c #6A859A",
"j. c #6E8B9E",
"k. c #678198",
"l. c #718C9D",
"z. c #798795",
"x. c #7A919E",
"c. c #45AC82",
"v. c #48A985",
"b. c #47B485",
"n. c #47B986",
"m. c #41B38D",
"M. c #44BC8B",
"N. c #49B885",
"B. c #55B787",
"V. c #41BD93",
"C. c #42B593",
"Z. c #5FBF90",
"A. c #69A881",
"S. c #67B685",
"D. c #79B786",
"F. c #71A980",
"G. c #718EA1",
"H. c #7593A4",
"J. c #7996A6",
"K. c #7C9AA9",
"L. c #7D99A7",
"P. c #46C28C",
"I. c #49C48A",
"U. c #4BCB8D",
"Y. c #47CA8F",
"T. c #53CC8D",
"R. c #55C88D",
"E. c #5CD28F",
"W. c #43C493",
"Q. c #4ECA99",
"!. c #5AD391",
"~. c #61D08F",
"^. c #63D592",
"/. c #6CD996",
"(. c #77DD96",
"). c #6EC78D",
"_. c #7CE298",
"`. c #6AE197",
"'. c #77E9A1",
"]. c #80BE8A",
"[. c #819EAC",
"{. c #879BA3",
"}. c #84A1AE",
"|. c #89A2AF",
" X c #9DA5AD",
".X c #86A4B0",
"XX c #89A6B3",
"oX c #8CA9B5",
"OX c #94ADB4",
"+X c #91AFB9",
"@X c #94B3BB",
"#X c #9BB9BF",
"$X c #9FB0B1",
"%X c #A5B6B9",
"&X c #B5B7BE",
"*X c #A7A7B0",
"=X c #83C58C",
"-X c #86DA95",
";X c #85E69A",
":X c #8BE59A",
">X c #9DBBC0",
",X c #A1BEC2",
"<X c #A4C2C4",
"1X c #ACC4C6",
"2X c #AFCDCB",
"3X c #B4C7C9",
"4X c #B3D1CD",
"5X c #B9D4D0",
"6X c #BDD9D3",
"7X c #BECFD4",
"8X c #C1D2D6",
"9X c #DCDFE0",
"0X c #D8EBE7",
"qX c #E2E9E8",
"wX c #EEF4F2",
"eX c #F5FFFB",
"rX c #E8F2EF",
"tX c None",
/* pixels */
"tXtXtXtXtXtXtXtXtXtXtXtXtXtXtXtXtXtXtXtXtXtXtXtXtXtXtXtXtXtXtXtXtXtXtXo X o . tXtXtXtXtXtXtXtXtX",
"tXtXtXtXtXtXtXtXtXtXtXtXtXtXtXtXtXtXtXtXtXtXtXtXtXtXtXtXtXtXtXtXtXtXtXo o $ @ tXtXtXtXtXtXtXtXtX",
"tXtXtXtXtXtXtXtXtXtXtXtXtXtXtXtXtXtXtXtXtXtXtXtXtXtXtXtXtXtXtXtXtXtXo tXtXtXtXo o tXtXtXtXtXtXtX",
"tXtXtXtXtXtXtXtXtXtXtXtXtXtXtXtXtXtXtXtXtXtXtXtXtXtXtXtXtXtXtXtXtXX o tXtXtXtXo @ tXtXtXtXtXtXtX",
"tXtXtXtXtXtXtXtXtXtXtXtXtXtXtXtXtXtXtXtXtXtXtXtXtXtXtXtXtXtXtXtX. . . . tXtXtXtX. tXtXtXtXtXtXtX",
"tXtXtXtXtXtXtXtXtXtXtXtXtXtXtXtXtXtXtXtXtXtXtXtXtXtXtXtXtXtXtX@ @ O X X @ tXtXtXtXtXtXtXtXtXtXtX",
"tXtXtXtXtXtXtXtXtXtXtXtXtXtXtXtXtXtXtXtXtXtXtXtXtXtXtXtXtXtXW E :.E Y m b d tXtXtXtXtXtXtXtXtXtX",
"tXtXtXtXtXtXtXtXtXtXtXtXtXtXtXtXtXtXtXtXtXtXtXtXtXtXtXtXtXp *.%X%XOX{.g.o.z o tXtXtXtXtXtXtXtXtX",
"tXtXtXtXtXtXtXtXtXtXtXtXtXtXtXtXtXtXtXtXtXtXtXtXtXtXtXtX. i :.$X%XOX{.h.Y l X . tXtXtXtXtXtXtXtX",
"tXtXtXtXtX    . X . tXtXtXtXtXtXtXtXtXtXtXtXtXtXtXtXtX.   X b E E W P m l @ . . . tXtXtXtXtXtXtX",
"tXtXtXtXa d d d d s s tXtXtXtXtXtXtXtXtXtXtXtXtXtXtXa a a a d a a d x p a a p # @ # tXtXtXtXtXtX",
"tXtXtXd R { { { ] ( H * tXtXtXtXtXtXtXtXtXtXtXtXtXa V Y @.#.#.@.@.#.@.@.Y Y P M v k o tXtXtXtXtX",
"tXtX  d { -X:X-X).B./ g X tXtXtXtXtXtXtXtXtXtXtX+ l %.{.|.|.|.}.}.}.}.K.J.j.k.+.X.z # X tXtXtXtX",
"tXtX  d { /.'./.R.' S i . . tXtXtXtXtXtXtXtXtXi b Y x.@X<X<X>X+X+X>X@X+X.XK.H.h.+.B x k tXtXtXtX",
"tXtX. s ( R.Q.C.d.c i o $ o X o X $ @ X o X X x o.l.oX<X4X5X<X+X@X>X>X+XXX}.K.j.k.+.X.z @ X tXtX",
"tXtX. i S _ 4.2.y 2 c c c c c m F F F j @ @ d V ;.[.#X4X6X6X<X+X@X>X#X+XoXXX.XJ.h.k.+.M p . tXtX",
"tXtX. o * h , > 0 1.4.~ ` ` } A.D.=XD.R f d I -.G.XX1X6X6X2X#X+XoX@X+XoXoXoX.XK.j.h.k.I p . X o ",
"tXtX@ @ X o o * r w.V.P.I.I.R./.;X:X(.{ d b %.H.K.OX1X5X2X<X@XoXoXoXoXoXoXoX}.K.j.j.h.U i . X X ",
"tXtXtXtX. o > r 4.C.P.Y.U.U.U.E././.^.] s b k.H.}.oX#X<X#X@X+XoXoXXXXXoXoXoXXXH.j.j.h.U a . X X ",
"tXtXtXtX. i q q.p.P.P.n.n.P.P.P.I.I.N.J s b %.H.}.oXoXoX+X+XoXoXoXoXoXoXoXoXXXK.j.j.h.U i X X o ",
"tXtXtXtX  @ r p.W.I.b.) / v.a.W.P.} ^ h % b %.H.XXoXoXXXXXXXoXoXoXoXoXoXoXoXXXJ.j.j.h.U * . X X ",
"tXtX@ @ $ i J b.Y.P.` c , 2.p.W.b.^ s o i b %.H.}.oXoXoXoXoXoXoXoXoXoXoXoXoX.XJ.j.j.h.U i . X o ",
"tXtX:.! C @ u m.W.W._ * O 0 ~ _ / h o   + n k.H.}.XXoXoXoXXXoXoXoXXXoXoXoXoX.XJ.j.j.j.U a X X X ",
". Z *X&X*.s 7 u.a.p.2.* X & * g * i X . @ b %.H.K.XXXXoXoXoXoXoXoXoXoXoXoXXXK.H.j.G.h.U i . X X ",
"  V &XqX*XE T 3.5.5.1.D m F F h g , > % o z +.j.K.K.}.XXoXoXoXoXoXoXoXoX.XK.K.H.j.j.k.I p . o + ",
". Z &XwX9X&Xz.M 3 2 T F.D.D.| ] ) ~ 1.5 % z o.-.j.K.}..XoXoXoXoXoXoXoXXX}.K.l.j.j.k.+.M i X X o ",
"  m %XrXeXqX Xm X o G F.-X:X-XE.I.r.q.q & k B O.k.j.H.K.}..XoXXXXX.X.X}.K.H.j.j.k.$.X.M @ o @ . ",
"  m  X0XeXwX,Xz.m # f L { ).^.!.I.4.q > @ # x N O.k.j.K.K.K.K.K.K.K.K.H.H.l.j.k.+.X.z p @ $ X o ",
". m {.7XqXqX8X{.#.a X i A } U.U.N.^ * o o o @ x B O.k.h.j.j.j.j.l.l.j.j.j.j.h.=.X.z # o @ . o o ",
". b :.{.3X8X,Xz.P p % 3 t e.U.Y.P._ 6 * @ . X @ x B +.k.h.j.G.j.j.j.j.j.j.h.+.X.M k X X X o o $ ",
"tXtXk V {.OXz.n @ @ > 1.e.M.I.I.M.m.q.q & + o o O x B +.k.j.j.j.j.j.j.j.h.=.X.v p o X o X X tXtX",
"tXtX  @ V ;.Z @ . . > y 4._ ` ' ` f.2.0 % + + $ $ @ z B Y $.$.+.$.#.O.+.O.X.M k X . o X @ tXtXtX",
"tXtX  $ a b a @ . + O s , c c c h c > & @ $ o . + @ # k l l b l z b z l l x p @ o X X o tXtXtXtX",
"tXtXs s % o o O & & & & & & & & & & & & & & & & & & o o . @ X X + o + + X X o o o o o tXtXtXtXtX",
". g J ^ h o O < 4 e w 9 9 9 9 9 9 9 9 9 e e e e w 4 & . . . . . . . . X . X o + X @ tXtXtXtXtXtX",
". g ) c.H % : 8  . .7.,.,.,.,.,.,.,.,.,.,.,.,.,.,...2 % o o o i i i % o o X o o o tXtXtXtXtXtXtX",
"+ g ` n.J % <  .<.7.7.9.9.i.w.w.w.w.w.w.w.w.i.t.i.w.~ 0 & o g H ^ J A * X . o o tXtXtXtXtXtXtXtX",
". g ) c.H & 1  .7.7.9.i.u.p.M.I.M.P.M.P.M.M.M.P.M.M.u.5.2 & H } N.b./ g + tXtXtXtXtXtXtXtXtXtXtX",
"$ s ^ ( h % 1 ,.9.0.t.u.V.P.U.E.^.T.U.T.^.^.^.E.T.P.W.u.1.q H _ ` ` ^ g + tXtXtXtXtXtXtXtXtXtXtX",
"tXtXg g i i 4 >.0.r.M.M.P.P.R./._.^.T.^._.:X:X`.T.I.P.M.m.3.r c g g g tXtXtXtXtXtXtXtXtXtXtXtXtX",
"tXtXtX$ . o 1 y 6.n.I.W.M.c.} S.).| } B.).=X=XD.B.s.M.s.u.0.q @ . + X tXtXtXtXtXtXtXtXtXtXtXtXtX",
"tXtXtXtXtXtX: > t b.W.W.e.t D G K D S G K K R T 6.0.t.t.8...1 O + tXtXtXtXtXtXtXtXtXtXtXtXtXtXtX",
"tXtXtXtXtXtXtXO S c.M.u.2.2 @ + @ @ o @ + + @ ; w ,.>. . .8 : O + tXtXtXtXtXtXtXtXtXtXtXtXtXtXtX",
"tXtXtXtXtXtXtX@ 6 e.e.y 5 * tXtXtXtXtXtXtX+ + o 3 1 1 1 : : & O tXtXtXtXtXtXtXtXtXtXtXtXtXtXtXtX",
"tXtXtXtXtXtXtXo 5 5.3., @ tXtXtXtXtXtXtXtXtX@ @ O o % O O @ o tXtXtXtXtXtXtXtXtXtXtXtXtXtXtXtXtX",
"tXtXtXtXtXtXtXo > r q * tXtXtXtXtXtXtXtXtXtXtX$ + + + + + + tXtXtXtXtXtXtXtXtXtXtXtXtXtXtXtXtXtX",
"tXtXtXtXtXtXtX@ O s * tXtXtXtXtXtXtXtXtXtXtXtXtXtXtXtXtXtXtXtXtXtXtXtXtXtXtXtXtXtXtXtXtXtXtXtXtX",
"tXtXtXtXtXtXtXX X $ $ tXtXtXtXtXtXtXtXtXtXtXtXtXtXtXtXtXtXtXtXtXtXtXtXtXtXtXtXtXtXtXtXtXtXtXtXtX"
};
