/* XPM */
static char *result[] = {
/* columns rows colors chars-per-pixel */
"48 48 211 2 ",
"   c #3B2D4C",
".  c #382C48",
"X  c #37304A",
"o  c #3E344E",
"O  c #3F3750",
"+  c #3F3952",
"@  c #3B3F58",
"#  c #40344E",
"$  c #413B54",
"%  c #433E59",
"&  c #413651",
"*  c #402E4B",
"=  c #3D4255",
"-  c #3C455B",
";  c #3D4A5D",
":  c #33415D",
">  c #3E525E",
",  c #3F595D",
"<  c #344B64",
"1  c #394A61",
"2  c #2F516B",
"3  c #3C5564",
"4  c #345B6D",
"5  c #3B5B6A",
"6  c #3A5866",
"7  c #2E5E73",
"8  c #3C626D",
"9  c #2A657B",
"0  c #316476",
"q  c #326977",
"w  c #3A6E74",
"e  c #316A79",
"r  c #356775",
"t  c #3C7375",
"y  c #3A7A7C",
"u  c #35747D",
"i  c #414255",
"p  c #404857",
"a  c #46445C",
"s  c #49455D",
"d  c #424B5A",
"f  c #4B4C5C",
"g  c #41545D",
"h  c #415A5E",
"j  c #4C565E",
"k  c #525B5E",
"l  c #464561",
"z  c #4B4C65",
"x  c #494B68",
"c  c #415B62",
"v  c #4D526C",
"b  c #51566C",
"n  c #5D596D",
"m  c #545766",
"M  c #4E5573",
"N  c #535B74",
"B  c #525D7A",
"V  c #5B5F73",
"C  c #504D62",
"Z  c #436462",
"A  c #436B65",
"S  c #4A6866",
"D  c #556B66",
"F  c #546665",
"G  c #42736A",
"H  c #437B6C",
"J  c #4F776B",
"K  c #59746B",
"L  c #5A6579",
"P  c #447A78",
"I  c #636677",
"U  c #626A7D",
"Y  c #6A6E7D",
"T  c #6A717F",
"R  c #3A857C",
"E  c #3F8F7C",
"W  c #3E927D",
"Q  c #44836F",
"!  c #438B74",
"~  c #438274",
"^  c #598879",
"/  c #459576",
"(  c #449B7B",
")  c #479879",
"_  c #628371",
"`  c #668C74",
"'  c #6F9F7C",
"]  c #46A37C",
"[  c #49A77F",
"{  c #64A27C",
"}  c #2B7B87",
"|  c #307882",
" . c #566482",
".. c #5C6C83",
"X. c #5B6D8A",
"o. c #586786",
"O. c #5E718B",
"+. c #636E82",
"@. c #657184",
"#. c #61758A",
"$. c #6D7D8D",
"%. c #67778A",
"&. c #717C88",
"*. c #617692",
"=. c #647C94",
"-. c #667F98",
";. c #746D80",
":. c #2B848C",
">. c #2C8B8E",
",. c #3B8A82",
"<. c #398E8A",
"1. c #358584",
"2. c #36938C",
"3. c #3B9888",
"4. c #2A8D92",
"5. c #268590",
"6. c #2E9A95",
"7. c #2D9898",
"8. c #329D94",
"9. c #389B92",
"0. c #3DA38C",
"q. c #36A78F",
"w. c #35A691",
"e. c #39A292",
"r. c #37A890",
"t. c #3CAC94",
"y. c #38AC98",
"u. c #3DB493",
"i. c #3CBA9C",
"p. c #3FBB96",
"a. c #449584",
"s. c #7A848C",
"d. c #6A859B",
"f. c #6E8B9E",
"g. c #678198",
"h. c #708C9E",
"j. c #7B929F",
"k. c #44AC83",
"l. c #42A786",
"z. c #59AB81",
"x. c #46B284",
"c. c #47BA87",
"v. c #42B68D",
"b. c #45BD8B",
"n. c #48BE88",
"m. c #4AB885",
"M. c #41BB92",
"N. c #46B99A",
"B. c #76AE83",
"V. c #66B786",
"C. c #75BC89",
"Z. c #7BB887",
"A. c #64AA89",
"S. c #718EA0",
"D. c #7593A3",
"F. c #7996A5",
"G. c #7B98A7",
"H. c #7D9BAA",
"J. c #46C38C",
"K. c #49C58A",
"L. c #4BCB8D",
"P. c #54CD8E",
"I. c #56C48D",
"U. c #43C493",
"Y. c #5DD392",
"T. c #5BD692",
"R. c #59D18F",
"E. c #7BC58C",
"W. c #63D592",
"Q. c #6BD794",
"!. c #73DD95",
"~. c #7BE198",
"^. c #898F99",
"/. c #80BB88",
"(. c #819EAC",
"). c #8698A3",
"_. c #A19DA8",
"`. c #85A1AE",
"'. c #8AA4AE",
"]. c #86A3B0",
"[. c #89A6B3",
"{. c #8CA9B5",
"}. c #90AEB9",
"|. c #97ABB4",
" X c #95B3BB",
".X c #99B7BE",
"XX c #9BB8BF",
"oX c #90A8AD",
"OX c #A4B8B9",
"+X c #ACB2BA",
"@X c #A7A9B2",
"#X c #81C58C",
"$X c #86D091",
"%X c #84E298",
"&X c #8BE499",
"*X c #9EBDC0",
"=X c #A1BDC2",
"-X c #B7BBC0",
";X c #A4C2C5",
":X c #ADCAC9",
">X c #ACC7C7",
",X c #B4C6CB",
"<X c #B5D2CE",
"1X c #BAD4D1",
"2X c #BDD9D3",
"3X c #D7D8DB",
"4X c #DCE8E6",
"5X c #ECF3F1",
"6X c #F5FFFB",
"7X c #E5EDEC",
"8X c None",
/* pixels */
"8X8X8X8X8X8X8X8X8X8X8X8X8X8X8X8X8X8X8X8X8X8X8X8X8X8X8X8X8X8X8X8X8X8X8X+ + $ & + 8X8X8X8X8X8X8X8X",
"8X8X8X8X8X8X8X8X8X8X8X8X8X8X8X8X8X8X8X8X8X8X8X8X8X8X8X8X8X8X8X8X8X8X8X+ O O + + 8X8X8X8X8X8X8X8X",
"8X8X8X8X8X8X8X8X8X8X8X8X8X8X8X8X8X8X8X8X8X8X8X8X8X8X8X8X8X8X8X8X8X8XO O 8X8X8X+ + 8X8X8X8X8X8X8X",
"8X8X8X8X8X8X8X8X8X8X8X8X8X8X8X8X8X8X8X8X8X8X8X8X8X8X8X8X8X8X8X8X8X+ O O 8X8X8X8XO + 8X8X8X8X8X8X",
"8X8X8X8X8X8X8X8X8X8X8X8X8X8X8X8X8X8X8X8X8X8X8X8X8X8X8X8X8X8X8X8X. o o o 8X8X8X8X8X8X8X8X8X8X8X8X",
"8X8X8X8X8X8X8X8X8X8X8X8X8X8X8X8X8X8X8X8X8X8X8X8X8X8X8X8X8X8X8X$ $ $ & $ $ 8X8X8X8X8X8X8X8X8X8X8X",
"8X8X8X8X8X8X8X8X8X8X8X8X8X8X8X8X8X8X8X8X8X8X8X8X8X8X8X8X8X8X8XI T Y I L b z 8X8X8X8X8X8X8X8X8X8X",
"8X8X8X8X8X8X8X8X8X8X8X8X8X8X8X8X8X8X8X8X8X8X8X8X8X8X8X8X8X8Xz ^.OXOXoXD.%.N i 8X8X8X8X8X8X8X8X8X",
"8X8X8X8X8X8X8X8X8X8X8X8X8X8X8X8X8X8X8X8X8X8X8X8X8X8X8X8X8XX f ^.OXOXoXj.#.b % X 8X8X8X8X8X8X8X8X",
"8X8X8X8X8X8X8X8X8X8X8X8X8X8X8X8X8X8X8X8X8X8X8X8X8X8X8X8Xo X & m Y Y I n v a + o O 8X8X8X8X8X8X8X",
"8X8X8X8X8X8X8X8X8X8X8X8X8X8X8X8X8X8X8X8X8X8X8X8X8X8X8Xa s s a s C s l s a a a % % % 8X8X8X8X8X8X",
"8X8X8X8X8X.       8X8X8X8X8X8X8X8X8X8X8X8X8X8X8X8X8Xs L +.@.@.+.+.+.+.+.U L L N M l $ 8X8X8X8X8X",
"8X8X8X8Xi i i i % + 8X8X8X8X8X8X8X8X8X8X8X8X8X8X8X$ z $.H.`.'.'.`.].(.(.G.D.d.*.o.M % + 8X8X8X8X",
"8X8X8Xf K _ _ _ J G 6 8X8X8X8X8X8X8X8X8X8X8X8X8Xa z L j. X;X=X.X}..X*X}.[.(.F.f.*. .v l % 8X8X8X",
"8X8Xo j ' $X$X#XV.[ G + # & & o & & + + O O o o f ..f.{.;X<X<X=X}..X=X.X{.].H.D.f.*. .M i O 8X8X",
"8X8Xo f ` #X/.C.I.b.! c h Z S F F F S c ; @ % f N =.`.=X<X2X<X=X{..X*X.X{.[.].F.f.d.O.B a o 8X8X",
"8X8XO i m D D D a.t.l.( ( ( { Z./.Z.A.a.w ; a L =.h.{.:X2X2X:X.X{.}. X}.{.{.[.H.S.f.g. .f O O + ",
"8X8XO O O & % c ,.u.M.J.K.K.T.%X&X&XQ.N.R ; z O.D.H.{.:X<X:X*X X{.[.{.{.{.{.{.H.S.f.f.O.a o O O ",
"8X8X8XO o + 5 | 3.M.J.K.L.L.R.W.Q.Q.Y.U.W > z %.F.`.{.XX;XXX X}.{.{.[.{.{.{.{.H.h.f.f...a + O O ",
"8X8X8X8Xo ; y t.M.K.J.J.J.c.c.K.J.K.K.M./ > z #.D.`.{.{.{.{.{.{.{.{.{.{.{.{.{.H.h.f.f...d O O + ",
"8X8X8X8X* = R M.U.K.K.K.] ! ( u.U.U.x.! A = z #.D.`.{.{.{.{.{.{.{.{.{.{.{.{.{.H.h.h.f.O.d O O O ",
"8X8X8X8X& C ! c.K.J.K.m.Q g w e.M.n./ h = O z #.D.`.{.{.{.{.{.{.{.{.{.{.{.{.{.H.h.h.f...f O O O ",
"8X8X8X8XY ` ^ / 0.b.U.u.G @ 1 y ,.! A %   o C #.D.H.{.{.{.{.{.{.{.{.{.{.{.{.{.H.h.f.f...f O O + ",
"8X8XX n @X+Xs.8 R y.i.t.t $ @ ; 3 g p $ # o z #.F.H.`.'.{.{.{.{.{.{.{.{.{.[.`.G.h.S.f...a o O + ",
"8X8XX n -X4X_.I ..2.6.<.P S k k j z g 1 - % l #.S.F.H.[.{.{.{.{.{.{.{.{.{.`.H.D.f.f.d...a O o O ",
"8X8X  n -X5X3X@X$.c 6 8 ^ ' /.' { ) / ,.w - l o.g.f.F.H.[.[.{.{.{.{.{.[.].H.D.h.f.d.*.B a O & $ ",
"8X8XX n +X5X6X4X^.C o s ` #X&X&XQ.K.v.0.y ; a M X.=.f.F.H.].[.[.[.[.[.`.H.D.f.f.f.*.o.M i O O O ",
"8X8XX n @X4X6X7X+X@.C $ k ` V.Q.W.L.k.y 5 = $ l M X.g.S.F.F.H.H.G.H.G.F.D.D.f.d.=.o.v l $ + $ o ",
"8X8XX m ).1X4X4X,X).L % + d Q c.L.K.( 3 % O + $ l B X.-.S.f.S.f.f.f.f.h.f.f.f.=.X.M a + $ O + + ",
"8X8X  s T '.>X3X|.$.b % - 8 / c.L.L.k.t 3 @ # o @ x B O.g.f.f.f.f.f.f.f.f.d.=.X.M l + O o + o $ ",
"8X8X# $ a V j.oX&.z $ % r 2.u.n.K.K.v.9.y ; # O O % x B *.g.f.f.f.f.f.f.f.=.O.B l + + O O O 8X8X",
"8X8Xh g @ % +.$.b #   $ 8 ,.a.( ( ] ( ,.t - # o O o = x B ..O.O.O.#.#.#.O.o.M x $ O + + $ 8X8X8X",
"# g ! ! , $ f z a # o + - 3 3 h h h c 3 ; $ o o + o $ % l z z z z z z z z z a % + o o + 8X8X8X8X",
"& g ) k.8 O O @ - - - - - - - - - : - - - ; - - - - = + o # + + $ o $ $ O $ + + + + $ + 8X8X8X8X",
"# h ] x.A @ @ 2 0 q q 0 q 0 q 0 0 0 0 0 0 q 0 e e e 7 = # o # o o o o o o o O # + o 8X8X8X8X8X8X",
"# g / [ 6 @ 2 | } :.>.>.>.>.>.>.>.>.>.>.>.>.>.>.>.>.} 5 = + # @ i i $ @ + + + + O $ 8X8X8X8X8X8X",
"# g G G g = 7 } 5.4.7.7.e.q.q.q.w.w.w.w.w.w.q.q.t.w.3.R 8 ; i Z H Q H , + o + O $ 8X8X8X8X8X8X8X",
"8X8Xp i $ = e 5.5.4.7.y.u.u.J.c.n.n.b.n.b.n.J.b.b.n.v.t.<.5 p H [ m.[ G i o 8X8X8X8X8X8X8X8X8X8X",
"8X8X8Xo # - e 4.6.8.r.i.U.K.P.W.R.L.P.W.R.L.K.K.K.K.J.i.9.8 i G / ( / A i 8X8X8X8X8X8X8X8X8X8X8X",
"8X8X8X8X# = e 4.q.v.b.J.J.L.W.~.Q.P.R.~.!.P.K.J.K.K.J.i.9.5 + p , , g g 8X8X8X8X8X8X8X8X8X8X8X8X",
"8X8X8X8X& = 0 } 0.K.[ [ [ [ { E.V.[ z.C.C.[ k.b.M.b.u.y.2.5 O O O O O 8X8X8X8X8X8X8X8X8X8X8X8X8X",
"8X8X8X8X8X8X; 8 / m./ A Z A J J D A S K D S H 0.u.w.8.8.4.6 $ # 8X8X8X8X8X8X8X8X8X8X8X8X8X8X8X8X",
"8X8X8X8X8X8X& i ! x.Q ; @ $ O + $ + $ $ $ & 3 <.8.4.:.:.| 1 + 8X8X8X8X8X8X8X8X8X8X8X8X8X8X8X8X8X",
"8X8X8X8X8X8X# i R t.<.0 - o # X 8X8X8X8X  # ; | :.e 4 4 4 1 8X8X8X8X8X8X8X8X8X8X8X8X8X8X8X8X8X8X",
"8X8X8X8X8X8Xo - y e.8.:.4 + o 8X8X8X8X8X8X& - 9 7 1 + @ + 8X8X8X8X8X8X8X8X8X8X8X8X8X8X8X8X8X8X8X",
"8X8X8X8X8X8X8X= 8 t u e 6 @ 8X8X8X8X8X8X8X8X: < < @ # # 8X8X8X8X8X8X8X8X8X8X8X8X8X8X8X8X8X8X8X8X",
"8X8X8X8X8X8X8X8X; ; ; - - 8X8X8X8X8X8X8X8X8X8X@ + + & 8X8X8X8X8X8X8X8X8X8X8X8X8X8X8X8X8X8X8X8X8X",
"8X8X8X8X8X8X8X8X# O # # 8X8X8X8X8X8X8X8X8X8X8XO + & $ 8X8X8X8X8X8X8X8X8X8X8X8X8X8X8X8X8X8X8X8X8X"
};
