/* XPM */
static char *result[] = {
/* columns rows colors chars-per-pixel */
"48 48 220 2 ",
"   c #3C2F4C",
".  c #372E49",
"X  c #3D344E",
"o  c #3F3750",
"O  c #3F3952",
"+  c #3A3F58",
"@  c #40344E",
"#  c #413B53",
"$  c #423E58",
"%  c #403750",
"&  c #3E4156",
"*  c #3C455B",
"=  c #3D4A5D",
"-  c #33435F",
";  c #3F535E",
":  c #354B63",
">  c #394A60",
",  c #2E536C",
"<  c #3C5463",
"1  c #3E5963",
"2  c #355B6D",
"3  c #3C5C69",
"4  c #355665",
"5  c #2B5F75",
"6  c #3B646E",
"7  c #3F6F6B",
"8  c #316475",
"9  c #3A6B73",
"0  c #316B7A",
"q  c #336776",
"w  c #39757A",
"e  c #3A7C7C",
"r  c #3B7776",
"t  c #2F6B7A",
"y  c #404456",
"u  c #45435C",
"i  c #49465E",
"p  c #414B59",
"a  c #494B5B",
"s  c #404957",
"d  c #41545D",
"f  c #425B5F",
"g  c #4C585E",
"h  c #545E5F",
"j  c #51445E",
"k  c #464662",
"l  c #4B4C64",
"z  c #4A4D6B",
"x  c #484863",
"c  c #415C62",
"v  c #4D516B",
"b  c #4D5C60",
"n  c #535469",
"m  c #555866",
"M  c #4E5573",
"N  c #525B74",
"B  c #5A5E72",
"V  c #525C7A",
"C  c #504F66",
"Z  c #635F72",
"A  c #426463",
"S  c #426B66",
"D  c #496567",
"F  c #536565",
"G  c #526A66",
"H  c #437369",
"J  c #437D6D",
"K  c #5A7169",
"L  c #55627D",
"P  c #59667D",
"I  c #5D6679",
"U  c #447878",
"Y  c #646275",
"T  c #636A7B",
"R  c #6B6D7D",
"E  c #6F667A",
"W  c #6C717F",
"Q  c #3D887B",
"!  c #3F957D",
"~  c #44826F",
"^  c #448A73",
"/  c #468671",
"(  c #568B77",
")  c #459176",
"_  c #459C7A",
"`  c #489879",
"'  c #658973",
"]  c #6B9678",
"[  c #46A57E",
"{  c #4BA87F",
"}  c #62A17C",
"|  c #297886",
" . c #2C7381",
".. c #566584",
"X. c #596783",
"o. c #5C6B82",
"O. c #5B6C8A",
"+. c #5E718B",
"@. c #5F7490",
"#. c #636E82",
"$. c #686F83",
"%. c #657184",
"&. c #61748A",
"*. c #64798E",
"=. c #6B7888",
"-. c #647B94",
";. c #627994",
":. c #757283",
">. c #2A868E",
",. c #2C8B8E",
"<. c #3B8B84",
"1. c #378886",
"2. c #38948C",
"3. c #399889",
"4. c #2A8D92",
"5. c #268591",
"6. c #2D9895",
"7. c #339B94",
"8. c #349591",
"9. c #35A58F",
"0. c #3DA78C",
"q. c #3FB28F",
"w. c #35A691",
"e. c #3AA492",
"r. c #3AAA92",
"t. c #37AA95",
"y. c #3DB494",
"u. c #3BB79A",
"i. c #409981",
"p. c #418F87",
"a. c #678199",
"s. c #69849A",
"d. c #6D8B9E",
"f. c #6C8193",
"g. c #708D9F",
"h. c #79909E",
"j. c #45AC83",
"k. c #43A586",
"l. c #58AE85",
"z. c #47B886",
"x. c #42B58D",
"c. c #45BD8C",
"v. c #49BD88",
"b. c #48B885",
"n. c #42BD92",
"m. c #42B795",
"M. c #45A893",
"N. c #62AB84",
"B. c #75AD82",
"V. c #68B685",
"C. c #7AB686",
"Z. c #77B887",
"A. c #728EA0",
"S. c #7693A4",
"D. c #7A96A5",
"F. c #7C98A6",
"G. c #7D9AA9",
"H. c #6F8CA0",
"J. c #46C28C",
"K. c #49C48A",
"L. c #4ACA8C",
"P. c #52CB8D",
"I. c #58C38D",
"U. c #59D08F",
"Y. c #44C393",
"T. c #4BC49B",
"R. c #5AD292",
"E. c #5DD893",
"W. c #4ECE91",
"Q. c #64D692",
"!. c #69D595",
"~. c #78D894",
"^. c #74C18C",
"/. c #7BE399",
"(. c #75E5A2",
"). c #858B95",
"_. c #89949B",
"`. c #80BB88",
"'. c #819EAC",
"]. c #8698A5",
"[. c #9A97A3",
"{. c #85A2AE",
"}. c #8CA5AD",
"|. c #8DA0A6",
" X c #86A3B0",
".X c #89A6B3",
"XX c #8CA9B5",
"oX c #91AEB7",
"OX c #92AAB6",
"+X c #95B3BB",
"@X c #98B6BD",
"#X c #9BB8BE",
"$X c #90A2A8",
"%X c #A6ACB4",
"&X c #A3B7B8",
"*X c #B2B3BA",
"=X c #83C68D",
"-X c #89DD97",
";X c #84E399",
":X c #8BE399",
">X c #87E89A",
",X c #9EBBC0",
"<X c #A1BFC2",
"1X c #B5BAC0",
"2X c #ADC9C9",
"3X c #A7C2C6",
"4X c #BBC6CA",
"5X c #B6D2CF",
"6X c #B8D3CF",
"7X c #BED9D4",
"8X c #B8D5D0",
"9X c #BECED3",
"0X c #D5D9DB",
"qX c #C0C3C8",
"wX c #DEE8E6",
"eX c #DCF0EB",
"rX c #EDF5F2",
"tX c #F6FFFB",
"yX c #E5ECEB",
"uX c None",
/* pixels */
"uXuXuXuXuXuXuXuXuXuXuXuXuXuXuXuXuXuXuXuXuXuXuXuXuXuXuXuXuXuXuXuXuXO O O O X uXuXuXuXuXuXuXuXuXuX",
"uXuXuXuXuXuXuXuXuXuXuXuXuXuXuXuXuXuXuXuXuXuXuXuXuXuXuXuXuXuXuXuXuX% O % % % uXuXuXuXuXuXuXuXuXuX",
"uXuXuXuXuXuXuXuXuXuXuXuXuXuXuXuXuXuXuXuXuXuXuXuXuXuXuXuXuXuXuXuXO uXuXuXuXO O uXuXuXuXuXuXuXuXuX",
"uXuXuXuXuXuXuXuXuXuXuXuXuXuXuXuXuXuXuXuXuXuXuXuXuXuXuXuXuXuXuX% O O uXuXuXuX% O uXuXuXuXuXuXuXuX",
"uXuXuXuXuXuXuXuXuXuXuXuXuXuXuXuXuXuXuXuXuXuXuXuXuXuXuXuXuXuX  X X X uXuXuXuXuXuXuXuXuXuXuXuXuXuX",
"uXuXuXuXuXuXuXuXuXuXuXuXuXuXuXuXuXuXuXuXuXuXuXuXuXuXuXuXuX# # % % o O uXuXuXuXuXuXuXuXuXuXuXuXuX",
"uXuXuXuXuXuXuXuXuXuXuXuXuXuXuXuXuXuXuXuXuXuXuXuXuXuXuXuXuXR W W T I n l uXuXuXuXuXuXuXuXuXuXuXuX",
"uXuXuXuXuXuXuXuXuXuXuXuXuXuXuXuXuXuXuXuXuXuXuXuXuXuXuX. C _.&X#X}.h.&.N # uXuXuXuXuXuXuXuXuXuXuX",
"uXuXuXuXuXuXuXuXuXuXuXuXuXuXuXuXuXuXuXuXuXuXuXuXuXuXuX. l ).&X&X$Xh.&.v % X uXuXuXuXuXuXuXuXuXuX",
"uXuXuX      X X uXuXuXuXuXuXuXuXuXuXuXuXuXuXuXuXuXuXX X # B R R I N v s o X X uXuXuXuXuXuXuXuXuX",
"uXuXa a a p a s uXuXuXuXuXuXuXuXuXuXuXuXuXuXuXuXuXu i i u i a i i i i u u $ # + uXuXuXuXuXuXuXuX",
"X g ' ] ] ] ( J A O uXuXuXuXuXuXuXuXuXuXuXuXuXuXi I T %.%.%.#.W #.%.T P P N v x $ uXuXuXuXuXuXuX",
"X b B.-X-X~.I.j.7 O uXuXuXuXuXuXuXuXuXuXuXuXuXo n =.'.{.{.{.{.{. XG.G.A.s.@...v u X uXuXuXuXuXuX",
"X b V./.(.!.l.^ d o X uXuXuXuXuXuXuXuXuXuXuXu v o.F.@X3X3X@XoX@X,XoX X{.D.d.;...l k uXuXuXuXuXuX",
"o d ` P.T.M.U k & o X % % @ % % O O O O o o l P g.oX3X5X5X,XoX#X,X@XXX XG.D.s.@...v $ X uXuXuXuX",
"o * ~ _ <.| D c ; A c c D F G G b c = O # a L f.{.3X5X7X5X<XXX@X,X+XXX X XG.d.a.@.N u o uXuXuXuX",
"% + p c 1 3 w 1.! _ _ _ } C.`.C.N.p.q k k P f.S..X2X7X8X2X@XXXoX+XXXXXXX XG.g.d.a.P s O o uXuXuX",
"% O O % + < <.y.n.K.K.L.Q.;X>X>X!.u.| > l *.S.G.oX2X8X2X<XoXXXXXXXXXXXXXXXG.d.d.s.o.u X o % uXuX",
"uX% o + 6 <.0.n.J.L.L.L.R.Q.!.Q.R.Y.) a l -.D. XoX#X3X#X+XoXXX.XXXXXXXXXXXG.H.d.d.o.u O o o uXuX",
"uXuXo p e 3.x.J.K.J.c.z.K.K.K.L.K.z.^ p v *.D. XXXXXXXXXXXXXXXXXXXXXXXXXXXG.S.d.s.o.u X O O uXuX",
"uXuX  + 6 Q j.J.L.v.[ ^ i.y.Y.J.j.^ A s l *.S. XXXXX.X.X.XXXXXXXXXXXXXXXXXG.S.d.d.I u o o O uXuX",
"uXuX# % & ; ) K.L.z.J ; U e.n.c.) c O O v *.S. XXXXXXXXXXXXXXXXXXXXXXXXX.XG.d.d.d.o.u X o o uXuX",
"uXuX:.R j & Q y.Y.x.7 O <  .) ^ S #   @ C *.S.{.XXXXXXXXXXXXXXXXXXXXXXXX XG.H.d.d.o.i o o O uXuX",
"X Y %X*XE * e u.u.r.9 O O = < d s % @ @ v *.S.G..X.XXXXXXXXXXXXXXXXXXX.X{.D.d.d.d.P u X o o uXuX",
"X Y qX0X[.Y U 2.8.2.U F h m g d d < * # l @.H.D.{.{.XXXXXXXXXXXXXXXX.X{.G.D.d.d.a.P i X X O uXuX",
"X Z qXrX0X%X=.3 4 D ( B.`.} } ) Q <.9 * x O.-.A.S.{. XXXXXXXXXXXXX.X XG.S.d.d.a.@.V u X % O uXuX",
"X Z *XrXtX0X).k X s ] =X:X:X!.K.x.7.w p k V O.-.g.S.{. X.X X.XXX X{.G.S.d.d.s.;.X.M $ O % O uXuX",
"X B &XeXtXyX%X$.x # h ' Z.!.Q.L.k.U < + # x N O.a.S.D.D.G.G.G.D.G.D.S.S.d.a.;.X.z p % O O % uXuX",
"X n ].0XeXwX2XD.I % O d / v.L.K.) 1 O O % % x V +.a.d.g.d.H.g.d.A.d.d.H.s.;.O.M u o o o O % uXuX",
"X a W $X4X9XOX=.C $ = 6 _ K.L.K.[ 9 < & @ O $ z V +.s.s.d.d.d.d.d.d.d.s.-.O.M k # o o o O uXuXuX",
"O O i Y ].OX:.l % y 9 2.q.c.K.K.x.e.w * O X % + x L @.s.d.g.d.d.d.d.d.-.O.M k o o O o O uXuXuXuX",
"6 ; + $ #.=.n o   $ 6 1.i._ _ _ i.<.9 * @ % % O & z L o.+.&.&.+.&.&.+.X.M z O o # o O uXuXuXuXuX",
"[ ~ ; % a l u X X % * 1 c c d c ; 1 = O X O X X % u x x l C v l l l l l i $ O X O O uXuXuXuXuXuX",
"K.[ A O + * * * * * * * * * * * * * = * * * * * & O O O o o X o O o O O O % O O X O uXuXuXuXuXuX",
"W.[ A O - , 5 q 0 q q 8 8 8 8 8 8 8 q q 0 q t t 2 + X X o X X X X X o X X O O % uXuXuXuXuXuXuXuX",
"J._ A & , t | >.,.>.4.,.,.,.,.,.,.,.,.,.,.,.,.,. .4 # O o o y & & O O O % O O O uXuXuXuXuXuXuXuX",
"~ H p * 5 | 5.4.6.6.w.w.w.9.w.9.9.9.9.9.9.9.r.9.3.Q 3 k & A ~ ~ H f # X % O O uXuXuXuXuXuXuXuXuX",
"= & # = t ,.4.4.6.t.y.c.c.c.c.c.J.c.c.c.J.z.J.J.x.r.1.c * ~ j.b.[ S O X uXuXuXuXuXuXuXuXuXuXuXuX",
"X X @ * 0 4.6.9.t.u.c.L.U.Q.U.L.P.Q.Q.Q.U.L.K.K.Y.m.7.3 s H ` [ ) S & uXuXuXuXuXuXuXuXuXuXuXuXuX",
"uXuX@ * 0 6.r.q.c.n.K.L.Q./.!.P.U./.>X>X~.P.J.J.Y.u.2.3 # s d ; ; d uXuXuXuXuXuXuXuXuXuXuXuXuXuX",
"uXuX% * 8 1.0.c.J.x.j.{ V.^.V.{ l.^.=X=X^.I.c.c.y.t.8.3 @ X o O % uXuXuXuXuXuXuXuXuXuXuXuXuXuXuX",
"uXuXuXuX= 6 <.u.y.7.e S G G G D D K K K ( M.u.w.w.7.| < % @ uXuXuXuXuXuXuXuXuXuXuXuXuXuXuXuXuXuX",
"uXuXuXuXX = e 2.8.| 3 + % # y o # # % # 3 1.7.,.5.>.0 4 O uXuXuXuXuXuXuXuXuXuXuXuXuXuXuXuXuXuXuX",
"uXuXuXuXuX& 3 9 8 2 : uXuXuXuXuXuXuXuXuX= 6 0 |  .8 2 = uXuXuXuXuXuXuXuXuXuXuXuXuXuXuXuXuXuXuXuX",
"uXuXuXuXuXuX& + & & uXuXuXuXuXuXuXuXuXuXuX& : 5 5 : O uXuXuXuXuXuXuXuXuXuXuXuXuXuXuXuXuXuXuXuXuX",
"uXuXuXuXuXuXuX@ @ @ uXuXuXuXuXuXuXuXuXuXuXuX+ : : + % uXuXuXuXuXuXuXuXuXuXuXuXuXuXuXuXuXuXuXuXuX",
"uXuXuXuXuXuXuXuXuXuXuXuXuXuXuXuXuXuXuXuXuXuXuX+ O O O uXuXuXuXuXuXuXuXuXuXuXuXuXuXuXuXuXuXuXuXuX",
"uXuXuXuXuXuXuXuXuXuXuXuXuXuXuXuXuXuXuXuXuXuXuXO O O O uXuXuXuXuXuXuXuXuXuXuXuXuXuXuXuXuXuXuXuXuX"
};
