/* XPM */
static char *result[] = {
/* columns rows colors chars-per-pixel */
"48 48 217 2 ",
"   c #3B2E4C",
".  c #3D334E",
"X  c #3F3750",
"o  c #3F3952",
"O  c #393E59",
"+  c #40354E",
"@  c #403650",
"#  c #413B54",
"$  c #433E58",
"%  c #402F4C",
"&  c #3E4156",
"*  c #3C445A",
"=  c #3D4B5D",
"-  c #37465F",
";  c #3F585E",
":  c #374C63",
">  c #3C5363",
",  c #3E5A63",
"<  c #32526A",
"1  c #34596E",
"2  c #3A5B69",
"3  c #365466",
"4  c #325D71",
"5  c #3C636D",
"6  c #3A6B6E",
"7  c #3E726C",
"8  c #2A667B",
"9  c #316476",
"0  c #3A6671",
"q  c #316978",
"w  c #366A76",
"e  c #3D7374",
"r  c #397279",
"t  c #3A7979",
"y  c #414355",
"u  c #45425B",
"i  c #49465D",
"p  c #424B59",
"a  c #494C5A",
"s  c #454A57",
"d  c #41535C",
"f  c #425B5F",
"g  c #4E575E",
"h  c #464662",
"j  c #4A4C64",
"k  c #4B4E6A",
"l  c #474863",
"z  c #415D61",
"x  c #4D526B",
"c  c #4C5067",
"v  c #53546A",
"b  c #565868",
"n  c #4E5572",
"m  c #525B75",
"M  c #515B7A",
"N  c #595E72",
"B  c #574D65",
"V  c #615D70",
"C  c #446564",
"Z  c #436C66",
"A  c #4B6868",
"S  c #556665",
"D  c #556C67",
"F  c #43756A",
"G  c #447C6D",
"H  c #5B736A",
"J  c #5F7A6D",
"K  c #5C6275",
"L  c #55627C",
"P  c #5A677C",
"I  c #5A677C",
"U  c #487674",
"Y  c #607F6E",
"T  c #696C7B",
"R  c #636878",
"E  c #6C707F",
"W  c #716D7F",
"Q  c #3B877F",
"!  c #43826F",
"~  c #438471",
"^  c #448C74",
"/  c #4B8872",
"(  c #459376",
")  c #41937C",
"_  c #459B7A",
"`  c #4B997A",
"'  c #5A9577",
"]  c #6A9678",
"[  c #4AA47D",
"{  c #6BA07C",
"}  c #297686",
"|  c #307982",
" . c #566382",
".. c #5B6B83",
"X. c #5C6D8B",
"o. c #5E728E",
"O. c #636E81",
"+. c #657284",
"@. c #617489",
"#. c #647A8F",
"$. c #6C7A89",
"%. c #777886",
"&. c #607691",
"*. c #667E95",
"=. c #687F95",
"-. c #726F80",
";. c #2B838C",
":. c #2C8B8E",
">. c #25828F",
",. c #398382",
"<. c #3A8A83",
"1. c #3B8C89",
"2. c #3D9485",
"3. c #39928B",
"4. c #37998B",
"5. c #298A91",
"6. c #278992",
"7. c #2C9394",
"8. c #2C9898",
"9. c #349F93",
"0. c #34A68F",
"q. c #3FAC8F",
"w. c #35A591",
"e. c #3BA391",
"r. c #3CAC93",
"t. c #35A693",
"y. c #3DB294",
"u. c #3BB69A",
"i. c #37AA93",
"p. c #428982",
"a. c #409A80",
"s. c #6C8396",
"d. c #6A859A",
"f. c #6E8B9E",
"g. c #678198",
"h. c #718C9D",
"j. c #798795",
"k. c #7A919E",
"l. c #45AC81",
"z. c #48AA85",
"x. c #46B385",
"c. c #47BA86",
"v. c #41B38C",
"b. c #45BD8B",
"n. c #49B885",
"m. c #57B585",
"M. c #41BD93",
"N. c #42B593",
"B. c #5FBF90",
"V. c #55AC81",
"C. c #69A881",
"Z. c #67B686",
"A. c #78B686",
"S. c #71A980",
"D. c #718EA1",
"F. c #7593A4",
"G. c #7996A6",
"H. c #7C9AA9",
"J. c #7D99A7",
"K. c #46C38C",
"L. c #49C48A",
"P. c #4BCB8D",
"I. c #47CA8F",
"U. c #53CC8D",
"Y. c #55C98E",
"T. c #42C394",
"R. c #4AC995",
"E. c #5BD390",
"W. c #5AD28F",
"Q. c #61D08F",
"!. c #6ECE90",
"~. c #63D592",
"^. c #6CD996",
"/. c #77DD96",
"(. c #73C38B",
"). c #7CE298",
"_. c #6AE197",
"`. c #77E9A1",
"'. c #80BE8A",
"]. c #819EAC",
"[. c #879BA3",
"{. c #84A1AE",
"}. c #89A2AF",
"|. c #9DA5AD",
" X c #86A4B0",
".X c #89A6B3",
"XX c #8CA9B5",
"oX c #94ADB4",
"OX c #91AFB9",
"+X c #94B3BB",
"@X c #9BB9BF",
"#X c #9FB0B1",
"$X c #A5B6B9",
"%X c #B5B7BE",
"&X c #A7A7B0",
"*X c #83C58D",
"=X c #86DA95",
"-X c #85E69A",
";X c #8BE59A",
":X c #9DBBC0",
">X c #A1BEC2",
",X c #A4C2C4",
"<X c #ACC4C6",
"1X c #AFCDCB",
"2X c #B4C7C9",
"3X c #B3D1CD",
"4X c #B9D4D0",
"5X c #BDD9D3",
"6X c #BECFD4",
"7X c #C1D2D6",
"8X c #DCDFE0",
"9X c #D8EBE7",
"0X c #E2E9E8",
"qX c #EEF4F2",
"wX c #F5FFFB",
"eX c #E8F2EF",
"rX c None",
/* pixels */
"rXrXrXrXrXrXrXrXrXrXrXrXrXrXrXrXrXrXrXrXrXrXrXrXrXrXrXrXrXrXrXrXrXrXrXo o X o rXrXrXrXrXrXrXrXrX",
"rXrXrXrXrXrXrXrXrXrXrXrXrXrXrXrXrXrXrXrXrXrXrXrXrXrXrXrXrXrXrXrXrXrXrXo . # X rXrXrXrXrXrXrXrXrX",
"rXrXrXrXrXrXrXrXrXrXrXrXrXrXrXrXrXrXrXrXrXrXrXrXrXrXrXrXrXrXrXrXrXrXo rXrXrXrX# o rXrXrXrXrXrXrX",
"rXrXrXrXrXrXrXrXrXrXrXrXrXrXrXrXrXrXrXrXrXrXrXrXrXrXrXrXrXrXrXrXrXo o rXrXrXrXo X rXrXrXrXrXrXrX",
"rXrXrXrXrXrXrXrXrXrXrXrXrXrXrXrXrXrXrXrXrXrXrXrXrXrXrXrXrXrXrXrX. . . . rXrXrXrXo rXrXrXrXrXrXrX",
"rXrXrXrXrXrXrXrXrXrXrXrXrXrXrXrXrXrXrXrXrXrXrXrXrXrXrXrXrXrXrX# o o o o # rXrXrXrXrXrXrXrXrXrXrX",
"rXrXrXrXrXrXrXrXrXrXrXrXrXrXrXrXrXrXrXrXrXrXrXrXrXrXrXrXrXrXR T E E I b x i rXrXrXrXrXrXrXrXrXrX",
"rXrXrXrXrXrXrXrXrXrXrXrXrXrXrXrXrXrXrXrXrXrXrXrXrXrXrXrXrXu %.$X$XoX[.s...j o rXrXrXrXrXrXrXrXrX",
"rXrXrXrXrXrXrXrXrXrXrXrXrXrXrXrXrXrXrXrXrXrXrXrXrXrXrXrX  y -.#X$XoX[.s.I a X . rXrXrXrXrXrXrXrX",
"rXrXrXrXrX  .   .   rXrXrXrXrXrXrXrXrXrXrXrXrXrXrXrXrX. . . B T T T K m j # . . . rXrXrXrXrXrXrX",
"rXrXrXrXa a a s a * p rXrXrXrXrXrXrXrXrXrXrXrXrXrXrXu i u i a i i i i u i i u u # $ rXrXrXrXrXrX",
"rXrXrXa Y ] ] j.' / F d rXrXrXrXrXrXrXrXrXrXrXrXrXi N O.+.+.+.+.O.O.O.O.I I L x k h # rXrXrXrXrX",
"rXrX  a ] =X;X=X!.m.( ; . rXrXrXrXrXrXrXrXrXrXrX# j $.J.{.{.{.}. X{.].].G.f.g.o. .x $ X rXrXrXrX",
"rXrX  a ] ^.`.^.B.` Z y +   rXrXrXrXrXrXrXrXrXi j I k.+X,X,X:XOX+X:X+XOX XH.F.d.o.M k h rXrXrXrX",
"rXrX. p / L.R.N.p.5 y o @ X X X X @ X o o . X a ..h.XX,X3X4X,XOX+X:X:XOX X XH.F.g.o.M k $ . rXrX",
"rXrX. y 7 ( a.1.r 2 ; f z f z S S S S g # # l N =.].:X3X5X5X,XOXOX:X@XOXXX XH.G.f.g.o.n y X rXrX",
"rXrXX o = z , > 0 ,.2.) _ _ [ { A.*XA.Y s a P =.h.XX<X5X5X1X@XOXXX+X+XXXXXXX XG.f.f.g.L u . X X ",
"rXrXo # @ o o p e e.u.K.L.L.U.^.-X;X=X] a c &.F.H.oX<X4X1X,X+XXX.XXX.XXXXXXX.XG.f.f.d.P y X X X ",
"rXrXrXrX. o > r 2.y.K.I.P.P.P.W.~._.~.' d j g.F.{.XX@X>X@X+X+XXXXXXX.XXXXXXX.XG.f.f.d.P i . X o ",
"rXrXrXrX. # e 4.y.b.K.c.c.K.L.L.L.P.c.7 p c @.F. XXXXXXXOXXXXXXXXXXXXXXXXXXX XG.f.f.f.P y . X X ",
"rXrXrXrX  y F y.T.L.x.( ^ z.u.T.L.[ ! ; & c #.F. XXXXX.X.X.XXXXXXX.XXXXXXXXX.XG.f.f.d.P p . X o ",
"rXrX# # @ y F v.I.L._ z 2 ,.u.T.x.! d X # c g.F. XXXXXXXXXXXXXXXXXXXXXXXXXXX XG.f.f.d.P u . X X ",
"rXrX-.-.B # 7 v.T.M.( = O 0 Q ) ^ f X   # v #.F.{..XXXXXXXXXXXXXXXXXXXXXXXXX XG.f.f.f.P u . X X ",
". N &X%X%.* 6 r.u.u.<.; X * = d d & X . @ v #.F.]. X.XXXXXXXXXXXXXXXXXXXXX.XH.F.f.f.d.P u . X X ",
"  V %X0X&XT U 1.4.3.,.A b g S f ; ; j * # k o.f.G.{. XXXXXXXXXXXXXXXXX.X.X{.G.F.f.f.g.L u . . o ",
". V %XeX8X%Xj.n 3 2 U S.A.A.{ ' ( Q <.5 & k  .*.f.G.]..XXXXXXXXXXXXXXX.X{.G.F.f.f.g.o.m u X @ # ",
"  N &XeXwX0X|.b X # S S.=X;X-XQ.b.y.4.w * h M X.*.f.G.H. X X.X.X.X.X{.{.J.F.f.d.g.o. .k # X o . ",
"  b #X9XwXqX>Xj.b $ a J { (.~.E.K.) e > # $ l m X.*.f.G.H.H.H.H.H.H.G.G.F.f.f.g.o.L k i o X # . ",
". b [.6X0X0X7X[.+.l # y C [ P.P.c.~ = o # o # l M X.*.f.f.f.f.f.f.f.f.f.f.f.d.o. .x O # o X o o ",
"  B -.[.2X7X>Xj.N $ & > t l.L.I.c.) 6 > o . X # k M X.*.d.f.f.f.f.f.f.f.f.d.&. .n h X X o @ @ o ",
"rXrXh N [.oXj.v $ # > ,.e.v.L.L.b.v.4.e & @ X @ O l M X.g.f.f.f.f.f.f.f.g.&. .n u o X X X o rXrX",
"rXrX  # N =.V #   @ > t 2._ _ _ ` a.1.0 & + X @ @ # k M ..o.@.@.@.@.@.@.X. .n u X X X o o rXrXrX",
"rXrX. X a x i @ . X y > , z z f z z , * # @ @ + + # $ h j j j j c j c j j l u # o . X o rXrXrXrX",
"rXrXp = & o o * * * * * & * * * * * * * - * * * - & o + X o # . # . X # # o o o o o o rXrXrXrXrX",
". p G G ; o O : 4 q q 9 9 9 9 9 9 9 9 9 9 9 q q q 9 = . + . .   . . . . X . X X o # rXrXrXrXrXrX",
". ; _ [ 7 O - 8 } } 5.5.:.:.:.5.:.:.:.:.:.:.:.:.:.| 2 o o o o y & y o # . o o X X rXrXrXrXrXrXrX",
". d _ c.G & 3 } >.6.7.8.8.t.w.0.0.0.0.0.0.0.0.0.i.4.,.0 * o d F ! G C p X . # X rXrXrXrXrXrXrXrX",
". d ( l.F & 1 ;.6.6.7.t.r.N.b.b.b.b.b.b.b.b.b.L.b.b.r.4.5 = F [ c.x.^ d # rXrXrXrXrXrXrXrXrXrXrX",
"+ d G / f & 1 ;.8.9.w.r.M.K.P.W.~.W.P.U.~.~.~.E.P.I.M.r.Q 5 G ) _ _ ! d . rXrXrXrXrXrXrXrXrXrXrX",
"rXrXd d y & 9 ;.9.q.b.b.b.L.U.^.).~.P.~.).;X-X_.W.K.K.b.e.2.e z d d d rXrXrXrXrXrXrXrXrXrXrXrXrX",
"rXrXrXX @ o 1 | 4.q.T.L.c.l.[ Z.(.Z.[ { (.*X*XA.V.[ x.v.u.t.r & . + X rXrXrXrXrXrXrXrXrXrXrXrXrX",
"rXrXrXrXrXrX- > t i.T.I.n.! Z H H A C A H J H D Z 7 <.9.8.7.w o % rXrXrXrXrXrXrXrXrXrXrXrXrXrXrX",
"rXrXrXrXrXrXrXo 5 3.r.v._ z # # # # o # & # # # @ = q ;.5.;.9 o + rXrXrXrXrXrXrXrXrXrXrXrXrXrXrX",
"rXrXrXrXrXrXrXrX; 5 6 F C y .   rXrXrXrXrXrXrXrXrXO 3 4 8 } < O + rXrXrXrXrXrXrXrXrXrXrXrXrXrXrX",
"rXrXrXrXrXrXrXrXrX& & y y # X rXrXrXrXrXrXrXrXrXrXrXo - 1 8 < O + rXrXrXrXrXrXrXrXrXrXrXrXrXrXrX",
"rXrXrXrXrXrXrXrXrXrX. . . + rXrXrXrXrXrXrXrXrXrXrXrXrXo : < - X + rXrXrXrXrXrXrXrXrXrXrXrXrXrXrX",
"rXrXrXrXrXrXrXrXrXrXrXrXrXrXrXrXrXrXrXrXrXrXrXrXrXrXrXrXO o o o # rXrXrXrXrXrXrXrXrXrXrXrXrXrXrX",
"rXrXrXrXrXrXrXrXrXrXrXrXrXrXrXrXrXrXrXrXrXrXrXrXrXrXrXrX@ . # o X rXrXrXrXrXrXrXrXrXrXrXrXrXrXrX"
};
