/* XPM */
static char *result[] = {
/* columns rows colors chars-per-pixel */
"32 32 8 1 ",
"  c #16121A",
". c #333790",
"X c #5633A8",
"o c #326DD9",
"O c #27ABFA",
"+ c #79C8FA",
"@ c #E7F3F3",
"# c None",
/* pixels */
"################################",
"################################",
"#######                  #######",
"###### +@@@@@@@@@@@@@@@@@ ######",
"##### OX@ooOOOOO+++@+++++@ #####",
"#### OX@ooOOOOOOO++@++++++@ ####",
"### OXX@ooOOOOOOO++@+++++++@ ###",
"## +XX@ooOOOOOOOO++@++++++++@ ##",
"# +OOO@@@@@@@@@@@@@@@@@@@@@@@@ #",
"# OXXX@ooOOOOOOOO++@++++++++@@ #",
"# OXXX@ooOOOOOOOO++@++++++++@@ #",
"# oXXX@ooOOOOOOOO++@++++++++@@ #",
"# oXXX@ooOOOOOOOO++@++++++++@@ #",
"# OXXX@ooOOOOOOOO++@++++++++@@ #",
"# +OO@@@@@++++++@@@@@@@@@@@@@@ #",
"# O.XXOXXXooOOOOOOO@OOooooooo@ #",
"## o.XoXXooooooooOO@oooOOOOO@ ##",
"### o.XOXXooooooooO+ooOOOOO@ ###",
"#### ..XOXoooooooO@ooOOOOO@ ####",
"##### ..XOXooooooO@ooOOOO@ #####",
"###### ..oXXoooooO+oOOOO+ ######",
"####### ..OXooooO@oOOOO@ #######",
"######## ..OXoooO@OOOO@ ########",
"######### ..OXooO@OOO@ #########",
"########## .oXXoO+OO@ ##########",
"########### .OXO@OO+ ###########",
"############ .OX@O+ ############",
"############# .o+o #############",
"############## .o ##############",
"###############  ###############",
"################################",
"################################"
};
