/* XPM */
static char *result[] = {
/* columns rows colors chars-per-pixel */
"36 36 146 2 ",
"   c #3B2F49",
".  c #3E354D",
"X  c #3F3751",
"o  c #3F3851",
"O  c #403B55",
"+  c #413E5B",
"@  c #413F61",
"#  c #42425B",
"$  c #424365",
"%  c #454C65",
"&  c #494E64",
"*  c #43456C",
"=  c #454A69",
"-  c #4B5166",
";  c #47506A",
":  c #4A556C",
">  c #4E596D",
",  c #444671",
"<  c #454B75",
"1  c #454C7B",
"2  c #475076",
"3  c #495574",
"4  c #4A5B74",
"5  c #47507C",
"6  c #49557C",
"7  c #4B5E79",
"8  c #515E72",
"9  c #4C617B",
"0  c #536275",
"q  c #52657A",
"w  c #566A7D",
"e  c #464F81",
"r  c #4A5A83",
"t  c #47538A",
"y  c #48558E",
"u  c #4C5F8A",
"i  c #485791",
"p  c #495A96",
"a  c #4A5C9D",
"s  c #4E6882",
"d  c #4E6289",
"f  c #4F688A",
"g  c #506D87",
"h  c #516D8A",
"j  c #517087",
"k  c #5B7384",
"l  c #52728C",
"z  c #58798F",
"x  c #4E6693",
"c  c #4C619F",
"v  c #4F6A9F",
"b  c #537791",
"n  c #557B95",
"m  c #567F9A",
"M  c #4A5DA0",
"N  c #4C61A6",
"B  c #4E68A1",
"V  c #4D64AC",
"C  c #4E69AF",
"Z  c #516DA0",
"A  c #506FAD",
"S  c #5170A4",
"D  c #5477AA",
"F  c #567AAD",
"G  c #4D66B4",
"H  c #4E69B3",
"J  c #4E6BBC",
"K  c #506FBC",
"L  c #557AB1",
"P  c #5172BB",
"I  c #4F6EC2",
"U  c #506EC0",
"Y  c #5173C3",
"T  c #557BC4",
"R  c #5379C8",
"E  c #5F8092",
"W  c #57819C",
"Q  c #58859E",
"!  c #638492",
"~  c #668895",
"^  c #6A939F",
"/  c #5886A0",
"(  c #5A8AA4",
")  c #5783AC",
"_  c #5984AE",
"`  c #5B8EA8",
"'  c #5B91AB",
"]  c #5781BD",
"[  c #5985BD",
"{  c #5D95B2",
"}  c #5E9AB3",
"|  c #5F9ABA",
" . c #6F9DA7",
".. c #6397AC",
"X. c #609FBA",
"o. c #6AA2B3",
"O. c #71A5B1",
"+. c #75AAB3",
"@. c #73AEBB",
"#. c #7BB5BD",
"$. c #5781C6",
"%. c #5985C6",
"&. c #5B8CC7",
"*. c #5782C9",
"=. c #5985CA",
"-. c #5B8CC9",
";. c #5C91C7",
":. c #5E92CA",
">. c #5F9ACD",
",. c #6097C7",
"<. c #609EC5",
"1. c #6197CC",
"2. c #6199CC",
"3. c #619CD1",
"4. c #62A3C3",
"5. c #64AAC5",
"6. c #63A2CE",
"7. c #64ABCC",
"8. c #66B3CE",
"9. c #68B5CE",
"0. c #7EBDC3",
"q. c #64A4D2",
"w. c #65ABD1",
"e. c #68ACD1",
"r. c #67B3D2",
"t. c #68B5D3",
"y. c #69BBD6",
"u. c #6ABED9",
"i. c #72BFD2",
"p. c #6EC1D9",
"a. c #71C1D6",
"s. c #74C4D9",
"d. c #76CBDD",
"f. c #7DCEDB",
"g. c #7CD1DF",
"h. c #81C4C9",
"j. c #89D3D6",
"k. c #86D3D9",
"l. c #8AD7DB",
"z. c #85DAE3",
"x. c #8CDDE0",
"c. c #8EE1E4",
"v. c #8DE4E8",
"b. c #90E4E5",
"n. c #92EAEB",
"m. c None",
/* pixels */
"m.m.m.m.m.m.o o X . .   . . . .       O . . . .     . .   . m.m.m.m.m.m.",
"m.m.m.m.m.m.o o X O O O O O O O O O O O o o o o o o O o o o m.m.m.m.m.m.",
"m.m.m.m.m.m.. O O $ $ = # % % % ; ; % & ; ; ; : : > > > > : m.m.m.m.m.m.",
"m.m.m.m.m.. . . # < r u d d h h l l l h l l l z E ~ ~ ~ ! k > m.m.m.m.m.",
"m.m.m.m.O . . O = u Z F F ) _ { { } { { } { } o.@.0.0.0.#.^ 0 O m.m.m.m.",
"m.m.m.X X X o # 6 Z $.&.;.2.2.w.9.9.9.9.8.8.9.a.f.l.l.c.j.+.k - O m.m.m.",
"m.m.X X o + $ 6 x F -.3.3.q.e.t.y.u.u.u.y.y.u.s.g.z.v.n.b.0.^ k 8 - m.m.",
"o o X . O = 6 x D [ 1.3.q.r.r.y.y.y.u.y.u.u.u.p.d.g.z.c.b.j.#. .! 0 # . ",
"o o . . + 2 x F [ ;.>.2.w.r.r.t.y.y.r.y.y.r.y.y.y.a.d.z.c.c.l.h. .w #   ",
"o o . X o 2 B $.-.-.>.2.w.r.r.r.r.r.r.r.r.r.9.r.9.t.i.k.x.x.c.k.O.w #   ",
"o X X . o 6 v T =.=.-.:.6.7.e.7.7.w.w.7.7.w.w.q.7.w.y.s.g.z.z.k.o.w O . ",
"o X X . o < c P R R T %.1.6.q.6.6.2.6.q.2.6.6.6.2.6.e.y.u.d.d.i...9 #   ",
"o o . . # < a J I I Y T -.2.2.2.2.2.2.2.2.2.2.2.2.2.6.r.y.i.u.r.` 9 # . ",
"o o o . o < a J I I U T %.:.1.1.2.2.1.2.1.1.2.1.1.2.6.w.r.u.y.8.` 9 O . ",
"X o . . O < N J I I I Y %.-.:.1.1.1.1.1.1.1.1.1.:.2.6.w.r.u.u.r.` 7 o . ",
"o o o . O < a J I I I R $.-.-.1.1.1.2.2.2.1.2.2.1.2.q.w.r.y.u.9.` 7 # . ",
"O . O . + , i V J J U Y T %.&.:.1.2.2.1.2.1.2.2.2.2.q.w.y.y.9.o./ 7 # . ",
". O . . O $ e p N J U Y R T %.:.1.2.2.2.1.2.2.2.6.6.e.t.r.5.| ( l 3 O . ",
"m.m.X X o + * 1 i V I I Y T $.-.1.2.2.1.2.1.2.6.6.w.t.y.r.X.W s 4 % m.m.",
"m.m.m.X o o o $ 1 M J I I P T -.1.2.2.2.1.1.2.6.7.t.y.y.8.' s % # m.m.m.",
"m.m.m.O o X . O * y N G J J T =.1.1.1.2.1.1.2.6.r.9.8.5.} W 4 o   m.m.m.",
"m.m.m.m.o . . o @ < y M G I R -.-.:.1.1.1.1.2.q.r.y.5.' n s ; o m.m.m.m.",
"m.m.m.m.m.o o o o $ * t N I T %.-.:.1.1.2.1.2.q.r.r.} b 4 ; $ m.m.m.m.m.",
"m.m.m.m.m.m.o o o o o < p H Y $.%.&.:.1.1.2.2.6.w.5.` q # o m.m.m.m.m.m.",
"m.m.m.m.m.m.m.o . . X $ e a C P T =.-.:.2.q.q.4.| ` l 4 o m.m.m.m.m.m.m.",
"m.m.m.m.m.m.m.m.X . X # * e p C R *.-.;.3.q.w.| W f 9 % m.m.m.m.m.m.m.m.",
"m.m.m.m.m.m.m.m.m.o o o o * e N K R $.&.>.q.7.' l ; # m.m.m.m.m.m.m.m.m.",
"m.m.m.m.m.m.m.m.m.o o X o o * i V K T %.;.<.| / 7 + . m.m.m.m.m.m.m.m.m.",
"m.m.m.m.m.m.m.m.m.m.o . . o @ 1 y B P T ] ) m j : o m.m.m.m.m.m.m.m.m.m.",
"m.m.m.m.m.m.m.m.m.m.m.X X o o $ < y C P A f 7 : % m.m.m.m.m.m.m.m.m.m.m.",
"m.m.m.m.m.m.m.m.m.m.m.m.o o o o + 1 a H N 1 # # m.m.m.m.m.m.m.m.m.m.m.m.",
"m.m.m.m.m.m.m.m.m.m.m.m.m.o . X o * t a y , o m.m.m.m.m.m.m.m.m.m.m.m.m.",
"m.m.m.m.m.m.m.m.m.m.m.m.m.m.. . o # < e 1 $ m.m.m.m.m.m.m.m.m.m.m.m.m.m.",
"m.m.m.m.m.m.m.m.m.m.m.m.m.m.m.X o O + $ @ m.m.m.m.m.m.m.m.m.m.m.m.m.m.m.",
"m.m.m.m.m.m.m.m.m.m.m.m.m.m.m.o X o o o o m.m.m.m.m.m.m.m.m.m.m.m.m.m.m.",
"m.m.m.m.m.m.m.m.m.m.m.m.m.m.m.o X X X . X m.m.m.m.m.m.m.m.m.m.m.m.m.m.m."
};
