/* XPM */
static char *result[] = {
/* columns rows colors chars-per-pixel */
"36 36 169 2 ",
"   c #3B2F49",
".  c #3D334C",
"X  c #3F3751",
"o  c #3F3851",
"O  c #413C54",
"+  c #413F5B",
"@  c #413E62",
"#  c #434057",
"$  c #43425A",
"%  c #47495E",
"&  c #424264",
"*  c #454C65",
"=  c #494D62",
"-  c #43466E",
";  c #464C68",
":  c #494F6A",
">  c #4B5166",
",  c #47506A",
"<  c #4B556B",
"1  c #4E596D",
"2  c #515C6F",
"3  c #434570",
"4  c #444974",
"5  c #454B7B",
"6  c #495770",
"7  c #4A5B74",
"8  c #47507C",
"9  c #4B5E79",
"0  c #515E71",
"q  c #4C617B",
"w  c #546375",
"e  c #53657A",
"r  c #566A7C",
"t  c #586D7D",
"y  c #4D5C84",
"u  c #47538A",
"i  c #48558F",
"p  c #485690",
"a  c #4B5D9D",
"s  c #4E6882",
"d  c #4F6689",
"f  c #506D87",
"g  c #586D80",
"h  c #506589",
"j  c #506D8A",
"k  c #517087",
"l  c #5B7383",
"z  c #52728C",
"x  c #5D7A8C",
"c  c #4E6691",
"v  c #4B609F",
"b  c #537791",
"n  c #557B95",
"m  c #5F7E93",
"M  c #567F9A",
"N  c #4E65A6",
"B  c #4D64AC",
"V  c #4E68AE",
"C  c #506FAD",
"Z  c #4E68B1",
"A  c #597DB6",
"S  c #5171BB",
"D  c #4F70C0",
"F  c #5172C2",
"G  c #557BC3",
"H  c #597FC5",
"J  c #567FC9",
"K  c #5F8092",
"L  c #57819C",
"P  c #58859E",
"I  c #62828F",
"U  c #638392",
"Y  c #668995",
"T  c #648799",
"R  c #678F9F",
"E  c #6A929E",
"W  c #5B84A2",
"Q  c #5A8AA4",
"!  c #5783AC",
"~  c #5A85AE",
"^  c #5B8EA8",
"/  c #5B91AB",
"(  c #5B8EB0",
")  c #5681BB",
"_  c #5D97B2",
"`  c #5E9AB3",
"'  c #5F9ABA",
"]  c #6A94A2",
"[  c #6F9CA7",
"{  c #6397AC",
"}  c #6594B5",
"|  c #609FBA",
" . c #72A2AD",
".. c #6BA1B4",
"X. c #71A5B1",
"o. c #75ABB4",
"O. c #72A7BE",
"+. c #74ADBB",
"@. c #79B1B7",
"#. c #7AB4BB",
"$. c #5782C6",
"%. c #5883C6",
"&. c #5B8AC7",
"*. c #5985C8",
"=. c #5C8BC9",
"-. c #5C91C7",
";. c #5E92CA",
":. c #5F9ACD",
">. c #618FCD",
",. c #6393C5",
"<. c #609EC5",
"1. c #6196CC",
"2. c #6199CC",
"3. c #699BCC",
"4. c #699ED2",
"5. c #62A3C3",
"6. c #64AAC5",
"7. c #63A2CE",
"8. c #6CA2CC",
"9. c #64ABCC",
"0. c #70A7C4",
"q. c #74ABC2",
"w. c #66B3CE",
"e. c #68B5CE",
"r. c #78B4C3",
"t. c #7EBCC3",
"y. c #77B5CC",
"u. c #64A3D1",
"i. c #6BA5D2",
"p. c #65ABD1",
"a. c #6CABD3",
"s. c #70AFD6",
"d. c #67B3D3",
"f. c #69B5D4",
"g. c #69BBD6",
"h. c #6ABED9",
"j. c #73B3D3",
"k. c #78B7D6",
"l. c #74BDD5",
"z. c #7ABCD5",
"x. c #70B5D9",
"c. c #75B9DB",
"v. c #78B8D8",
"b. c #7FC0C8",
"n. c #6EC1D9",
"m. c #71C1D6",
"M. c #7DC2D3",
"N. c #74C4D9",
"B. c #7EC3DC",
"V. c #76CBDD",
"C. c #7DCEDB",
"Z. c #7CD1DF",
"A. c #7DC6E0",
"S. c #81C4CB",
"D. c #81C6D3",
"F. c #83CBD4",
"G. c #81CBDB",
"H. c #89D3D6",
"J. c #86D3D9",
"K. c #89D6DB",
"L. c #8BD9DF",
"P. c #81CCE1",
"I. c #85DAE3",
"U. c #8CDDE0",
"Y. c #8EE1E4",
"T. c #8DE4E8",
"R. c #90E4E5",
"E. c #92EAEB",
"W. c None",
/* pixels */
"W.W.W.W.W.W.o X . . . . .   . .     .   . .   .     .     . W.W.W.W.W.W.",
"W.W.W.W.W.W.o o O O O o O o O O O O O O O o o O o O O o o O W.W.W.W.W.W.",
"W.W.W.W.W.W.. O $ = 1 < : ; ; ; , , : : , , , < 1 1 1 1 1 1 W.W.W.W.W.W.",
"W.W.W.W.W.. . X = r U m z h h j z z z z k z z b K Y Y Y U l 1 W.W.W.W.W.",
"W.W.W.W.o . . O w E o.+.} ~ ~ ( / ` _ ` _ _ ` ..@.#.t.t.@.E e O W.W.W.W.",
"W.W.W.. o o O = l o.F.B.s.<.:.7.w.e.w.e.w.w.w.m.C.L.L.Y.K.o.l > O W.W.W.",
"W.W.. O O $ < t R r.C.A.x.p.p.d.g.g.h.h.g.g.h.N.Z.I.T.E.R.t.E l 0 > W.W.",
"O O O . O < x [ +.y.c.c.f.a.d.g.g.h.g.n.h.h.h.n.V.Z.I.T.R.H.#.[ I w $ . ",
". O . . $ r [ b.M.j.i.i.p.f.f.g.d.g.g.g.g.d.g.f.g.m.C.I.U.Y.K.S.[ r $ . ",
"O . . . $ t @.H.G.j.2.:.9.d.d.d.d.d.w.d.d.d.d.d.d.f.m.C.I.Y.Y.H.X.r $ . ",
"o o . . $ l #.L.P.i.=.=.2.p.p.p.9.p.p.p.9.p.9.p.9.9.f.N.C.I.I.Z...r #   ",
"X X . . $ l @.L.P.u.$.$.;.7.7.7.7.7.7.2.7.7.7.7.7.7.p.l.m.V.C.m.{ q # . ",
"o X X   $ l @.J.P.>.J G *.1.2.2.:.2.2.2.2.2.2.2.2.:.7.d.g.h.n.e.^ q O . ",
"o o . . + l @.K.P.1.F F %.>.1.1.1.1.1.2.2.1.1.1.2.:.7.p.f.g.h.w.^ q + . ",
"o o X . $ l @.L.B.>.F F H &.1.1.;.1.1.1.;.2.1.1.;.2.7.p.d.g.h.w.^ q #   ",
"o o . . $ l @.K.B.>.F F G &.=.1.2.1.2.2.2.1.2.2.1.2.7.p.d.h.h.w./ q O . ",
"O O   O O r  .S.z.3.H J G *.&.1.2.2.2.1.1.2.1.2.:.2.u.d.d.d.e...W 9 + . ",
". O     O 2 I  .O.3.3.>.*.G $.&.1.2.2.2.2.2.2.2.7.7.p.f.g.6.' ^ z 6 + . ",
"W.W.O O O % 2 x ] q.k.i.>.G J &.;.2.2.:.2.1.2.2.7.p.f.g.d.' L s 7 * W.W.",
"W.W.W.O O O O : x o.D.k.>.G G &.2.2.1.1.1.2.2.u.p.d.g.g.w./ s * $ W.W.W.",
"W.W.W.O O     O w ] t.y.4.>.*.=.;.2.2.2.1.1.2.u.d.w.e.6.` L 7 O   W.W.W.",
"W.W.W.W.O .   O : l E X.0.i.4.3.;.;.;.2.1.1.<.7.d.g.6./ n s , o W.W.W.W.",
"W.W.W.W.W.. O O + = e T +.D.v.u.;.=.;.2.2.1.2.u.d.d.` b 7 , $ W.W.W.W.W.",
"W.W.W.W.W.W.O O O O % g  .F.z.3.&.&.;.1.2.2.2.7.9.6.^ q % o W.W.W.W.W.W.",
"W.W.W.W.W.W.W.O . . o 2 Y o.q.,.*.*.&.;.:.u.u.<.' ^ b 7 o W.W.W.W.W.W.W.",
"W.W.W.W.W.W.W.W.. . o = e x W A G $.*.-.:.p.p.' L j 7 * W.W.W.W.W.W.W.W.",
"W.W.W.W.W.W.W.W.W.. O O % > y N S G $.&.:.p.9./ j , $ W.W.W.W.W.W.W.W.W.",
"W.W.W.W.W.W.W.W.W.o o X O O - i B S G %.-.:.| W 9 + . W.W.W.W.W.W.W.W.W.",
"W.W.W.W.W.W.W.W.W.W.X .   X @ 5 i B S G ) ~ M k < o W.W.W.W.W.W.W.W.W.W.",
"W.W.W.W.W.W.W.W.W.W.W.X X X o & 4 i V S C c 9 < * W.W.W.W.W.W.W.W.W.W.W.",
"W.W.W.W.W.W.W.W.W.W.W.W.X X o o o 5 a Z v 5 $ # W.W.W.W.W.W.W.W.W.W.W.W.",
"W.W.W.W.W.W.W.W.W.W.W.W.W.X o o o - u a i 4 o W.W.W.W.W.W.W.W.W.W.W.W.W.",
"W.W.W.W.W.W.W.W.W.W.W.W.W.W.. X o $ 4 5 5 & W.W.W.W.W.W.W.W.W.W.W.W.W.W.",
"W.W.W.W.W.W.W.W.W.W.W.W.W.W.W.X o O @ & & W.W.W.W.W.W.W.W.W.W.W.W.W.W.W.",
"W.W.W.W.W.W.W.W.W.W.W.W.W.W.W.o X o o O o W.W.W.W.W.W.W.W.W.W.W.W.W.W.W.",
"W.W.W.W.W.W.W.W.W.W.W.W.W.W.W.o X O . . X W.W.W.W.W.W.W.W.W.W.W.W.W.W.W."
};
