/* XPM */
static char *result[] = {
/* columns rows colors chars-per-pixel */
"36 36 162 2 ",
"   c #3B2F49",
".  c #3E344D",
"X  c #3F3651",
"o  c #3F3851",
"O  c #3F3B5E",
"+  c #403B55",
"@  c #413E59",
"#  c #43425B",
"$  c #434464",
"%  c #464C65",
"&  c #494D63",
"*  c #42446A",
"=  c #474C69",
"-  c #4B5166",
";  c #47516A",
":  c #4C556B",
">  c #4F596D",
",  c #515D6F",
"<  c #424674",
"1  c #454C74",
"2  c #454D7D",
"3  c #495574",
"4  c #4A5B75",
"5  c #48557C",
"6  c #4B5E78",
"7  c #525E72",
"8  c #4D617B",
"9  c #536275",
"0  c #52657A",
"q  c #566A7C",
"w  c #596D7E",
"e  c #454F8B",
"r  c #4A5983",
"t  c #49578C",
"y  c #4A5B8A",
"u  c #475493",
"i  c #495B9C",
"p  c #4E6882",
"a  c #506D87",
"s  c #596E81",
"d  c #516B8A",
"f  c #5B7485",
"g  c #52728C",
"h  c #5D7788",
"j  c #5C7A8C",
"k  c #4E6395",
"l  c #4E689F",
"z  c #516B95",
"x  c #537791",
"c  c #557B95",
"v  c #5C7993",
"b  c #567F99",
"n  c #607F8F",
"m  c #4D64A1",
"M  c #4E66A9",
"N  c #516FA0",
"B  c #5272A4",
"V  c #506BB1",
"C  c #577DB2",
"Z  c #5A7CB2",
"A  c #5272BD",
"S  c #587BBE",
"D  c #5579C0",
"F  c #5F8092",
"G  c #57829D",
"H  c #5B849B",
"J  c #62818E",
"K  c #638493",
"L  c #658895",
"P  c #6A929E",
"I  c #5886A0",
"U  c #5A8AA4",
"Y  c #5D85AF",
"T  c #5B8EA8",
"R  c #5B91AB",
"E  c #5F89B3",
"W  c #5D8ABF",
"Q  c #5C96B1",
"!  c #5F9AB4",
"~  c #5F99BA",
"^  c #6084AC",
"/  c #6992A1",
"(  c #6E9BA6",
")  c #6397AC",
"_  c #6C9AAB",
"`  c #6197B2",
"'  c #609FB9",
"]  c #73A6AF",
"[  c #69A2B4",
"{  c #61A0BB",
"}  c #6EA2B9",
"|  c #71A5B1",
" . c #75ABB5",
".. c #75AEBB",
"X. c #7AB5BD",
"o. c #5983C2",
"O. c #5F95CB",
"+. c #628EC4",
"@. c #649DC6",
"#. c #6A9BC6",
"$. c #6196CC",
"%. c #629ACC",
"&. c #6596D1",
"*. c #679CD2",
"=. c #6A9ED1",
"-. c #62A5C0",
";. c #6CA3C6",
":. c #64AAC5",
">. c #63A2CE",
",. c #6AA6CF",
"<. c #64ABCD",
"1. c #6CABC8",
"2. c #72AEC0",
"3. c #65B2CD",
"4. c #68B5CE",
"5. c #77B5C7",
"6. c #79B6C4",
"7. c #7EBCC2",
"8. c #76B6CF",
"9. c #7CBBCD",
"0. c #63A3D1",
"q. c #6AA5D4",
"w. c #65ACD1",
"e. c #6BACD3",
"r. c #70AFD4",
"t. c #67B3D2",
"y. c #69B6D3",
"u. c #69BBD5",
"i. c #6ABED8",
"p. c #72B3D5",
"a. c #72BED3",
"s. c #79BBD5",
"d. c #76B5DA",
"f. c #76BBDB",
"g. c #7BBEDB",
"h. c #7FC0C8",
"j. c #6EC2D9",
"k. c #71C1D6",
"l. c #7FC5D5",
"z. c #74C4D9",
"x. c #7EC4DC",
"c. c #76CADD",
"v. c #7DCDDB",
"b. c #7CD1DF",
"n. c #82C5CC",
"m. c #84CBD2",
"M. c #82CCDC",
"N. c #89D3D6",
"B. c #84D2DD",
"V. c #89D7DB",
"C. c #8DDCDF",
"Z. c #84CEE0",
"A. c #85D3E3",
"S. c #85DAE3",
"D. c #8CDDE2",
"F. c #8EE1E4",
"G. c #8DE4E8",
"H. c #91E5E6",
"J. c #94E9E6",
"K. c #91E7E8",
"L. c #92EAEB",
"P. c None",
/* pixels */
"P.P.P.P.P.P.o o + . .                 + . .   . .   . .   . P.P.P.P.P.P.",
"P.P.P.P.P.P.o o + + + + + + + + + + + + o o o o o o o o o o P.P.P.P.P.P.",
"P.P.P.P.P.P.. + @ O $ = - : > > > > & = ; ; ; : > > > > > : P.P.P.P.P.P.",
"P.P.P.P.P.. . X # 1 r d j K L L L v j g g g g x F L L L K f > P.P.P.P.P.",
"P.P.P.P.+ . . + = y B E } X.X.7.X...[ ` Q Q ! [ ..X.n.X.X.P 9 + P.P.P.P.",
"P.P.P.o X o o # 5 l W ,.l.V.F.D.V.v.u.4.3.4.4.k.v.N.C.F.N. .f - + P.P.P.",
"P.P.X . o @ $ 5 z E q.g.A.K.G.F.S.b.z.i.u.u.j.j.b.S.G.L.F.7.P f 7 - P.P.",
"o o o X + $ 5 z Y ;.f.A.D.H.F.S.b.c.j.j.u.u.i.j.c.b.S.G.H.N.X.( J 9 #   ",
"o o . X o 1 k Y @.s.B.D.H.F.S.v.k.u.u.y.y.y.u.u.u.k.v.S.H.D.V.n.( q #   ",
"o o . X O 1 l o.q.x.D.K.J.D.B.z.y.t.t.y.y.t.t.t.4.u.k.M.V.F.G.N.] q # . ",
"X X X . O 1 m D q.x.F.J.J.F.M.a.w.<.w.w.<.w.w.w.<.<.u.z.b.S.S.v.[ q + . ",
"+ X + . O < i D *.x.F.J.J.F.M.p.>.>.>.O.>.>.%.0.%.>.e.u.k.c.c.k.) 8 # . ",
". + . . # = i D &.g.D.J.J.D.M.r.%.O.O.>.%.%.%.%.>.O.>.t.u.i.k.4.T 8 # . ",
"+ . + . o < u A &.g.F.J.J.F.M.r.%.O.O.O.$.$.O.%.O.O.>.w.y.i.i.3.T 6 o . ",
". o . . o 1 i D &.x.F.J.J.F.M.r.%.O.O.%.$.$.$.%.O.O.>.w.t.i.i.4.T 8 + . ",
"+ X + . O 1 i A &.g.D.J.J.D.M.r.%.O.O.%.$.%.%.O.%.%.>.w.t.u.u.4.T 6 # . ",
"+ . + . @ * u V +.p.B.H.H.D.M.p.%.%.$.%.%.O.%.$.%.%.0.w.u.y.3.-.U 8 +   ",
"X + . X o $ 2 i Z #.s.M.D.D.M.p.%.%.$.$.$.%.%.%.>.0.w.y.y.:.! U g 3 # . ",
"P.P.o X o @ * 2 k Z &.d.Z.D.M.p.%.O.$.$.%.$.%.>.>.w.y.u.y.' G p 3 & P.P.",
"P.P.P.o o o + @ 2 m S &.M.S.M.p.%.O.$.%.$.%.O.>.w.y.u.u.3.R p % # P.P.P.",
"P.P.P.o + . . + * e M +.s.D.M.p.%.$.$.%.$.$.%.>.y.4.4.:.! G 4 @   P.P.P.",
"P.P.P.P.. + . + O < t Z 9.D.A.d.%.O.O.$.$.$.%.0.t.y.:.R c 8 ; o P.P.P.P.",
"P.P.P.P.P.. + + + + = v 6.V.A.p.%.O.$.$.$.$.$.0.t.y.! x 4 ; # P.P.P.P.P.",
"P.P.P.P.P.P.+ + + + $ s ] m.v.p.,.%.$.%.%.%.%.>.<.:.T 8 # o P.P.P.P.P.P.",
"P.P.P.P.P.P.P.+ . . + 9 L  .6.8.p.e.>.%.O.0.>.>.~ T g 3 o P.P.P.P.P.P.P.",
"P.P.P.P.P.P.P.P.. . + # 9 J _ 6.x.f.q.%.0.0.<.~ I a 8 % P.P.P.P.P.P.P.P.",
"P.P.P.P.P.P.P.P.P.. o + # > J X.m.x.e.%.0.w.3.R d ; # P.P.P.P.P.P.P.P.P.",
"P.P.P.P.P.P.P.P.P.o X . . # 9 ( 9.l.p.q.0.:.{ G 4 O . P.P.P.P.P.P.P.P.P.",
"P.P.P.P.P.P.P.P.P.P.+ .   + : h ( ..8.s.1.` G a : o P.P.P.P.P.P.P.P.P.P.",
"P.P.P.P.P.P.P.P.P.P.P..   + # : w / 6.l...H 8 : $ P.P.P.P.P.P.P.P.P.P.P.",
"P.P.P.P.P.P.P.P.P.P.P.P.+ + . + & h ..n. .f % o P.P.P.P.P.P.P.P.P.P.P.P.",
"P.P.P.P.P.P.P.P.P.P.P.P.P.. . . + 9 P  .( q # P.P.P.P.P.P.P.P.P.P.P.P.P.",
"P.P.P.P.P.P.P.P.P.P.P.P.P.P..   + & w J n , P.P.P.P.P.P.P.P.P.P.P.P.P.P.",
"P.P.P.P.P.P.P.P.P.P.P.P.P.P.P.. . # & : > P.P.P.P.P.P.P.P.P.P.P.P.P.P.P.",
"P.P.P.P.P.P.P.P.P.P.P.P.P.P.P.o X + + + + P.P.P.P.P.P.P.P.P.P.P.P.P.P.P.",
"P.P.P.P.P.P.P.P.P.P.P.P.P.P.P.o X . .     P.P.P.P.P.P.P.P.P.P.P.P.P.P.P."
};
