/* XPM */
static char *result[] = {
/* columns rows colors chars-per-pixel */
"36 36 178 2 ",
"   c #3B2F49",
".  c #3E354D",
"X  c #3F3750",
"o  c #3F3851",
"O  c #3F3C61",
"+  c #403B55",
"@  c #413E5A",
"#  c #42425B",
"$  c #434365",
"%  c #464C66",
"&  c #494E64",
"*  c #42446C",
"=  c #454A69",
"-  c #4B5166",
";  c #47506A",
":  c #4C556B",
">  c #4E596D",
",  c #434674",
"<  c #454B75",
"1  c #454D7B",
"2  c #475076",
"3  c #485474",
"4  c #4A5B75",
"5  c #49557C",
"6  c #4B5E78",
"7  c #515E71",
"8  c #4D617B",
"9  c #536375",
"0  c #52657A",
"q  c #566A7D",
"w  c #586D7E",
"e  c #464E81",
"r  c #475180",
"t  c #485281",
"y  c #46528B",
"u  c #48548C",
"i  c #4C5F8A",
"p  c #4A5A83",
"a  c #475697",
"s  c #485792",
"d  c #495994",
"f  c #4A5C9E",
"g  c #4E6983",
"h  c #4E6489",
"j  c #4F6C8A",
"k  c #516E87",
"l  c #516F88",
"z  c #5B7385",
"x  c #53748D",
"c  c #5C7788",
"v  c #57788E",
"b  c #5E7888",
"n  c #4E6693",
"m  c #4C629F",
"M  c #4F6A9F",
"N  c #51679B",
"B  c #527590",
"V  c #5E7F91",
"C  c #567F99",
"Z  c #5E7E9B",
"A  c #557B95",
"S  c #617F8E",
"D  c #495DA6",
"F  c #4D64A6",
"G  c #4E68A1",
"H  c #4C63AC",
"J  c #516DA0",
"K  c #506AAE",
"L  c #5170A4",
"P  c #5477AA",
"I  c #567AAD",
"U  c #4C64B3",
"Y  c #4E68B7",
"T  c #4E6BBB",
"R  c #4C67BB",
"E  c #516DB5",
"W  c #557AB1",
"Q  c #5779BA",
"!  c #4F6DC2",
"~  c #506EC0",
"^  c #4F70C5",
"/  c #5173C2",
"(  c #557BC4",
")  c #5379C8",
"_  c #5E8091",
"`  c #56819C",
"'  c #58839C",
"]  c #638492",
"[  c #668895",
"{  c #628B9C",
"}  c #6A929E",
"|  c #5886A0",
" . c #5A89A3",
".. c #5983AE",
"X. c #5A8EA9",
"o. c #5D92AC",
"O. c #5A8EB0",
"+. c #5780BF",
"@. c #5A85BC",
"#. c #5E97B2",
"$. c #5E9AB5",
"%. c #6E9BA6",
"&. c #6397AC",
"*. c #6087B1",
"=. c #609AB3",
"-. c #609FB9",
";. c #66A1B6",
":. c #6AA3B4",
">. c #69A9BE",
",. c #63A3BC",
"<. c #71A5B1",
"1. c #76ACB5",
"2. c #72AEBB",
"3. c #7AB5BD",
"4. c #5781C5",
"5. c #5983C5",
"6. c #5C8CC7",
"7. c #5984CB",
"8. c #5B8BC9",
"9. c #5E93CA",
"0. c #5F98D0",
"q. c #628FC9",
"w. c #6294C6",
"e. c #6395CC",
"r. c #629DCD",
"t. c #699FCF",
"y. c #6596D0",
"u. c #629ED2",
"i. c #62A6C1",
"p. c #64ABC5",
"a. c #64A2CE",
"s. c #65ACCC",
"d. c #6CA7C5",
"f. c #66B2CD",
"g. c #6AB5CE",
"h. c #7DBCC4",
"j. c #65A6D2",
"k. c #6BA3D2",
"l. c #65ABD0",
"z. c #6CACD2",
"x. c #70AED3",
"c. c #67B4D3",
"v. c #69B5D3",
"b. c #67B8D4",
"n. c #6ABBD4",
"m. c #6BBDD9",
"M. c #71B4D4",
"N. c #78B7D6",
"B. c #72BDD5",
"V. c #7CBDD4",
"C. c #7BBDDA",
"Z. c #6CC0D9",
"A. c #74C1D4",
"S. c #74C3D8",
"D. c #7DC3DB",
"F. c #76CADC",
"G. c #7BCCDC",
"H. c #7DD1DE",
"J. c #7FD3E0",
"K. c #84CBCF",
"L. c #81C4C9",
"P. c #80C5DD",
"I. c #81CBDC",
"U. c #81CBD2",
"Y. c #89D3D6",
"T. c #83D3DD",
"R. c #89D7DC",
"E. c #8AD9DE",
"W. c #82D4E1",
"Q. c #85DAE3",
"!. c #8CDEE2",
"~. c #8EE1E4",
"^. c #8DE4E8",
"/. c #91E5E5",
"(. c #93E9E6",
"). c #90E6E8",
"_. c #92EAEB",
"`. c None",
/* pixels */
"`.`.`.`.`.`.o o o X . . .   . .         . . . .     .       `.`.`.`.`.`.",
"`.`.`.`.`.`.o o o o o + + + + + + + + + + o o o o o o # o + `.`.`.`.`.`.",
"`.`.`.`.`.`.. + o $ $ = % $ % = & : : : : ; ; & : : > > > : `.`.`.`.`.`.",
"`.`.`.`.`.. . X # < p i h h j j x v _ ] _ v x v _ [ [ [ ] c > `.`.`.`.`.",
"`.`.`.`.o . . + = i L I I ....O.#.;.2.3.2.;.$.;.2.3.h.h.3.} 9 + `.`.`.`.",
"`.`.`.X o o o # 5 J +.6.w.w.a.l.g.A.T.R.U.A.n.A.H.R.E.~.Y.1.z - + `.`.`.",
"`.`.+ . o @ $ 5 n W 8.0.u.j.c.m.F.J.^.^.^.H.G.J.T.~.~._.~.L.} w 7 - `.`.",
". + X . + = 5 n I @.9.u.j.l.B.F.W.!.^.^.~.Q.J.J.H.H.E.^./.Y.3.%.] 9 # . ",
"+ X . . o 2 n W @.8.9.j.l.v.S.H.Q.~.~./.~.~.!.T.F.Z.G.Q.~.!.Y.L.%.q #   ",
". + X . o 5 G 5.8.9.9.0.a.v.S.T././././././.~.W.A.n.A.I.Q.~.).Y.<.w #   ",
"X + . X o 1 M ( 7.7.8.9.0.f.S.T.~./././././.~.I.B.z.v.S.G.Q.Q.H.:.0 + . ",
"X X X X o < m Q ) ) ( 5.9.j.N.T.!.(././././.~.I.v.j.l.v.S.F.G.A.&.0 #   ",
"X + + . + = f T ^ ^ / ( 8.r.M.I.!./././././.!.I.c.a.a.l.n.Z.Z.f.X.8 # . ",
"+ . . . o < f T ^ T T / 5.e.z.I.~./././././.~.I.z.r.r.l.c.n.m.f.X.8 + . ",
". X . . @ < D T ^ ! ! ( 4.9.z.I.!.(./././.(.!.I.x.u.r.s.b.b.Z.f.X.6 @   ",
"X + + . o 1 f T ! ! ! ^ 4.6.z.D.!././.~./.(.!.I.x.r.r.l.b.m.m.f.X.6 # . ",
". + + . + , d U T T ! / Q 6.k.P.!./././././.~.I.M.t.j.l.c.b.f.,.' 6 # . ",
"+ . . + + $ e d H T ! / / ( t.P.!./././././.!.I.N.j.j.c.c.p.$. .x 3 + . ",
"`.`.+ . o @ * 1 s H ~ ! / ( y.V.~./././././.~.I.B.c.l.m.b.-.` g 4 & `.`.",
"`.`.`.X o o o # 1 f T ~ ~ / y.D.E./././././.~.R.S.n.b.b.s.o.g % # `.`.`.",
"`.`.`.o o . . + * u F U Y ~ y.D.~.(.(.~././.~.W.F.b.f.p.$.` 4 +   `.`.`.",
"`.`.`.`.+ . . + O < y D U / y.C.~.(./.~./././.Q.F.b.i.o.A 0 ; o `.`.`.`.",
"`.`.`.`.`.. X . + O * y D / y.C.!.(././././.~.W.G.b.$.B 6 ; # `.`.`.`.`.",
"`.`.`.`.`.`.+ + + . @ , a E q.N.R.~./.~././.!.Y.A.p. .8 # o `.`.`.`.`.`.",
"`.`.`.`.`.`.`.o   + + $ 1 m Q d.D.I.!.~.~.~.R.A.>.o.x : o `.`.`.`.`.`.`.",
"`.`.`.`.`.`.`.`.+ .   + * r N @.t.C.I.~.~.Q.G.p.' l 8 % `.`.`.`.`.`.`.`.",
"`.`.`.`.`.`.`.`.`.+ + + + $ r F ( k.P.E.Q.H.n.o.l ; # `.`.`.`.`.`.`.`.`.",
"`.`.`.`.`.`.`.`.`.  +   + + * y E w.A.E.T.A.i.` 8 # . `.`.`.`.`.`.`.`.`.",
"`.`.`.`.`.`.`.`.`.`.+ +   X O , d *.V.R.K.:.' g ; o `.`.`.`.`.`.`.`.`.`.",
"`.`.`.`.`.`.`.`.`.`.`.+ + + X + 2 Z h.R.h.{ 8 : $ `.`.`.`.`.`.`.`.`.`.`.",
"`.`.`.`.`.`.`.`.`.`.`.`.+ + +   @ S 1.K.3.c % o `.`.`.`.`.`.`.`.`.`.`.`.",
"`.`.`.`.`.`.`.`.`.`.`.`.`.  + + + 7 } 1.} q # `.`.`.`.`.`.`.`.`.`.`.`.`.",
"`.`.`.`.`.`.`.`.`.`.`.`.`.`.. . + & w S S > `.`.`.`.`.`.`.`.`.`.`.`.`.`.",
"`.`.`.`.`.`.`.`.`.`.`.`.`.`.`.. + # & : : `.`.`.`.`.`.`.`.`.`.`.`.`.`.`.",
"`.`.`.`.`.`.`.`.`.`.`.`.`.`.`.o X + + + + `.`.`.`.`.`.`.`.`.`.`.`.`.`.`.",
"`.`.`.`.`.`.`.`.`.`.`.`.`.`.`.o X . .     `.`.`.`.`.`.`.`.`.`.`.`.`.`.`."
};
