/* XPM */
static char *result[] = {
/* columns rows colors chars-per-pixel */
"36 36 172 2 ",
"   c #3B2F49",
".  c #3E354D",
"X  c #3E3751",
"o  c #3F3851",
"O  c #403B55",
"+  c #413E5A",
"@  c #413E62",
"#  c #43425B",
"$  c #47495F",
"%  c #434465",
"&  c #454C66",
"*  c #4A4E64",
"=  c #43456C",
"-  c #454B69",
";  c #4C5266",
":  c #47506A",
">  c #4D566B",
",  c #4E596D",
"<  c #444771",
"1  c #454B75",
"2  c #444B7A",
"3  c #475076",
"4  c #485277",
"5  c #4A5A74",
"6  c #49557C",
"7  c #4B5F79",
"8  c #515E71",
"9  c #4E627B",
"0  c #546375",
"q  c #546578",
"w  c #566A7D",
"e  c #586D7E",
"r  c #464F81",
"t  c #4A5A83",
"y  c #47538A",
"u  c #48548C",
"i  c #4C5F8A",
"p  c #485691",
"a  c #4A5A95",
"s  c #4A5C9D",
"d  c #4C6580",
"f  c #4F6983",
"g  c #4E6289",
"h  c #4F688A",
"j  c #596F80",
"k  c #516D8B",
"l  c #5B7384",
"z  c #51728C",
"x  c #5C7788",
"c  c #5D7B8C",
"v  c #4E6693",
"b  c #4C629F",
"n  c #4F6A9F",
"m  c #567C96",
"M  c #597599",
"N  c #547D99",
"B  c #607E8E",
"V  c #4A5DA0",
"C  c #4B60A5",
"Z  c #4E68A1",
"A  c #4D64AC",
"S  c #4E69AF",
"D  c #516DA0",
"F  c #5170A4",
"G  c #5576AB",
"H  c #567AAD",
"J  c #4D66B4",
"K  c #4E69B3",
"L  c #4E6BBC",
"P  c #506FBC",
"I  c #557AB1",
"U  c #5274BC",
"Y  c #4F6EC2",
"T  c #506EC0",
"R  c #5173C3",
"E  c #557BC4",
"W  c #547CC8",
"Q  c #5F8092",
"!  c #5A849B",
"~  c #63828F",
"^  c #648594",
"/  c #668C9D",
"(  c #688E99",
")  c #6A929E",
"_  c #5785A0",
"`  c #5A8CA6",
"'  c #5984AE",
"]  c #598CA8",
"[  c #5D92AB",
"{  c #5780BF",
"}  c #5985BD",
"|  c #5D94B2",
" . c #5E99B3",
".. c #6A96A7",
"X. c #6E9BA6",
"o. c #6296AB",
"O. c #709FA8",
"+. c #619DB7",
"@. c #689EB0",
"#. c #6AA1B3",
"$. c #66A3B8",
"%. c #68A8BD",
"&. c #71A5B1",
"*. c #75AAB4",
"=. c #72A7B8",
"-. c #75AEBA",
";. c #7AB5BC",
":. c #7DB9BF",
">. c #5780C5",
",. c #5985C6",
"<. c #5C8CC7",
"1. c #5784C8",
"2. c #5985CA",
"3. c #5B8CC9",
"4. c #5F94CA",
"5. c #6396C6",
"6. c #6096CB",
"7. c #629ACC",
"8. c #619CD1",
"9. c #6FA5C0",
"0. c #64A8C1",
"q. c #63A1CE",
"w. c #64A9CE",
"e. c #6FABCF",
"r. c #73AFCA",
"t. c #66B2CD",
"y. c #69B5CE",
"u. c #76B2C3",
"i. c #7DBAC1",
"p. c #74B3CE",
"a. c #73BCCC",
"s. c #7FBFC8",
"d. c #65A5D2",
"f. c #6BA7D2",
"g. c #65ACD1",
"h. c #6DAAD2",
"j. c #70AFD4",
"k. c #67B3D2",
"l. c #68B5D3",
"z. c #69BBD6",
"x. c #6BBED8",
"c. c #71B2D5",
"v. c #72BED3",
"b. c #7BBED1",
"n. c #75B9DB",
"m. c #7FC6CE",
"M. c #6FC3D9",
"N. c #72C1D6",
"B. c #7CC0D4",
"V. c #74C5D9",
"C. c #7CC3DB",
"Z. c #76CADD",
"A. c #7BCDDB",
"S. c #7DD1DE",
"D. c #77CDE0",
"F. c #81C5CC",
"G. c #81CCDC",
"H. c #84CCD2",
"J. c #87D0D3",
"K. c #89D4D7",
"L. c #83D3DC",
"P. c #89D7DB",
"I. c #8CDBDE",
"U. c #83D3E2",
"Y. c #85D9E2",
"T. c #8CDEE3",
"R. c #8EE2E4",
"E. c #89E1E8",
"W. c #92E5E5",
"Q. c #91E7E8",
"!. c #94EBEA",
"~. c None",
/* pixels */
"~.~.~.~.~.~.o o o . . . . . . . . . .   . .   .             ~.~.~.~.~.~.",
"~.~.~.~.~.~.o o o o o o o o o O o o O O o o o o + o O + # o ~.~.~.~.~.~.",
"~.~.~.~.~.~.. O o % % - - - - - : : & : : > , , , , , , > > ~.~.~.~.~.~.",
"~.~.~.~.~.. . X # 1 t i g g h z z z z z c Q ^ ^ ^ ^ ^ ^ ^ x , ~.~.~.~.~.",
"~.~.~.~.o . . O - g F H H ' ' | |  . . .$.-.:.i.:.:.:.:.;.) 0 O ~.~.~.~.",
"~.~.~.O o o o # 6 Z { 3.4.5.7.g.t.t.t.y.v.A.P.I.I.I.W.R.K.*.l ; O ~.~.~.",
"~.~.X . o # % 6 h I 3.6.8.d.g.l.z.z.M.x.V.S.Y.E.W.Q.!.!.R.s.) e 8 ; ~.~.",
"o o o X O % 6 v G ,.4.d.d.g.l.z.z.z.z.x.M.Z.S.Y.R.Q.!.!.W.J.;.O.~ 0 # . ",
"o o . . o 3 n I } 3.4.d.g.k.k.z.l.z.l.l.z.z.v.A.P.R.W.W.R.T.K.F.O.w #   ",
"o o X . o 3 n { 3.3.4.7.g.k.k.k.k.k.k.k.k.k.l.V.L.E.W.W.W.R.R.K.#.w #   ",
"O X X . + 3 Z E 2.2.3.4.d.w.g.g.g.g.g.g.g.w.g.v.L.R.W.W.R.E.E.S.#.w +   ",
"X . O X o 1 b U W E E ,.6.7.w.w.q.w.q.q.q.7.q.v.G.R.W.W.W.T.Y.N.o.9 # . ",
"X O . . O 1 s L Y Y T W 3.6.6.7.4.7.7.7.6.6.7.c.G.R.W.W.R.Y.A.y.] 9 o . ",
"O . O . O 1 s L Y Y Y E ,.4.6.6.4.6.6.7.6.4.7.c.G.W.W.W.T.Y.Z.y.] 9 # . ",
". . O . O 1 V L Y Y Y W ,.3.4.6.6.6.6.6.6.6.7.j.G.I.W.W.R.Y.D.k.] 7 o . ",
"X O . . o 1 s L Y Y Y R >.,.4.4.6.7.6.7.6.6.7.c.G.R.Q.W.R.Y.Z.y.] 7 #   ",
". O O . o < a A L L Y R E ,.,.4.6.7.6.7.6.6.7.c.G.T.Q.R.T.S.v.%.! 7 o . ",
"O . . O O % r a A L Y R E W ,.4.6.7.7.6.6.6.7.c.G.T.R.T.L.v.$.` z 5 # . ",
"~.~.X X o @ = 2 p A L Y R E >.3.4.7.7.6.6.6.7.c.G.T.T.Y.V.%.! d 5 & ~.~.",
"~.~.~.X o o o % 2 s L Y Y U E 3.6.7.7.7.6.6.q.c.G.T.T.Z.y.[ f & # ~.~.~.",
"~.~.~.o o o . O = u A J L Y E 3.4.6.6.7.6.4.7.c.G.I.K.y.$.N 5 O . ~.~.~.",
"~.~.~.~.o . . o % < y s J Y E 2.4.4.6.6.6.4.7.c.Y.R.m.#.m 9 - o ~.~.~.~.",
"~.~.~.~.~.X o o o % < y C L E ,.3.4.4.6.6.4.q.c.U.Y.:.Q 7 & # ~.~.~.~.~.",
"~.~.~.~.~.~.o o o o o < a J R >.,.3.4.4.6.7.d.c.G.H.&.l $ o ~.~.~.~.~.~.",
"~.~.~.~.~.~.~.o . . X % r s K U E ,.3.6.7.f.j.p.u.*.( 0 O ~.~.~.~.~.~.~.",
"~.~.~.~.~.~.~.~.O . O O = r a K E W 2.<.f.n.C.u...B e > ~.~.~.~.~.~.~.~.",
"~.~.~.~.~.~.~.~.~.. O . o = 2 V U E E <.f.C.H.-.B , $ ~.~.~.~.~.~.~.~.~.",
"~.~.~.~.~.~.~.~.~.O . O o O < p A U >.6.j.b.F.O.w #   ~.~.~.~.~.~.~.~.~.",
"~.~.~.~.~.~.~.~.~.~.O .   O @ @ p G 5.j.r.=.X.~ 8 O ~.~.~.~.~.~.~.~.~.~.",
"~.~.~.~.~.~.~.~.~.~.~.O O O @ + 3 M =.b.u./ e 8 * ~.~.~.~.~.~.~.~.~.~.~.",
"~.~.~.~.~.~.~.~.~.~.~.~.O O O   % l =.F.*.x * O ~.~.~.~.~.~.~.~.~.~.~.~.",
"~.~.~.~.~.~.~.~.~.~.~.~.~.  O O O q ( -.X.w O ~.~.~.~.~.~.~.~.~.~.~.~.~.",
"~.~.~.~.~.~.~.~.~.~.~.~.~.~.. . O ; e ~ B , ~.~.~.~.~.~.~.~.~.~.~.~.~.~.",
"~.~.~.~.~.~.~.~.~.~.~.~.~.~.~.. O # * > > ~.~.~.~.~.~.~.~.~.~.~.~.~.~.~.",
"~.~.~.~.~.~.~.~.~.~.~.~.~.~.~.o X O O O O ~.~.~.~.~.~.~.~.~.~.~.~.~.~.~.",
"~.~.~.~.~.~.~.~.~.~.~.~.~.~.~.o X . .     ~.~.~.~.~.~.~.~.~.~.~.~.~.~.~."
};
