/* XPM */
static char *result[] = {
/* columns rows colors chars-per-pixel */
"36 36 156 2 ",
"   c #3A2D47",
".  c #3B2F49",
"X  c #3E354D",
"o  c #3F3751",
"O  c #3F3851",
"+  c #403B55",
"@  c #413D5C",
"#  c #413F61",
"$  c #43425B",
"%  c #424365",
"&  c #464961",
"*  c #494C61",
"=  c #43456C",
"-  c #454A69",
";  c #4B5166",
":  c #47516A",
">  c #4C556B",
",  c #4E596D",
"<  c #505A6D",
"1  c #444671",
"2  c #454B75",
"3  c #454C7B",
"4  c #475076",
"5  c #485277",
"6  c #47507C",
"7  c #49557C",
"8  c #4B5F79",
"9  c #515D71",
"0  c #536375",
"q  c #556679",
"w  c #57697B",
"e  c #596D7E",
"r  c #464F81",
"t  c #4A5A83",
"y  c #47538A",
"u  c #48558E",
"i  c #4C5F8A",
"p  c #485791",
"a  c #495A96",
"s  c #4A5C9D",
"d  c #4E6289",
"f  c #4F688A",
"g  c #506F87",
"h  c #596F80",
"j  c #516D8B",
"k  c #5C7585",
"l  c #52728C",
"z  c #5C798B",
"x  c #4E6693",
"c  c #4C619F",
"v  c #4F6A9F",
"b  c #567F9B",
"n  c #607E8E",
"m  c #4A5DA0",
"M  c #4C61A6",
"N  c #4E68A1",
"B  c #4D64AC",
"V  c #4E69AF",
"C  c #516DA0",
"Z  c #506FAD",
"A  c #5170A4",
"S  c #5477AA",
"D  c #567AAD",
"F  c #4D66B4",
"G  c #4E69B3",
"H  c #4E6BBC",
"J  c #506FBC",
"K  c #557AB1",
"L  c #5172BB",
"P  c #4F6EC2",
"I  c #506EC0",
"U  c #5173C3",
"Y  c #557BC4",
"T  c #5379C8",
"R  c #5F8092",
"E  c #58859E",
"W  c #638392",
"Q  c #658896",
"!  c #698F9A",
"~  c #6A929E",
"^  c #5783AC",
"/  c #5984AE",
"(  c #5E94AE",
")  c #5781BD",
"_  c #5985BD",
"`  c #5D95B2",
"'  c #5E99B2",
"]  c #638EA3",
"[  c #6994A2",
"{  c #6E9BA5",
"}  c #609EBB",
"|  c #72A2AC",
" . c #68A2B6",
".. c #65A0BD",
"X. c #73A7B0",
"o. c #76ABB4",
"O. c #73AEBB",
"+. c #76B4BF",
"@. c #7AB5BD",
"#. c #5781C6",
"$. c #5985C6",
"%. c #5B8CC7",
"&. c #5782C9",
"*. c #5985CA",
"=. c #5B8CC9",
"-. c #5C91C7",
";. c #5E92CA",
":. c #5F9ACD",
">. c #6097C7",
",. c #609EC5",
"<. c #6197CC",
"1. c #6199CC",
"2. c #629DD1",
"3. c #63A2CE",
"4. c #64AACD",
"5. c #6CAACA",
"6. c #73AFC2",
"7. c #66B2CE",
"8. c #68B5CE",
"9. c #7DBBC3",
"0. c #65A6D2",
"q. c #65ABD1",
"w. c #6BACD4",
"e. c #67B3D2",
"r. c #6AB5D4",
"t. c #69BBD5",
"y. c #6BBED8",
"u. c #70B1D3",
"i. c #72BFD2",
"p. c #70BDD9",
"a. c #79C1CD",
"s. c #6FC2D9",
"d. c #73C2D6",
"f. c #7DC6D0",
"g. c #74C4DA",
"h. c #7EC7D9",
"j. c #76CADB",
"k. c #7CCDDB",
"l. c #7DD1DE",
"z. c #7DCDE0",
"x. c #81C4C9",
"c. c #82C8CE",
"v. c #83CAD2",
"b. c #89D3D6",
"n. c #82D2DB",
"m. c #89D7DB",
"M. c #8BDADD",
"N. c #80D5E1",
"B. c #86DCE4",
"V. c #8CDEE1",
"C. c #8EE1E4",
"Z. c #8EE4E8",
"A. c #90E4E5",
"S. c #92E7E8",
"D. c #91E9EB",
"F. c None",
/* pixels */
"F.F.F.F.F.F.O O O o X X X X . X . . X . X X . X . .   . . . F.F.F.F.F.F.",
"F.F.F.F.F.F.O O O O O + O o + + + + + + O O O + + O + + + + F.F.F.F.F.F.",
"F.F.F.F.F.F.X + O % % - - - - - : ; ; ; : : : : > , , , , > F.F.F.F.F.F.",
"F.F.F.F.F.X X X $ 2 t i d d f l l l l l l l l b R Q Q Q W z , F.F.F.F.F.",
"F.F.F.F.+ X X + - i A D D ^ / ` ` ' ' ' ' ' '  .+.@.9.9.@.~ 0 $ F.F.F.F.",
"F.F.F.O o O O $ 7 C ) =.-.:.1.4.7.7.7.7.7.7.7.s.k.m.V.C.b.o.k * + F.F.F.",
"F.F.O o O $ % 5 x K =.<.2.0.q.r.t.t.s.t.t.t.s.s.l.M.A.D.V.a.~ e < ; F.F.",
"O O O X + % t x S _ ;.0.0.w.r.t.t.y.t.y.t.t.t.s.j.l.M.A.A.b.@.{ W 0 $   ",
"O O X X O 5 x K $.%.:.3.q.e.e.t.t.t.8.t.8.r.t.t.t.s.k.B.V.V.m.x.| w $   ",
"O O o X O 4 N #.%.-.;.1.q.r.e.e.e.e.e.e.e.e.e.q.e.8.i.n.V.A.S.m.o.e $ + ",
"o o X o @ 5 N Y *.*.=.;.3.4.q.q.q.q.0.4.q.q.q.q.4.4.t.g.n.B.D.V.o.e $ . ",
"+ o o o O 4 c L T T Y $.1.3.3.3.3.3.3.3.3.0.3.3.3.3.q.t.g.N.C.M.o.e $ . ",
"X + X X $ - s H P U U Y =.1.1.1.:.1.1.1.1.1.1.1.:.:.3.e.t.k.B.M.o.e $   ",
"o o + X O 2 s H P P I Y *.;.<.<.:.<.<.1.<.<.1.<.;.:.3.4.r.j.B.M.o.e $ + ",
"o X + X O 3 s H P P P U $.=.;.<.<.<.<.<.<.<.<.<.<.1.3.4.e.z.B.V.o.e @ X ",
"o + X X O 3 s H P P P U #.=.=.<.<.<.1.1.<.1.<.<.<.1.3.0.t.j.B.M.o.e $ . ",
"+ X + X + 1 a B H H P U Y $.%.;.<.1.1.<.1.<.1.<.1.1.0.e.t.j.n.c.| e $ . ",
"X + X + + = 3 a M H P U Y Y $.;.<.1.1.1.<.1.1.1.1.0.e.g.g.a.@.| Q q $ . ",
"F.F.o X o @ = 3 p B H P U Y #.=.<.1.1.<.1.<.1.1.3.r.p.l.n.9.[ k q > F.F.",
"F.F.F.O O O + @ 3 m H P P U Y %.<.1.1.<.<.1.1.3.q.r.g.n.n.o.z ; $ F.F.F.",
"F.F.F.+ O o X + = y M F H P T %.<.<.1.<.<.<.1.q.r.d.f.f.9.{ q +   F.F.F.",
"F.F.F.F.O X X + % 2 y m F P Y *.%.;.<.<.<.<.1.w.g.j.a.X.~ z < + F.F.F.F.",
"F.F.F.F.F.o o O O % 1 y M P T $.=.;.<.<.<.1.1.u.z.n.@.Q q < $ F.F.F.F.F.",
"F.F.F.F.F.F.O O O O O 2 a G L #.$.%.;.<.;.1.1.u.v.v.| n $ + F.F.F.F.F.F.",
"F.F.F.F.F.F.F.O o X + % r s V L Y *.=.;.:.0.3.5.5.o.! 0 + F.F.F.F.F.F.F.",
"F.F.F.F.F.F.F.F.X X o + = r a V Y &.=.-.:.0.q...] n w < F.F.F.F.F.F.F.F.",
"F.F.F.F.F.F.F.F.F.o O O @ % r M H T #.%.:.0.4.` l , * F.F.F.F.F.F.F.F.F.",
"F.F.F.F.F.F.F.F.F.O O + X + 1 p B L Y $.-.,.' E 8 $ . F.F.F.F.F.F.F.F.F.",
"F.F.F.F.F.F.F.F.F.F.O X X O $ 3 p M L L L / E l : + F.F.F.F.F.F.F.F.F.F.",
"F.F.F.F.F.F.F.F.F.F.F.X o O O % 2 u V L S x 8 > $ F.F.F.F.F.F.F.F.F.F.F.",
"F.F.F.F.F.F.F.F.F.F.F.F.O O o O @ 3 N G s 6 $ $ F.F.F.F.F.F.F.F.F.F.F.F.",
"F.F.F.F.F.F.F.F.F.F.F.F.F.O X o O = y s p 1 + F.F.F.F.F.F.F.F.F.F.F.F.F.",
"F.F.F.F.F.F.F.F.F.F.F.F.F.F.X X O $ 2 3 3 % F.F.F.F.F.F.F.F.F.F.F.F.F.F.",
"F.F.F.F.F.F.F.F.F.F.F.F.F.F.F.o O + # % # F.F.F.F.F.F.F.F.F.F.F.F.F.F.F.",
"F.F.F.F.F.F.F.F.F.F.F.F.F.F.F.+ o O O O O F.F.F.F.F.F.F.F.F.F.F.F.F.F.F.",
"F.F.F.F.F.F.F.F.F.F.F.F.F.F.F.o o o o X o F.F.F.F.F.F.F.F.F.F.F.F.F.F.F."
};
