/* XPM */
static char *result[] = {
/* columns rows colors chars-per-pixel */
"32 32 7 1 ",
"  c #16121A",
". c #5633A8",
"X c #326DD9",
"o c #27ABFA",
"O c #79C8FA",
"+ c #E7F3F3",
"@ c None",
/* pixels */
"@@@@@@@@@@@@@@@@@@@@@@@@@@@@@@@@",
"@@@@@@@@@@@@@@@@@@@@@@@@@@@@@@@@",
"@@@@@@                    @@@@@@",
"@@@@@ OOOo++++++++++++++++ @@@@@",
"@@@@ O..XXO+ooOOOOOOO++OO++ @@@@",
"@@@ o..XXOO+ooOOOOOOO++OOO++ @@@",
"@@ O..XXOO+ooOOOOOOOOO++OOO++ @@",
"@ O..XXXOO+ooOOOOOOOOO++OOO+++ @",
" XOOoooo+++++++++++++++++++++++ ",
" XO..XXXOO+XXooooooooOO+OOO++++ ",
" Xo..XXXOO+XXooooooooOO+OOO++++ ",
" Xo..XXXOO+XXooooooooOO+OOO++++ ",
" Xo..XXXOO+XXooooooooOO+OOO++++ ",
" XO..XXXOO+XXooooooooOO+OOO++++ ",
" XOOOoooo+++OOOOOOOOO++++++++++ ",
"@ .o......+oooooooooooo+XXXoo+ @",
"@@ .oXXXX.+...XXXXXXooo+Xooo+ @@",
"@@@ ..XXXXo...XXXXXXoo+Xooo+ @@@",
"@@@@ ..XXX.+..XXXXXXoo+Xoo+ @@@@",
"@@@@@ ..XXXo...XXXXoo+XooO @@@@@",
"@@@@@@ ..XX.+..XXXXoOXoo+ @@@@@@",
"@@@@@@@ ..XXo..XXXoo+oo+ @@@@@@@",
"@@@@@@@@ ..X.+..XXoOXoO @@@@@@@@",
"@@@@@@@@@ ..Xo..Xoo+o+ @@@@@@@@@",
"@@@@@@@@@@ ..X+.Xo+o+ @@@@@@@@@@",
"@@@@@@@@@@@ ..o.oOoX @@@@@@@@@@@",
"@@@@@@@@@@@@ ..+o+X @@@@@@@@@@@@",
"@@@@@@@@@@@@@ .o+X @@@@@@@@@@@@@",
"@@@@@@@@@@@@@@ .X @@@@@@@@@@@@@@",
"@@@@@@@@@@@@@@@  @@@@@@@@@@@@@@@",
"@@@@@@@@@@@@@@@@@@@@@@@@@@@@@@@@",
"@@@@@@@@@@@@@@@@@@@@@@@@@@@@@@@@"
};
