/* XPM */
static char *result[] = {
/* columns rows colors chars-per-pixel */
"64 64 7 1 ",
"  c #6E5967",
". c #926475",
"X c #AD707B",
"o c #B77F83",
"O c #C39490",
"+ c #D1B1A5",
"@ c #DCCABE",
/* pixels */
"XOOOO+++++OO+OOOOOOOOOOOOOOOOOX XOOOO+++++OO+OOOOOOOOOOOOOOOOOXX",
"OOOOOOOOOOOOOOOOOOOOOOOOOOOOOOO OOOOOOOOOOOOOOOOOOOOOOOOOOOOOOOO",
"OOOOOOOOOOOOOOOOOOOOXOXXXXXOO   OOOOOOOOOOOOOOOOOOOOXOXXXXXOO   ",
"OOOOOOOOOOOOOOOOOOOOO+O+++OOOOo OOOOOOOOOOOOOOOOOOOOO+O+++OOOOoo",
"OOOOOOOOOOOOOOOOOOOOOOOOOOOOOOO OOOOOOOOOOOOOOOOOOOOOOOOOOOOOOOO",
"OOOOOOOOOOOOOOOOOOOOOOOOOOOOOOO OOOOOOOOOOOOOOOOOOOOOOOOOOOOOOOO",
"XOOOOOOOOOOOOOOOOOOOOOOOOOOOOOX XOOOOOOOOOOOOOOOOOOOOOOOOOOOOOXX",
"                                                                ",
"+++OOOOOOOOOOOX XOOO+O+++++OOOOO+++OOOOOOOOOOOX XOOO+O+++++OOOOO",
"OOOOOOOOOOOOOOO OOOOOOOOOOOOOOOOOOOOOOOOOOOOOOO OOOOOOOOOOOOOOOO",
"OOOOOOOXXOXOO   OOOOOOOOOOOOOOOOOOOOOOOXXOXOO   OOOOOOOOOOOOOOOO",
"OOOOOO+O++OOOOo OOOOOOOOOOOOOOOOOOOOOO+O++OOOOo OOOOOOOOOOOOOOOO",
"OOOOOOOOOOOOOOO OOOOOOOOOOOOOOOOOOOOOOOOOOOOOOO OOOOOOOOOOOOOOOO",
"OOOOOOOOOOOOOOO OOOOOOOOOOOOOOOOOOOOOOOOOOOOOOO OOOOOOOOOOOOOOOO",
"OOOOOOOOOOOOOOX XOOOOOOOOOOOOOOOOOOOOOOOOOOOOOX XOOOOOOOOOOOOOOO",
"                                                                ",
"XOOO+O++@@@+O++OOOOOOOOOOOOOOOX XOOO+O++@@@+O++OOOOOOOOOOOOOOOXX",
"OOOOOOOOOOOOOOOOOOOOOOOOOOOOOOO OOOOOOOOOOOOOOOOOOOOOOOOOOOOOOOO",
"OOOOOOOOOOOOOOOOOOOOOOOOOOOOOOO OOOOOOOOOOOOOOOOOOOOOOOOOOOOOOOO",
"OOOOOOOOOOOOOOOOOOOOOOOOOOOOOOo OOOOOOOOOOOOOOOOOOOOOOOOOOOOOOoo",
"OOOOOOOOOOOOOOOOOOOOOOXXOXO     OOOOOOOOOOOOOOOOOOOOOOXXOXO     ",
"OOOOOOOOOOOOOOOOOOOOOOOO+O++OOO OOOOOOOOOOOOOOOOOOOOOOOO+O++OOOO",
"XOOOOOOOOOOOOOOOOOOOOOOOOOOOOOX XOOOOOOOOOOOOOOOOOOOOOOOOOOOOOXX",
"                                                                ",
"OOOOOOOOOOOOOOX XOOO+O+++@@@++OOOOOOOOOOOOOOOOX XOOO+O+++@@@++OO",
"OOOOOOOOOOOOOOO OOOOOOOOOOOOOOOOOOOOOOOOOOOOOOO OOOOOOOOOOOOOOOO",
"OOOOXXXOOXOO    OOOOOOoXXXXXXXXXXXXXXXXXXoOOOOO OOOOOOOOOOOOOOOO",
"OOOOO+OOO++O+Oo OOOOOoXXXXXXXXXXXXXXXXXXXXoOOOO OOOOOOOOOOOOOOOO",
"OOOOOOOOOOOOOOO OOOOOXXXXXXXXXXXXXXXXXXXXXXOOOO OOOOOOOOOOOOOOOO",
"OOOOOOOOOOOOOOO OOOOOXXXXXXX.      .XXXXXXXOOOO OOOOOOOOOOOOOOOO",
"OOOOOOOOOOOOOOX XOOOoXXXXXX.        .XXXXXXoOOX XOOOOOOOOOOOOOOO",
"                                                                ",
"XOOOO+++++OO+OOOOOOOoXXXX.            .XXXXoOOOOOOOOOOOOOOOOOOXX",
"OOOOOOOOOOOOOOOOOOOOOXXXXX            XXXXXOOOOOOOOOOOOOOOOOOOOO",
"OOOOOOOOOOOOOOOOOOOOOXXXXX.          .XXXXXOOOOOOOOOXOXXXXXOO   ",
"OOOOOOOOOOOOOOOOOOOOOXXXXXXXXX. .XXXXXXXXXXOOOOOOOOOO+O+++OOOOoo",
"OOOOOOOOOOOOOOOOOOOOOXXXXXXXXXX XXXXXXXXXXXOOOOOOOOOOOOOOOOOOOOO",
"OOOOOOOOOOOOOOOOOOOOOXXXXXXXXXX XXXXXXXXXXXOOOOOOOOOOOOOOOOOOOOO",
"XOOOOOOOOOOOOOOOOOOOoXXXXXXXXX. .XXXXXXXXXXoOOOOOOOOOOOOOOOOOOXX",
"                                                                ",
"+++OOOOOOOOOOOX XOOOOoXXXXXXXXXXXXXXXXXXXXoOOOX XOOO+O+++++OOOOO",
"OOOOOOOOOOOOOOO OOOOOOoXXXXXXXXXXXXXXXXXXoOOOOO OOOOOOOOOOOOOOOO",
"OOOOOOOXXOXOO   OOOOOOOOOOOOOOOOOOOOOOOOOOOOOOO OOOOOOOOOOOOOOOO",
"OOOOOO+O++OOOOo OOOOOOOOOOOOOOOOOOOOOOOXXOXO    OOOOOOOOOOOOOOOO",
"OOOOOOOOOOOOOOO OOOOOOOOOOOOOOOOOOOOOO+O++OOOOo OOOOOOOOOOOOOOOO",
"OOOOOOOOOOOOOOO OOOOOOOOOOOOOOOOOOOOOOOOOOOOOOO OOOOOOOOOOOOOOOO",
"OOOOOOOOOOOOOOX XOOOOOOOOOOOOOOOOOOOOOOOOOOOOOX XOOOOOOOOOOOOOOO",
"                                                                ",
"XOOO+O++@@@+O++OOOOOOOOOOOOOOOX XOOO+O++@@@+O++OOOOOOOOOOOOOOOXX",
"OOOOOOOOOOOOOOOOOOOOOOOOOOOOOOO OOOOOOOOOOOOOOOOOOOOOOOOOOOOOOOO",
"OOOOOOOOOOOOOOOOOOOOOOOOOOOOOOO OOOOOOOOOOOOOOOOOOOOOOOOOOOOOOOO",
"OOOOOOOOOOOOOOOOOOOOOOOOOOOOOOo OOOOOOOOOOOOOOOOOOOOOOOOOOOOOOoo",
"OOOOOOOOOOOOOOOOOOOOOOXXOXO     OOOOOOOOOOOOOOOOOOOOOOXXOXO     ",
"OOOOOOOOOOOOOOOOOOOOOOOO+O++OOO OOOOOOOOOOOOOOOOOOOOOOOO+O++OOOO",
"XOOOOOOOOOOOOOOOOOOOOOOOOOOOOOX XOOOOOOOOOOOOOOOOOOOOOOOOOOOOOXX",
"                                                                ",
"OOOOOOOOOOOOOOX XOOO+O+++@@@++OOOOOOOOOOOOOOOOX XOOO+O+++@@@++OO",
"OOOOOOOOOOOOOOO OOOOOOOOOOOOOOOOOOOOOOOOOOOOOOO OOOOOOOOOOOOOOOO",
"OOOOXXXOOXOO    OOOOOOOOOOOOOOOOOOOOXXXOOXOO    OOOOOOOOOOOOOOOO",
"OOOOO+OOO++O+Oo OOOOOOOOOOOOOOOOOOOOO+OOO++O+Oo OOOOOOOOOOOOOOOO",
"OOOOOOOOOOOOOOO OOOOOOOOOOOOOOOOOOOOOOOOOOOOOOO OOOOOOOOOOOOOOOO",
"OOOOOOOOOOOOOOO OOOOOOOOOOOOOOOOOOOOOOOOOOOOOOO OOOOOOOOOOOOOOOO",
"OOOOOOOOOOOOOOX XOOOOOOOOOOOOOOOOOOOOOOOOOOOOOX XOOOOOOOOOOOOOOO",
"OOOOOOOOOOOOOOX XOOOOOOOOOOOOOOOOOOOOOOOOOOOOOX XOOOOOOOOOOOOOOO"
};
