/* XPM */
static char *_c20f0233a784793d9b655ba1328301cFTNawt7CFu6kU7dw[] = {
/* columns rows colors chars-per-pixel */
"36 36 135 2 ",
"   c None",
".  c #3B2F4A",
"X  c #3E344C",
"o  c #3F3651",
"O  c #3F3851",
"+  c #403B55",
"@  c #413D59",
"#  c #413F63",
"$  c #43415A",
"%  c #434464",
"&  c #454A63",
"*  c #484B62",
"=  c #43446A",
"-  c #444869",
";  c #4A556D",
":  c #434771",
">  c #454B76",
",  c #464E7A",
"<  c #495575",
"1  c #4A5971",
"2  c #485479",
"3  c #4B5D79",
"4  c #4C627C",
"5  c #546376",
"6  c #50657C",
"7  c #566B7E",
"8  c #586D7F",
"9  c #464F81",
"0  c #4A5B84",
"q  c #475189",
"w  c #48558F",
"e  c #485792",
"r  c #495991",
"t  c #4A5C9B",
"y  c #5A6F80",
"u  c #5C7484",
"i  c #52758E",
"p  c #4F6794",
"a  c #4E6993",
"s  c #4C639F",
"d  c #4F699B",
"f  c #516D9E",
"g  c #537690",
"h  c #557D97",
"j  c #4F69A2",
"k  c #4C63AB",
"l  c #4E68AD",
"z  c #5474A2",
"x  c #577EA4",
"c  c #5171AF",
"v  c #4D67B2",
"b  c #4E69B5",
"n  c #4D67B8",
"m  c #4F6CBD",
"M  c #567CB1",
"N  c #5274BC",
"B  c #567EBA",
"V  c #4F6DC2",
"C  c #506EC1",
"Z  c #5173C2",
"A  c #557CC4",
"S  c #557BC8",
"D  c #678B98",
"F  c #5986A6",
"G  c #5A8CA6",
"H  c #5B8EA8",
"J  c #5A8CB4",
"K  c #5781BA",
"L  c #5887BF",
"P  c #5E97B6",
"I  c #5E98B7",
"U  c #5F9EB8",
"Y  c #6C95A1",
"T  c #6396AB",
"R  c #6498AC",
"E  c #609EB8",
"W  c #6DA1AF",
"Q  c #72A4AE",
"!  c #6DA3B1",
"~  c #75ABB3",
"^  c #5782C5",
"/  c #5986C6",
"(  c #5B89C5",
")  c #5986C9",
"_  c #5C8CC9",
"`  c #5E93C6",
"'  c #5E93CA",
"]  c #619FC5",
"[  c #6197CC",
"{  c #6199CC",
"}  c #6099D1",
"|  c #63A7C5",
" . c #64ABC6",
".. c #63A3CE",
"X. c #65ADCA",
"o. c #66B1CC",
"O. c #68B3CD",
"+. c #63A3D1",
"@. c #66ADD1",
"#. c #68ADD1",
"$. c #67B3D2",
"%. c #68B6D4",
"&. c #6ABBD6",
"*. c #6ABED8",
"=. c #71BDD1",
"-. c #6DC0D8",
";. c #73C1D4",
":. c #7ECBD6",
">. c #74C5DA",
",. c #77CCDD",
"<. c #79CADB",
"1. c #7CD1DF",
"2. c #78CEE0",
"3. c #81C1C6",
"4. c #86CFD4",
"5. c #88D1D5",
"6. c #82D1DB",
"7. c #87D5DA",
"8. c #82D3DE",
"9. c #82D4DE",
"0. c #8BD6D8",
"q. c #8DDCDE",
"w. c #81D6E1",
"e. c #85DBE3",
"r. c #87DCE4",
"t. c #8EDEE0",
"y. c #8CDEE2",
"u. c #88DFE7",
"i. c #8EE0E2",
"p. c #8FE2E3",
"a. c #8BE1E6",
"s. c #8FE2E4",
"d. c #8DE4E8",
"f. c #90E3E4",
"g. c #92EAEB",
/* pixels */
"                                                                        ",
"                                                                        ",
"                                                                        ",
"              O + X X X X X X X X . X X X X X . X . X . X               ",
"            O O O + @ + @ $ @ @ @ @ $ @ @ @ + $ $ $ $ $ $ $             ",
"          X X O @ - > < 2 < < 3 3 4 4 4 4 4 4 6 8 8 8 u 7 5 ;           ",
"        O X X + - 0 f f z z F F G G G G G G H T Q ~ ~ ~ Q D 5 +         ",
"      O O O O $ < f K ( ` [ { ..X.O.O.o. .o.O.;.:.0.t.t.5.~ u $ +       ",
"    X + O $ - 2 a M ` } +.+.$.%.*.*.*.*.&.*.-.>.1.e.d.g.f.3.Y u 5 ;     ",
"O O X X + - 0 f M ( ' } +.$.%.&.&.&.&.&.&.*.*.&.>.<.w.a.f.0.3.~ D 5 $ . ",
"O o X o $ > d B _ _ { ..@.$.%.%.%.%.&.%.%.%.%.%.%.&.>.8.t.a.t.4.Q 8 + X ",
"O o X o O , j A ) _ _ ' ..@.O.$.@.X.@.@.@.X.@.@.@.@.&.:.8.r.u.6.! 7 $ . ",
"O O + X + ; j m S S A / ' ....+...+.................#.&.>.<.2.;.R 6 $ . ",
"O O + X O : t n V V V A _ { { { ' { ..' { { { { { { +.@.&.&.-.O.G 4 $ X ",
"O o + X O , t m V V V S / ' ' [ [ [ { { [ [ [ [ [ [ ..@.$.*.*.O.G 4 + X ",
"O O X X O , s V V V V S ^ / ' ' [ { { ' { [ [ [ ' { ..X.$.*.*.$.H 4 @ X ",
"o o o o + : t b m C V Z A / _ ' { { [ { [ { [ { { { +.#.%.%.%. .G 3 $ X ",
"o + o O + % 9 t k n V Z A A / [ [ { { [ { [ { { { +.@.%.%.X.! H g 1 + X ",
"    O O O O % > e k m Z Z Z ^ _ [ { { { [ { { ..X.@.%.&.%.U h 0 1 &     ",
"      O O O O @ > t b V m Z A / [ { { [ [ [ { ..#.%.%.%. .G 4 & +       ",
"        + X X O % 9 t k n C S ) ' [ [ { [ [ { +.$.%. .R G i 1 O         ",
"          X X + O = > w k V S ^ _ ' [ { [ [ { +.&.%.U F 4 1 &           ",
"            o o O O @ > t b Z A ^ _ ' [ { { { ..X. .G 4 $ +             ",
"              o o o O # , t l N A ) _ ' { +...] I G i 1 $               ",
"                o X O + % , e l Z ^ / _ } @.@.I h 4 1 &                 ",
"                  O O O O @ : t b Z ^ ( ' ..| G 4 % +                   ",
"                    o o X O % 9 t l N ^ L J G g 1 O                     ",
"                      o X O @ % > r v N c a 4 1 &                       ",
"                        O O O O O , t b t , % +                         ",
"                          O o X O = 9 e q = o                           ",
"                            O X O # = : = %                             ",
"                              O O O O O @                               ",
"                                + X X X                                 ",
"                                                                        ",
"                                                                        ",
"                                                                        "
};
