/* XPM */
static char *result[] = {
/* columns rows colors chars-per-pixel */
"32 32 8 1 ",
"  c #16121A",
". c #333790",
"X c #5633A8",
"o c #326DD9",
"O c #27ABFA",
"+ c #79C8FA",
"@ c #E7F3F3",
"# c None",
/* pixels */
"################################",
"################################",
"######                    ######",
"##### ++@@@@@@@@@@@@@@@@@@ #####",
"#### oXoo@OO++++++++@++++@@ ####",
"### oXoo+@OO++++++++@+++++@@ ###",
"## +Xooo@OO++++++++++@+++++@@ ##",
"# +XXoo+@OO++++++++++@++++++@@ #",
"# +++@@@@@@@@@@@@@@@@@@@@@@@@@ #",
"# +XoooO@ooOOOOOOOO++@+++++@@@ #",
"# oXoooO@ooOOOOOOOO++@+++++@@@ #",
"# oXoooO@ooOOOOOOOO++@+++++@@@ #",
"# oXoooO@ooOOOOOOOO++@+++++@@@ #",
"# +XoooO@ooOOOOOOOO++@+++++@@@ #",
"# ++OOO@@@+++++++++@@@@@@@@@@@ #",
"# +XXXXXOXXOOOOOOOOOO@ooooooo@ #",
"## oXXoo@XXooooooooOO@ooOOOO@ ##",
"### oXoooOXooooooooOO@ooOOO@ ###",
"#### .Xoo@XXoooooooO+ooOOO@ ####",
"##### .XooOXooooooOO@oOOO@ #####",
"###### .XooOXoooooO+ooOO@ ######",
"####### .Xo@XooooOO@oOO@ #######",
"######## .XoOXoooO+oOO@ ########",
"######### .X@XoooO@OO+ #########",
"########## .XOXoO+oO@ ##########",
"########### .XOXO@O+ ###########",
"############ .@O+Oo ############",
"############# .O@o #############",
"############## .o ##############",
"###############  ###############",
"################################",
"################################"
};
