/* XPM */
static char *_715169a6d8942f5d6cf9c079080719b8F5usDfRSYpbvOS6[] = {
/* columns rows colors chars-per-pixel */
"64 64 168 2 ",
"   c None",
".  c #655363",
"X  c #6B5765",
"o  c #6E5967",
"O  c #6D5C6A",
"+  c #705967",
"@  c #735B69",
"#  c #7B5D6B",
"$  c #6D616F",
"%  c #7E636D",
"&  c #676575",
"*  c #6A6372",
"=  c #666877",
"-  c #636C7C",
";  c #6C6E7D",
":  c #766372",
">  c #7F6770",
",  c #716B77",
"<  c #736D7A",
"1  c #71707D",
"2  c #815F6E",
"3  c #885F6D",
"4  c #85616E",
"5  c #89626F",
"6  c #856270",
"7  c #8B6371",
"8  c #836972",
"9  c #8C6A72",
"0  c #936673",
"q  c #996772",
"w  c #956B73",
"e  c #9A6974",
"r  c #9F6A78",
"t  c #927176",
"y  c #937579",
"u  c #94787A",
"i  c #9A7A7C",
"p  c #A16C77",
"a  c #A56D79",
"s  c #AA6F7A",
"d  c #B46C77",
"f  c #A07579",
"g  c #AE707B",
"h  c #A47C7E",
"j  c #AA7C7E",
"k  c #B0717C",
"l  c #BD777D",
"z  c #B57D7F",
"x  c #BE797E",
"c  c #C9727D",
"v  c #C37B7F",
"b  c #5F7586",
"n  c #607383",
"m  c #667A8A",
"M  c #6C7D8C",
"N  c #717684",
"B  c #717C8A",
"V  c #B27F80",
"C  c #CC7F82",
"Z  c #71808E",
"A  c #658190",
"S  c #6B8594",
"D  c #718391",
"F  c #768A97",
"G  c #728E9B",
"H  c #7E8E98",
"J  c #81969F",
"K  c #A68684",
"L  c #AF8180",
"P  c #AB8A86",
"I  c #B18584",
"U  c #B68985",
"Y  c #B98A86",
"T  c #B68D88",
"R  c #BA8E89",
"E  c #BC948C",
"W  c #BE998F",
"Q  c #B79A94",
"!  c #BE9C92",
"~  c #BEA096",
"^  c #BEA59B",
"/  c #849EA6",
"(  c #BDACA3",
")  c #CD8183",
"_  c #C48D88",
"`  c #D68586",
"'  c #DD8486",
"]  c #DD8788",
"[  c #CD968E",
"{  c #D3938D",
"}  c #D9938D",
"|  c #D49990",
" . c #E48C8B",
".. c #EA8F8D",
"X. c #E4918D",
"o. c #EA9690",
"O. c #E19C92",
"+. c #E99D94",
"@. c #CCA094",
"#. c #D7A195",
"$. c #DBA195",
"%. c #DCAB9B",
"&. c #DFB39F",
"*. c #EDA599",
"=. c #E1AD9C",
"-. c #EBAB9C",
";. c #F1A297",
":. c #F1A79A",
">. c #F3AC9D",
",. c #E1B09E",
"<. c #F1B09E",
"1. c #CEB8AA",
"2. c #DFB5A1",
"3. c #E0B5A1",
"4. c #E9B3A0",
"5. c #E4B9A4",
"6. c #EDBEA7",
"7. c #ECBEAC",
"8. c #F5B5A3",
"9. c #F6BBA5",
"0. c #FBBDA6",
"q. c #F8BFA8",
"w. c #DFC1AD",
"e. c #DFC5B1",
"r. c #DFCAB6",
"t. c #DFCFBB",
"y. c #DFD0BC",
"u. c #E0C3AF",
"i. c #EEC1A8",
"p. c #F7C1A8",
"a. c #FBC3AA",
"s. c #FBCAAE",
"d. c #FBC9AD",
"f. c #FDC9AD",
"g. c #FCCBAF",
"h. c #FCCAAE",
"j. c #FECBAF",
"k. c #FCCCAF",
"l. c #FDCCAF",
"z. c #FCCDAF",
"x. c #FECCAF",
"c. c #FFCCAF",
"v. c #FCCBAE",
"b. c #F7C6B1",
"n. c #FBCDB1",
"m. c #FECDB0",
"M. c #FECCB0",
"N. c #FFCEB1",
"B. c #FECEB2",
"V. c #FACBB4",
"C. c #FDCDB0",
"Z. c #FBD0B3",
"A. c #FED2B6",
"S. c #FFD2B5",
"D. c #F7D0B9",
"F. c #FBD4B8",
"G. c #FED7BA",
"H. c #FED5B8",
"J. c #FFD6B8",
"K. c #FFDABD",
"L. c #FFDBC0",
"P. c #FBDFC2",
"I. c #FFDFC1",
"U. c #FBE1C5",
"Y. c #FEE2C5",
"T. c #FFE3C5",
"R. c #FEE5C8",
"E. c #FEE8CA",
/* pixels */
"                          @ @ o @ @ @ @ @ @ @ @ @ @ $ @ @ @ O + @ @ @ @ $ $ @ $ @ @ @ @ @ O @ o @ @ @                           ",
"                    o . P ,.| 9 9 | &.2.&.2.r.e.2.t.y.r.,.#.h % _ %.&.,.,.w.r.,.e.t.y.y.u.&.| 9 9 | ,.P X X                     ",
"              X . 9 _ @.5.x.p.i i p.g.x.x.x.H.A.N.H.G.H.x.f.E 8 ,.x.x.x.z.Z.J.N.A.G.G.G.A.g.p.i i p.x.5.@._ 9 . X               ",
"            % j Q 1.D.N.x.N.z.i i s.x.g.s.s.s.d.d.d.d.d.s.N.W 8 6.x.z.s.z.d.z.z.d.d.s.s.s.x.s.i i z.x.x.N.D.1.Q j %             ",
"          9 I 7.K.Y.K.Z.g.s.9.u u 9.g.x.n.N.n.N.x.z.x.x.x.a.Y 8 =.g.x.x.z.N.x.x.x.x.z.x.s.s.9.i i 9.x.x.Z.P.Y.K.7.I 9           ",
"        9 R b.P.F.s.s.p.9.8.+.w w *.<.9.8.8.8.8.8.9.8.8.9.:.z % } <.9.8.<.8.9.9.8.8.9.8.8.8.*.w 9 *.<.9.a.f.d.F.P.b.R 9         ",
"      @ [ V.U.n.s.s.p.-... .' 0 5 ) C C C C C C ) ) v ) C ` e % v C C C C C v ` ) ) C C C ) C 6 0 '  .o.-.p.d.d.n.U.n.[ @       ",
"      8 %.N.n.s.s.9.*.X.' ` c 5 + @ @ @ @ @ @ @ + + @ @ + + + + @ + + @ + + + + + + + # @ @ # o 5 c c  .X.*.9.f.s.n.Z.%.8       ",
"  . w $.p.s.s.s.8.*. . .g @ # o 6 a 0 2 o o o o o o o o o o o o + o o o o o o o o o @ q a a a 6 + @ @ g ]  .*.8.s.s.g.p.| w .   ",
"  . y 9.g.s.s.s.*. .' e @ X X 4 q g s 6 o o o o o o o o o o o o o o o o o o o o o o @ 7 a g g q 4 @ X @ e `  .*.s.s.s.g.p.i .   ",
"o h #.s.s.s.d.8.o.C 9 + X o X @ # # 2 @ o o o o o o o @ o o o o o o o + o o o o o o o # # 4 4 # @ o o X @ 9 C o.8.d.s.s.g.| h o ",
"o E a.s.s.g.p.+...x o X @ 5 5 0 0 7 6 @ o o o o o o o o o o o o o o o o o o o o o o o O X X X X X X o X o + v ..o.p.n.s.g.a.E o ",
"o [ Z.d.s.x.p.X.C e o # 9 a s k g g a 3 o o o o o o o o o o o o o o o o o o o @ o o o o # 6 6 7 5 5 5 5 # + e v X.p.z.z.g.N.[ X ",
"o E f.z.x.g.9. .w . @ 0 a k s k g g a 9 o o o o o * O o o o o o o o o o + o o o o o o X 7 s g k k k k a 0 @ . e X.8.g.x.g.f.E O ",
"o h #.&.2.%.{ ) 0 . + q a a a p r r 7 # o o o o O n - o o o o o o o o o o o o o o o o O # 0 e p p p p a w + X 0 ) { %.&.&.$.h o ",
"o % % % % % % % @ o o + + @ @ @ # @ # @ @ @ o o O n & o @ o o o o + o o o o o o o o o @ @ @ # @ @ @ @ o o o o @ # % > > > % @ o ",
"o L -.6.i.-.O.` w o o o # 0 a s a g a a a 9 # o O b - o o o o o o o o o + + O X o o @ 2 p a a a g p 0 # o o o 0 ` O.-.i.i.-.L o ",
"o E g.g.g.g.9.X.e , H m & 2 a g g g g s g a # X o O o o o o o o + o o O X X + + o o @ r s s k k g g 4 & m J , q X.9.g.g.s.g.E o ",
"o ^ Y.s.s.z.a.X.q < / G ; # a g g s g g k s 2 o O - * o o o o o + X + X O + O + o o @ p k k s k s a @ ; G / < q X.p.g.g.x.Y.^ o ",
"o ( E.z.s.z.p.X.q : N 1 : 7 s g g g g g s s 2 o O & O o o o o o o O + O X + X + o o @ p k s s s k a 9 : < N $ q X.q.x.g.z.E.( o ",
"o ^ K.s.s.s.q.X.q o # 6 q a g k s k k k k a 2 o o & O o o o o o o o o o X + + + o o + 0 s g g V k s s 0 6 # o e X.q.s.s.s.K.^ o ",
"o ! H.s.s.z.q.X.q o 6 e e r q q e e e e 0 6 @ o O b - o o o o o o o o o + + X O o o + 2 0 q q e q r e q e 6 @ q X.q.z.s.s.H.! o ",
"o ( Y.s.z.z.q.X.q O o X O O o o @ o o o o o o o O n = o o o o o O X o o X O X + X + # # # @ @ # # # # @ # @ o e X.q.z.s.z.Y.( o ",
"o ! N.s.s.x.9.X.q X @ @ @ @ @ @ @ @ @ + + o o o O n = o o o o o o + + + + + O + X # 0 p g s g s s s s g a 0 @ e X.q.x.s.s.N.W o ",
"o W x.g.d.z.q.X.q + 0 p s a a s a s s e 6 @ o o o n = o o o o o o o o o o o o o O # s k s g g g g g g g g s % q X.q.x.s.s.x.W o ",
"o W x.s.z.z.p.X.q % s s g g g g s k k s e @ o o O b & o o o o @ o o o o o @ o o X 6 s s s g g g g s g g g s # q X.p.x.g.s.x.W o ",
"o Y 0.x.N.a.<.X.q # e s g g k k k k k a 7 @ o o o n = o o o o o o o o o o o o o X # q g k k k k g g g g s q # e  .<.a.Z.x.q.Y o ",
"o 9 h K P h f r % @ # 3 5 5 5 6 6 7 6 2 # o o o O b = o o o o o o o o O o o o o O @ # 5 7 6 5 5 5 6 5 5 5 # + 2 e f h P K h 9 o ",
"o 9 h K K h f e # @ # 5 5 5 6 6 3 # @ X o o @ o O b = o o o o o o o o o o o o o o o o o X o # 6 5 6 5 5 5 # + # e f h K K h 9 o ",
"o Y 0.x.Z.a.>. .e # q s g g g g s 0 @ X o o o o O b & o o o o o o o o o o o o o o o o o O # 0 a g g g g s e # e X.<.a.x.x.0.Y o ",
"o ! H.s.g.x.p.X.0 # g g g g g s g a # X o o o o O n & o o o o o o o o o o o o o o o o o X # a g g g g g k s % e X.p.x.s.g.A.! o ",
"o ( R.z.g.g.q.X.e # s g g s g g s s # O o o O O O o o o o o o o o o @ o o o o o O O O O X # a g s g g g s s # e X.p.g.s.z.R.( o ",
"o ( R.V.q.L.7...r 2 0 V V r s s V V # . + + M M B @ X + + + n X o o o o o o o o N S B : X @ 0 a s s s s V 3 + q C 0.j.b.M.R.( + ",
"o ! A.b.q.V.q...r . X 2 2 2 2 2 . # + + + n b M B @ + X + X X + o o o @ o o o o N S m * o o @ @ # # # # # @ + q ..0.j.f.b.A.! o ",
"o ^ L.j.V.V.q...0 . + . . . . + . . . + + . n m B N + + + X + X o o o O o o o o N S b $ o o o # 3 0 e 0 3 3 + q ..q.V.V.n.I.^ o ",
"o ^ G.f.V.V.b.o.r . . 2 0 3 3 0 V 3 3 # + + n M B + X + X + X + o o o o o o o o m M b $ @ X o 0 V V d V V r 2 q ..7.V.V.s.G.^ o ",
"@ E N.s.b.V.b...r . # 0 d V d V V r r 3 + X n M M n . + X @ X + o o o o o o o o N S b $ o o o e d V V d V r 2 0 X.q.z.s.s.g._ O ",
"o W N.s.b.b.0.C 0 . + r r V r d 3 V d 3 X + n m B N + + @ X + + o o o o o o @ o N S b * X o o 0 a r d V d r # 0 X.p.z.s.s.N.! O ",
"o E f.g.D.b.b.C V X X 6 0 r r r 0 V 3 2 X + n M B @ + X X @ X + o o o o o o o o N S b * @ X o 2 0 r a r 0 3 # r  .9.z.z.g.g.E o ",
"o L -.6.b.8.C C 3 X + + # + 2 2 . 2 + . + X n M B + + + @ X @ X o o o o o o o o N S b O @ o X @ X + + + + X . r ` O.-.i.6.-.I o ",
"o @ % 4 > % % % + 2 3 r d r s r V r 3 2 . X & M B N . + + X + + o o o @ o @ o o N S b * + X @ o @ o @ o o o O @ % % % % > 4 % X ",
"o j #.&.2.%.[ ) 3 2 r V V d r d V d V 3 + + n M B X X + X + X + o o o o o o o o N S b * + o X 2 0 r p e 5 O X 0 ) { %.3.&.#.h X ",
"o Q f.g.x.g.8.X.0 2 V r d d d V d V d 3 X $ n m B N X + + + + X o o o o o o o o B S b $ @ X o 0 s g g s q @ X q X.8.g.x.x.f.E o ",
"o @.K.n.g.x.p.X.0 2 r V r V d r r d r 2 X . n M B # X + + + . + o o o o o o o o N M b $ X o o 7 s g g s 0 @ O q X.p.x.g.x.K.^ o ",
"o ( E.n.f.x.9.X.3 . 2 6 0 3 0 3 0 6 2 # + @ n m B N . + + X X O o o o o o O o o N S b * o o o # 6 7 0 6 # o X q X.p.s.s.z.E.( o ",
"o ^ I.s.s.g.p.X.V X 2 2 2 2 2 2 2 2 2 . X @ b m B # . + O + + X o o o o o @ o o B S n * X @ # # # 2 # 4 2 # o q X.9.z.s.z.I.^ o ",
"o ! A.s.s.x.p.X.r X 3 r V r V d V r r 2 X @ n b M n + + X + X O o o o o o o o o N M n O o # 0 a k s g a e 7 @ e X.p.z.s.s.A.! o ",
"o ( Y.s.s.x.p.X.r . # + 2 0 r d r V V 0 X + X + O + X X O + + + o o o o o o o o . o o o X # a s k s 0 > $ @ o e X.p.x.s.s.R.( o ",
"o ! Z.g.s.z.p.X.e , J F 1 # p g d d V 3 X + + + + + X + O + X + o o o o o o o o o o o o o # s g k s # ; F H 1 q X.p.z.z.d.Z.W o ",
"o ! x.g.s.x.9.X.q 1 / S = % a g r V r 3 . + + + X n n X + X + + o o o @ o o o o o o o o X # a k s s # & S / 1 q X.p.x.d.s.x.[ o ",
"X [ N.g.g.x.p.X.e $ , $ % 5 g k V d r 3 + . # + + n $ . + + + + o o o o o o o o o o o o X # 0 s k s 0 : $ < $ e X.p.N.f.d.N.W O ",
"O R a.x.N.f.<.X.e X X X @ 4 4 4 3 3 2 . + + . + + n n + X + X + o o o o o o o o o o o O X o # 2 6 5 # @ X X X e ..<.f.N.N.a.T O ",
"o t U E E T L g 5 @ # 6 6 5 5 5 3 3 3 2 # + + + + n n . + + + + o o o o o o o o o o o # 6 6 6 5 5 5 6 6 5 # + 5 g L T W E U t o ",
"X 4 t y i t 0 9 @ # r s k g g g d r V r 0 + + . + n $ + + + X + o o o o o o o o o o @ 0 s g k g k s k k s r # @ 9 9 t y y t 4 o ",
"o U 9.g.z.9.-. .q # s g g g g g d V V V V . + + X + + X + + X + o o o o o o o o o o @ e g g g s s k g g s s 2 e  .:.p.x.z.0.U o ",
"o ! Z.g.z.z.q.X.q # 7 p a a g a q V 0 V 3 . + X + n n X + X + X o o o o o o o o o o @ r g g g s g s s k k s # e X.p.x.d.f.Z.W o ",
"o ( Y.s.b.j.q...q O @ @ # @ @ @ @ @ @ @ + + + X O n & o o o @ O o o o o o o o o o o @ 7 r g s s s g s g a 0 # e X.p.z.s.s.R.^ O ",
"o ( R.n.b.V.q.o.e . o o X O o o X X X + + + + + O n = o o o o o o @ o o o o o O o o o @ # # # # # @ # # @ @ O q X.p.z.d.z.R.( o ",
"o ! G.s.M.M.0...q @ 6 0 e r e e 0 0 e 0 0 2 . X O b & o o o o o o o o o o o o o o o o o X X X O X X o X o o X q X.p.x.z.g.G.~ o ",
"o R 0.n.N.a.>...w % p s k s k s d V V d V V 2 . O n - o o o o o o o o o o o o @ o o o o @ 6 7 0 0 0 0 0 6 @ . e  .<.a.z.g.p.T o ",
"o V ;.>.>.;.o.C 0 # p V g g V s g g V V s a # o O b - o o o o o o o o o o o o o o o o o 6 f k k g k k g q @ O e ' ..*.8.>.;.z o ",
"o r C V V C V d 3 @ 2 0 r q e e e q q e e 6 @ o O - $ o o o o o o @ o o o o o o o o o o 3 r e q e q e 0 # @ X 3 d x x x x v e o ",
"o o o o X + X X + + + X o o X o o o o o o o o o o o o o o o o o o o o o o o o o o o o o o o o o o o O o o o o o o o o o o o o o ",
"o o o o X + + + + X + o o o X @ o o o o o o o o o o o o o o o o o o o o o o o o o o o o o o o o o o o o o o o o o o o o o o o o "
};
