/* XPM */
static char *dac81e69d1f54282a360cc07bc41c93bof7hTrC3GrLOqNu0[] = {
/* columns rows colors chars-per-pixel */
"64 64 167 2 ",
"   c None",
".  c #655363",
"X  c #6B5765",
"o  c #6E5967",
"O  c #6D5C6A",
"+  c #705967",
"@  c #735B69",
"#  c #7B5D6B",
"$  c #6D616F",
"%  c #7E636D",
"&  c #676575",
"*  c #6D6674",
"=  c #646978",
"-  c #6C6E7D",
";  c #766372",
":  c #7F6770",
">  c #706876",
",  c #736E7A",
"<  c #72707D",
"1  c #815F6E",
"2  c #885F6D",
"3  c #84616E",
"4  c #89626F",
"5  c #856270",
"6  c #8B6371",
"7  c #836972",
"8  c #8C6A72",
"9  c #936673",
"0  c #996773",
"q  c #956A74",
"w  c #9A6974",
"e  c #9E6A78",
"r  c #927176",
"t  c #937579",
"y  c #94787A",
"u  c #9A7A7C",
"i  c #A16C77",
"p  c #A56C79",
"a  c #AA6F7A",
"s  c #B46C77",
"d  c #A07579",
"f  c #AE707B",
"g  c #A47C7E",
"h  c #AA7C7E",
"j  c #B0717C",
"k  c #BD777D",
"l  c #B57D7F",
"z  c #BE797E",
"x  c #C9727D",
"c  c #C37B7F",
"v  c #617283",
"b  c #627D8D",
"n  c #697B8A",
"m  c #747682",
"M  c #727E8C",
"N  c #B27F80",
"B  c #CC7F82",
"V  c #678393",
"C  c #698694",
"Z  c #708593",
"A  c #768A97",
"S  c #728E9B",
"D  c #7E8E98",
"F  c #81969F",
"G  c #A68684",
"H  c #AF8180",
"J  c #AB8A86",
"K  c #B18584",
"L  c #B68985",
"P  c #B98A86",
"I  c #B68D88",
"U  c #BA8E89",
"Y  c #BC948C",
"T  c #BE998F",
"R  c #B79A94",
"E  c #BE9C92",
"W  c #BEA096",
"Q  c #BEA59B",
"!  c #849EA6",
"~  c #BDACA3",
"^  c #CD8183",
"/  c #C48D88",
"(  c #D68586",
")  c #DD8486",
"_  c #DD8788",
"`  c #CD968E",
"'  c #D3938D",
"]  c #D9938D",
"[  c #D49990",
"{  c #E48C8B",
"}  c #EA8F8D",
"|  c #E4918D",
" . c #EA9690",
".. c #E19C92",
"X. c #E99D94",
"o. c #CCA094",
"O. c #D7A195",
"+. c #DBA195",
"@. c #DCAB9B",
"#. c #DFB39F",
"$. c #EDA599",
"%. c #E1AD9C",
"&. c #EBAB9C",
"*. c #F1A297",
"=. c #F1A79A",
"-. c #F3AC9D",
";. c #E1B09E",
":. c #F1B09E",
">. c #CEB8AA",
",. c #DFB5A1",
"<. c #E0B5A1",
"1. c #E9B3A0",
"2. c #E4B9A4",
"3. c #EDBEA7",
"4. c #ECBEAC",
"5. c #F5B5A3",
"6. c #F6BBA5",
"7. c #FBBDA6",
"8. c #F8BFA8",
"9. c #DFC1AD",
"0. c #DFC5B1",
"q. c #DFCAB6",
"w. c #DFCFBB",
"e. c #DFD0BC",
"r. c #E0C3AF",
"t. c #EEC1A8",
"y. c #F7C1A8",
"u. c #FBC3AA",
"i. c #FBCAAE",
"p. c #FBC9AD",
"a. c #FDC9AD",
"s. c #FCCBAF",
"d. c #FCCAAE",
"f. c #FECBAF",
"g. c #FCCCAF",
"h. c #FDCCAF",
"j. c #FCCDAF",
"k. c #FECCAF",
"l. c #FFCCAF",
"z. c #FCCBAE",
"x. c #F7C6B1",
"c. c #FBCDB1",
"v. c #FECDB0",
"b. c #FECCB0",
"n. c #FFCEB1",
"m. c #FFCFB3",
"M. c #FCCDB0",
"N. c #FACBB4",
"B. c #FDCDB0",
"V. c #FBD0B3",
"C. c #FED2B6",
"Z. c #FFD2B5",
"A. c #F7D0B9",
"S. c #FBD4B8",
"D. c #FED5B8",
"F. c #FED7BA",
"G. c #FFD6B8",
"H. c #FFDABD",
"J. c #FFDBC0",
"K. c #FBDEC1",
"L. c #FADFC3",
"P. c #FFDFC1",
"I. c #FBE1C5",
"U. c #FEE2C5",
"Y. c #FFE3C5",
"T. c #FEE5C8",
"R. c #FEE8CA",
/* pixels */
"                          @ @ o @ @ @ @ @ @ @ @ @ @ @ $ @ $ + X + @ $ @ $ @ $ @ @ @ $ @ @ @ @ + + @ $                           ",
"                    o . J ;.[ 8 8 [ #.,.,.,.q.0.,.w.e.q.;.+.h % / @.;.;.;.r.q.;.9.w.e.e.r.#.[ 8 8 [ ;.J X X                     ",
"              X . 8 / o.2.k.y.u u 8.b.N.n.s.C.C.k.D.F.D.k.p.Y 7 ;.l.k.k.j.V.G.n.C.F.F.F.C.s.y.u u y.k.2.o./ 8 . X               ",
"            % h R >.A.n.k.n.j.u u x.b.N.i.i.i.i.s.p.p.s.p.n.T 7 3.n.i.i.l.l.p.j.a.p.i.i.p.k.i.u u i.k.k.n.A.>.R h %             ",
"          8 K 4.H.U.K.V.s.i.6.y N @.4.N.8.N.x.x.k.j.k.k.i.y.P 7 %.p.n.k.i.j.l.i.s.k.k.s.j.i.6.u u 6.p.k.V.H.U.H.4.K 6           ",
"        8 U x.L.S.p.s.y.6.5.X.q N X.:.5.7.5.5.5.5.5.6.5.6.=.H 3 ] :.5.5.:.7.6.5.6.5.5.6.6.:.$.q r ..:.7.y.j.p.D.L.x.Y 8         ",
"      @ ` N.I.c.i.p.y.=.| { ) 9 6 B B B B B B B ^ ^ B B B ( e # c ^ ^ ^ ^ ^ B B B B B ^ B B B 6 9 { { } &.y.p.p.c.I.c.` @       ",
"      7 @.n.c.i.s.6.$.| ) ( x 4 X @ # @ @ ; + X + + + @ + @ + o + + + + + + + + + @ + + @ @ @ o 6 x x { | $.6.s.i.i.V.@.7       ",
"  . q +.y.i.i.i.5.$.| { f @ # + 2 N 2 + X X + + o o o o o o o + + o o o o o + o o o o o # 0 p 5 + @ % f { { X.5.i.i.i.y.+.8 X   ",
"  . y 6.i.i.j.i.$.{ _ w + o X 3 9 N N 2 + + + + o o + o o o o O o o o + o o o o O o o o 4 a f 0 3 X X @ q ) { $.i.i.i.s.6.y .   ",
"o g O.p.i.j.u.5. .c 9 + X o X + # 1 2 # + X + + o o o o o o o o o o o o o o o o o o o o @ 3 1 % @ X o X + 9 B X.5.u.j.i.s.[ g o ",
"o Y u.i.i.j.y.X.} z + X @ 4 4 q 2 1 X X X + X + o o o o o o o o o o o o o o o o o o o o o o X X o X o X X o c } X.y.j.i.s.u.Y o ",
"o / Z.j.j.j.y.| c q @ @ 6 p f j N 9 + X o o o O o o o o o o o o o o o o o o o o o o o o o o o % 4 4 4 3 @ @ w c | y.j.j.s.n.` X ",
"o Y s.k.k.k.5.| w X @ 9 a j f f e N # . o o + o o o o o o + o o o o o o o o o o o o o o o o o 9 f j j a 9 @ X q | 5.s.k.s.a.Y O ",
"X h +.#.;.@.' ^ 9 o + q p p i i e 5 O o o o o o o o o o o o o o o o + o o o o o o o o + o o o 3 0 i i i q + X 9 ^ ' @.,.#.+.g o ",
"X ; % % % % % % + o + + + @ @ @ # @ @ + o o o o o o o + o o o o o o o o o o o + o o o o o + @ @ @ @ @ + o o o @ # % % : : % @ o ",
"o H &.3.t.;..._ q o + X # 9 i a a i 0 # o o o o o o o o o o o o o o o o o o o o o o o o X @ 6 p f p 9 # X O X q ) [ 1.t.3.&.H o ",
"+ Y p.j.k.p.6.| w > F n & 1 a j j a f 4 o o o o o o o o o o o o o o o o o o o o o o o o X # p f f p 3 & n D , q } 7.i.i.s.s.Y o ",
"o Q U.j.i.k.y.| 0 , ! S - # i j a f j 6 o o o o o o O o o o o o o o o o o o @ o o o o o X # a f j p @ - S ! , q | y.k.i.k.U.Q o ",
"o ~ R.k.p.k.y.| q $ m , ; 6 a a j a j 4 o o o o o + o o o + o o o o o o o o o o o o o o o # p f f a 6 ; , m ; 0 | y.k.i.j.R.~ o ",
"o Q H.i.p.j.6.| q + 1 2 0 i j j N f p 5 o o o o o o o o o o o o o o o o o o o o o o o o o # e a j f p q 4 # X 0 | 8.i.i.i.H.Q o ",
"o E D.i.s.k.y.| 0 @ 2 0 e e q q 0 w 6 # o o o o o o o o o o o + o o o o o o o o o o o o o @ 1 9 w 0 w 0 9 6 @ 0 | 8.k.i.i.D.E o ",
"o ~ U.j.i.k.y.| w X o o o o o o X X o o o o o o + o o o o o o o o o o o o o o O o o o o @ @ @ @ # @ # @ # @ X 0 | 8.j.i.i.U.~ o ",
"o T k.i.i.k.8.| q o + @ @ @ @ + @ @ o o o o o o o o o o o o o o o @ o o o o o o o o o o # 0 f f f f f f p 9 # 0 | 8.k.i.i.n.T o ",
"o T k.k.i.j.y.| q @ 9 i a p a a i 6 @ o o o o o + o o o o o o o o o o o o o o o o o o o 4 f f f f f f f a a % 0 | y.k.i.i.k.T o ",
"o T k.i.i.k.y.| 0 # a a f f f f a p # X o o o o o o o o o o o o o o o o o o o o o o + o 6 f f f a f f f s a # 0 | y.s.s.i.k.T o ",
"o P 7.k.n.u.:.} q # e a j f j j N 9 # X o o o o o o o o o o + O o o o o o o o o o o o o 3 e f f f f j j a q # 0 { :.u.k.k.7.P o ",
"o 8 g G J g d w 1 + # 3 4 3 4 4 1 # @ o o o o o o o o o o o o o o o o o o o o o o o o o @ 3 6 6 4 4 4 4 3 # + % w d G G G g 8 o ",
"o 8 g G G g d w 1 + # 3 4 4 4 # + X o o o o + o o o o o o o o o o o o o o o o o o o o o o X X X + @ 4 4 3 # @ 1 w d g G G g 8 o ",
"o P 7.k.V.u.-.| w @ w a j f j i 6 + o o o o o o o + o o o o o o o o o o o o o @ o o o o o o o o % e a j a e # 0 | -.u.n.k.7.P o ",
"o E D.i.s.k.y.| 0 % a f a j a j 9 + X o o + o o o o o o + o o o o o o o o o o o o o o o o o o X 3 f f f a a 3 q | y.s.i.s.D.E o ",
"o ~ T.c.p.k.8.| 0 3 a a f a j j 9 + + + $ O o o o o o o o o o o o o o o o o o o o o o O $ O o X 3 a f f j a # q | y.s.i.j.T.~ o ",
"X ~ T.j.i.c.8.| 9 # 9 p a a a e 2 + X m A M * + o o o o o o o o o o o o @ o o o o o o M Z M O o # 0 p a a 9 @ 0 | y.i.i.M.U.~ o ",
"X o.V.i.i.i.8.| 0 o @ # # # # @ + X + = b M > X o o o o o o o o o o o o o o o o o o O M V v O o o @ # # @ @ X 0 | 8.M.i.i.C.E o ",
"X Q U.i.i.i.8.| e X X X X O O X X @ + = b Z > + o o o o o o o o o o o o o o o o @ o @ M V v o o X O 1 9 0 5 @ 0 | 8.n.i.s.K.Q o ",
"o Q F.i.i.i.8.| 0 X + # 4 9 9 # o X X v b Z > + o o o o o o o o o o o o o o o o X o * M V v o o O @ 0 a a p # 0 | 8.b.i.s.H.Q o ",
"o E s.s.i.M.8.| 0 X @ 9 a N s 2 X o o = b Z > X o o o o o o o o @ O o o o o o o o X O M V v O @ X @ i j a a 1 0 | 8.k.p.s.s./ O ",
"o E k.i.i.i.8.| 0 X @ q a a a 1 X @ X = b Z > X o o @ o o o @ o o o o o o o o o @ X O M V v O X + @ 9 N j p # 0 | y.k.s.s.k.E O ",
"o Y s.s.M.i.6.| q X @ 1 0 p p 1 X X o = b Z > X o o o o o o o o o o o o o o o o X o @ M V v O X X @ 5 0 e 6 @ 0 | 5.s.k.i.s.T o ",
"o H &.3.y.1...( q o @ @ @ @ @ @ @ @ o = b Z > X o o o o o o o o o o o o o o o o @ X $ n V v X X @ X X @ + + X 9 _ ..;.t.3.&.H o ",
"o @ 3 : : % % % + # 9 p a p a 0 1 o + & b Z > X O @ X o o o o o o o o o o o o o o o O M V v O O o o @ @ + o + @ % % % : % % ; X ",
"+ h O.#.#.@.' ^ 9 # p a j a a a 9 @ X = b Z > X o o o o o o o o o o o o o o o o o o @ M V v O O # 6 e 0 3 + X 9 ^ ' @.,.#.+.h X ",
"o Y p.k.k.s.5.| 0 1 a a a a j j 9 + X = b Z > + o o o o o o o X o o o o o o o o o o O Z V v O X 1 p f a 0 @ X q | 5.p.k.j.l.Y X ",
"o Q H.k.i.j.y.| 0 @ i N j j j p 6 @ + = b M > X o o o o o o o @ o o o o o o o o o o O M V v O X # p a p 0 @ X q | y.k.i.j.K.o.+ ",
"O ~ R.c.p.j.6.| 0 @ 1 6 9 9 9 1 # o X = b Z - X o o o o o o o o o o o @ o o o o o + O Z V v O X @ 1 6 6 # X O 0 | y.i.i.j.R.~ o ",
"O o.K.i.i.k.y.| 0 X # # # 1 # # @ o + = b Z > + o o o o o o o o o o o o o o o o o o O M V v O @ # # 3 1 : # o 0 | 6.k.i.i.K.Q o ",
"X W C.i.i.k.y.| 0 @ 6 e p a a p 6 o o & v M > X o o o o o o o o o o o o o o o o o o o m n = O 6 p a a p e 6 @ w | y.i.i.k.V.W o ",
"X ~ U.i.i.k.y.| e X $ @ 1 9 p N 0 o o o o @ X + o o o o o o @ o o o o o o o o o o o o o o o O q j a 9 : @ @ o q | y.j.i.j.Y.~ o ",
"o E V.i.i.k.6.| q , F A , # p j 9 X o o o o o o o O X @ o o o o o @ o o o o o o o o o o + O O 0 j p # - A F , 0 | y.j.p.p.V.` O ",
"o E k.i.j.k.y.| 0 , ! C = % a j e + o o o o o o o o @ X o o o o o o o o o o o o o o o o X X X 0 j a # = V ! , 0 | 7.k.p.i.k.T O ",
"O / n.i.k.k.y.| 0 $ , $ ; 9 a p 6 X + X o o @ o o o X o o o o o o o o o o o o o O X X o @ X + 6 p a 9 ; * , O q | y.k.l.i.n.T X ",
"O U u.n.V.u.:.| w X X X + # 3 3 # X X + o o X o o o o o o o o o o o o o o o o o X @ @ o o o X @ 1 2 1 + X o X e | :.p.k.k.u.U O ",
"o r L Y Y I H f 4 + # 4 4 4 3 4 1 # X + o @ o o o o o o o o o o o o o o o o o o @ o o o o + # 2 4 2 6 6 5 # o 5 f H I Y Y L r X ",
"o 3 r y u t q 8 @ # w a j j j j N 0 @ X o o o o o o o o o o o o o o o o o o o o X o o o o @ 9 a j a j j a 0 # % 8 8 t y y r 3 o ",
"o P 6.s.j.6.&.{ w 1 p a f f f a a p # O o o o o o @ o o o o o o o o o o o o o o o o o o O # a j a a j f j a # 0 { =.y.k.p.7.L o ",
"o E V.p.p.j.8.{ q @ 9 i a p a a e 6 @ o o o o o o o o o o o o o o o o o o o o o @ o o o X # p a j f f a f a # 0 | y.k.p.l.V.T o ",
"o ~ Y.i.x.b.8.| w X @ @ @ @ @ @ @ @ X o o o o o o o o o o o o o o o o o o @ o o o o o o o @ 9 p f a a f p 9 # q | 8.j.p.i.Y.~ o ",
"o ~ T.s.s.b.8. .q o o o o o o o o X @ X o o o o o o o o o o o o o o o o o o o o o o o o o @ @ @ @ # # @ # @ o 0 | 8.j.p.j.T.~ o ",
"o W F.s.s.s.7.} 0 @ 4 0 e 0 0 9 # @ o o o o o o o o o o o o o o o o o o o o o o o o o o o o o O o o o X o o X q | y.j.j.k.D.W o ",
"o U 8.s.n.y.-.} w # i a f j a a 8 o o o @ X o o o o o o o o o o o o o o o o o o o o o o o o o # 4 9 9 9 2 + X 0 { :.u.j.j.8.I o ",
"o l *.-.-.$. .B 0 # p f f f j f 9 o o o o o o o o o o o o o @ o X @ o o o o o o o o o o o o @ 8 a j j f 0 @ O 0 )  .=.:.-.$.l o ",
"o w B z B N N s 2 @ 5 q e 0 0 6 # @ o o o o o o o o o @ o o o o o o o O o o o o o o o o o @ X 6 0 0 0 9 1 o X 1 s k c k z c w o ",
"o o X X o o X o o o o X o o o o o o o o o o o o o o o o o o o o o o o o o o o o o o o o o o o o o o o o o o o o o o o o o o o o ",
"o o o X o o o o o o o o o o o o o o o o o o o o o o o o o o o o o o o o o o o o o o o o o o o o o o o o o o o o o o o o o o o + "
};
